<?xml version="1.0" encoding="UTF-8"?>
<svg id="b" data-name="Capa_2" xmlns="http://www.w3.org/2000/svg" width="194.08" height="126.51" viewBox="0 0 194.08 126.51">
  <g id="c" data-name="OBJECTS">
    <g>
      <g>
        <circle cx="60.32" cy="9.03" r="6.85" fill="#8a9601"/>
        <path d="M73.22.13s-3.68-1-10.38,2.68c-6.7,3.68-21.44,15.74-19.76,18.42,1.67,2.68,9.04,7.03,17.42,8.04,8.37,1.01,13.06,1.34,13.06,1.34l-5.36,22.78s-14.74,9.38-12.39,21.77,7.7,17.42,19.09,21.44l11.39,4.02s-21.44-.33-30.15,2.68c-8.71,3.01-8.37,5.02-2.34,6.03,6.03,1.01,13.4-1,13.4-1,0,0-9.04,5.02-5.69,6.03,3.35,1,44.55-13.06,44.55-13.06l25.12-1s-39.53,11.05-32.49,14.07c7.03,3.01,18.76-3.68,18.76-3.68,0,0-10.05,9.04-4.35,8.37s15.41-7.03,15.41-7.03c0,0-9.71,12.06-4.69,10.72,5.02-1.34,16.75-13.06,16.75-13.06,0,0,47.23-4.69,52.59-8.37,5.36-3.68-13.06-34.17-38.52-52.93-25.46-18.76-39.86-24.79-44.22-32.83-4.35-8.04-6.03-14.07-11.72-14.74-5.69-.67-25.46-.67-25.46-.67Z" fill="#8a9601"/>
        <path d="M42.94,20.3s39.7-1.84,44.36-.57c4.66,1.27,8.48,3.96,8.48,3.96" fill="none" stroke="#255c34" stroke-miterlimit="10"/>
        <path d="M96.48,21.29s.28,3.39-1.84,3.53" fill="none" stroke="#255c34" stroke-miterlimit="10"/>
        <path d="M98.04,19.03s2.26,3.53.28,6.08" fill="none" stroke="#255c34" stroke-miterlimit="10"/>
        <path d="M73.56,30.61s13.74,2.83,18.27,1.84" fill="none" stroke="#255c34" stroke-miterlimit="10"/>
        <circle cx="96.9" cy="9.03" r="6.85" fill="#f2ff4d"/>
        <path d="M96.9,15.88c-3.79,0-6.85-3.07-6.85-6.85s3.07-6.85,6.85-6.85,6.85,3.07,6.85,6.85-3.07,6.85-6.85,6.85Z" fill="#f2ff4d"/>
        <path d="M100.72,9.03c0,2.11-1.71,3.83-3.83,3.83s-3.83-1.71-3.83-3.83,1.71-3.83,3.83-3.83,3.83,1.71,3.83,3.83Z"/>
        <path d="M68.2,53.39s1.13,16.35,13.59,25.99c12.46,9.64,48.03,18.61,49.36,18.78,1.33.17-22.77-22.1-24.1-31.08-1.33-8.97-28.51-31.21-38.85-13.7Z" fill="#f2ff4d"/>
        <path d="M76.32,10.19s1.97-.06,2.29,0" fill="none" stroke="#255c34" stroke-miterlimit="10"/>
        <line x1="66.48" y1="10.19" x2="69.36" y2="10.19" fill="none" stroke="#255c34" stroke-miterlimit="10"/>
        <path d="M105.46,59.33l2.94,51.03s-15.86,9.32-12.84,10.3c3.02.98,10.23-5.77,10.23-5.77,0,0-5.23,9.69-2.05,8.96,3.18-.74,4.65-8.34,4.65-8.34,0,0,.98,12.51,3.68,10.55,2.7-1.96.64-10.45.64-10.45l12.6-48.18-19.87-8.1Z" fill="#6c7501"/>
        <path d="M69.36,63.95l16.18,48.92s-12.15,11.33-8.07,9.97c4.07-1.36,8.07-6.9,8.07-6.9,0,0-3.38,11.38,0,9.23,3.38-2.15,4.51-7.69,4.51-7.69,0,0,.53,12.74,3.03,7.96,2.5-4.78-1.25-9.5-1.25-9.5l-4.16-32.87-18.31-19.13Z" fill="#6c7501"/>
        <path d="M136.53,35.75s-.54,21.91,12.75,23.58c13.28,1.67,17.58,0,17.58,0,0,0-25.96-20.71-30.32-23.58Z" fill="#6c7501"/>
        <path d="M105.46,59.33s23.71-7.05,31.06,6.65c7.35,13.7-7.37,26.82-7.37,26.82l-23.69-33.47Z" fill="#6c7501"/>
        <path d="M114.6,30.61c-.43-.26-8.21-5.67-10.85-.81-2.64,4.86.96,13.18,7.87,11.92,6.9-1.26,4.03-10.5,2.98-11.11Z" fill="#6c7501"/>
      </g>
      <path d="M159.3,66.24s-10.77-4.86-18.07,4.52-10.06,29.53-10.06,29.53" fill="none" stroke="#255c34" stroke-miterlimit="10"/>
      <path d="M136.52,79.48s7.98-17.66,15.16-21.96" fill="none" stroke="#255c34" stroke-miterlimit="10"/>
      <path d="M64.07,19.03s-14.73,27.68-29.46,25.42c-14.73-2.25-14.04-4.68-23.39,1.04-9.36,5.72-8.14,8.66-5.2,8.32,2.95-.35,10.92-6.47,14.73-6.96,3.81-.49,16.46,5.23,24.43,2.63,7.97-2.6,21.99-30.04,21.99-30.04" fill="#cc714f"/>
      <path d="M6.85,51.46s-2.58-7.12-4.7-5.91c-2.12,1.21-3.03,5.45-1.06,5.91,1.97.45,4.24.76,4.24.76,0,0-.45,6.51,1.52,5.91,1.97-.61,2.88-4.29,2.88-4.29l-2.88-2.38Z"/>
    </g>
  </g>
</svg>