<svg id="Layer_1" data-name="Layer 1" xmlns="http://www.w3.org/2000/svg" viewBox="0 0 201.24 91.5">
  <defs>
    <style>.cls-1{fill:#fff;}</style>
  </defs>
  <polygon class="cls-1"
    points="32.43 33.1 32.23 22.09 40.65 22.13 40.76 16.21 32.52 16.18 32.28 9.34 43.51 9.26 43.47 3.34 26.31 3.47 26.57 39.06 43.74 38.93 43.69 33.01 32.43 33.1" />
  <polygon class="cls-1"
    points="67.52 18.62 62.88 14.95 56.8 22.63 50.52 15.48 46.08 19.38 53.07 27.34 45.43 36.99 50.07 40.66 57.04 31.86 64.25 40.07 68.7 36.16 60.77 27.14 67.52 18.62" />
  <path class="cls-1"
    d="M80,13.15a11.23,11.23,0,0,0-5.3,1.92l-.18-1.6-5.88.64,3.59,32.78,5.89-.64-1.23-11a11.52,11.52,0,0,0,5.41.69,11,11,0,0,0,8-4.55,12,12,0,0,0,2-8.06C91.74,17.71,87.33,12.41,80,13.15ZM77.87,29.06a5.84,5.84,0,0,1-1.9-4c-.38-4.38,2.72-5.87,4.6-6.06a5.32,5.32,0,0,1,.69,0c2.36,0,4.79,1.28,5.16,4.92A5.2,5.2,0,0,1,81.68,30,5,5,0,0,1,77.87,29.06Z" />
  <rect class="cls-1" x="94.82" y="0.13" width="5.92" height="38.06"
    transform="translate(-0.9 5.34) rotate(-3.12)" />
  <path class="cls-1"
    d="M114.83,17.29h-.11A10.72,10.72,0,0,0,106.47,21a12.09,12.09,0,0,0-2.76,7.74A11.69,11.69,0,0,0,107,37.12a10.8,10.8,0,0,0,7.82,3.06h.11a10.88,10.88,0,0,0,8.41-3.77,11.91,11.91,0,0,0,2.74-7.85C126,23,122.14,17.29,114.83,17.29Zm-3.68,15.64a5.72,5.72,0,0,1-1.52-4.11c0-4.4,3.24-5.6,5.14-5.61h0c2.56,0,5.29,1.42,5.32,5.4a5.37,5.37,0,0,1-1.88,4.49,5.73,5.73,0,0,1-3.41,1.17A5,5,0,0,1,111.15,32.93Z" />
  <path class="cls-1"
    d="M133,18.22v-1.3l-5.22.26.21,23.38,5.92-.05-.08-12.16a5.72,5.72,0,0,1,1.72-4.49,4.16,4.16,0,0,1,3.27-1l.49.07.83-5.86L139.6,17A11.72,11.72,0,0,0,133,18.22Z" />
  <rect class="cls-1" x="142.18" y="16.36" width="5.92" height="23.3"
    transform="translate(-0.21 1.09) rotate(-0.43)" />
  <path class="cls-1" d="M142.53,12h0a3.55,3.55,0,1,0-.36-5A3.55,3.55,0,0,0,142.53,12Z" />
  <path class="cls-1"
    d="M162.45,16.63h0a7.32,7.32,0,0,0-5,1.64l-.05-1.42-5.34,0,.21,23.38,5.91-.05L158,28.55h0v-.48c0-3.77,2.29-5.51,4.43-5.52h0c2.88,0,3.93,2.76,4,5.16l.75,13.79,5.92,0-.75-13.83C172.28,20.06,167.2,16.63,162.45,16.63Z" />
  <path class="cls-1"
    d="M26.76,51.34C27.3,59.21,22,67.47,7.75,68l.39,15.19-7.21.12L0,37.47l3.71,0C21.1,37.68,26.14,42.38,26.76,51.34Zm-7.25.76c0-2.87-.78-6.6-12.17-7.26l.28,15.92C15,60.43,19.45,57.82,19.51,52.1Z" />
  <path class="cls-1"
    d="M47.67,47.34l-1.12,7a6.54,6.54,0,0,0-5.26,1.49,8.84,8.84,0,0,0-2.84,6.9h0l0,19-7.07-.07.15-34.35,7.08.06,0,1.76A13.58,13.58,0,0,1,47.67,47.34Z" />
  <path class="cls-1"
    d="M77.45,67.44,55.6,67.28a9.39,9.39,0,0,0,1.12,2.21A7.6,7.6,0,0,0,63.18,73c3.51-.1,5.95-3.14,6.84-4.45l5.54,3.78c-3.1,4.56-7.55,7.24-12.19,7.37h-.52A14.36,14.36,0,0,1,51.2,73.29a15,15,0,0,1-1.72-14.24,15.81,15.81,0,0,1,8.41-8.71,13.62,13.62,0,0,1,10.72.3A14.51,14.51,0,0,1,77.42,64ZM70,60.68a7.47,7.47,0,0,0-4-3.89,7.92,7.92,0,0,0-3.08-.7,6.39,6.39,0,0,0-2.45.46,8.85,8.85,0,0,0-4.24,4Z" />
  <path class="cls-1"
    d="M99.79,62.73a27.7,27.7,0,0,0-5.93-3.81,20.3,20.3,0,0,1-4.52-2.85,1.65,1.65,0,0,1-.53-2c.4-.75,1.63-1.47,3.78-1a4.25,4.25,0,0,1,2.68,2.58l.22-.2c.63-.52,1.29-1,2-1.48s1.41-1,2.12-1.42l1.82-1.16a11.15,11.15,0,0,0-7.27-5.57c-5.06-1.07-9.7.8-11.83,4.76a9,9,0,0,0,1.84,10.76,25.54,25.54,0,0,0,6.28,4.15,16,16,0,0,1,4.38,2.71,3,3,0,0,1,0,3.62c-1.33,2-3.53,2.27-6.06,1.07a10,10,0,0,1-2.65-2c-.25.26-4.52,4.25-5.21,4.89a10.89,10.89,0,0,0,4.3,3.4A15.45,15.45,0,0,0,89,80.4a12.49,12.49,0,0,0,12.46-5.11A9.48,9.48,0,0,0,99.79,62.73Z" />
  <path class="cls-1"
    d="M137.44,63.24a15.85,15.85,0,0,1-3.81,10.32,14.39,14.39,0,0,1-11.2,4.78,14.83,14.83,0,0,1-8-2.26V91.5l-6.83,0,.07-43.81h6.82v2.75a14.51,14.51,0,0,1,8.24-2.35h0C132.49,48.18,137.51,55.79,137.44,63.24Zm-6.82-.07c0-3.77-2-8.2-8-8.26h0c-2.87,0-7.75,1.68-7.91,8.27a8.61,8.61,0,0,0,2.19,6.2,7.54,7.54,0,0,0,5.55,2.14C125.49,71.55,130.55,69.82,130.62,63.17Z" />
  <path class="cls-1"
    d="M170.16,48.29l0,29.9h-6.62V74.78a14.21,14.21,0,0,1-9.23,2.79,13.67,13.67,0,0,1-10.46-5,15.48,15.48,0,0,1-3.33-10A14.92,14.92,0,0,1,144.94,52a13.8,13.8,0,0,1,10.21-3.71h0a14.42,14.42,0,0,1,8.39,2.84v-2.8Zm-7.63,15c.17-6.44-4.67-8.3-7.55-8.38h0a7.31,7.31,0,0,0-5.46,1.87,8.37,8.37,0,0,0-2.34,5.92c-.09,6.39,4.58,8.23,7.36,8.31C158.12,71.05,162.36,69.09,162.53,63.24Z" />
  <path class="cls-1"
    d="M195.69,18l-.26,2.11A14.77,14.77,0,0,0,189,17.67c-7.93-.65-12.56,5.15-13.06,11.2a12.89,12.89,0,0,0,2.33,8.64A11.78,11.78,0,0,0,187,42.23a12.24,12.24,0,0,0,6.32-1.08L193,46c-.06.56-.75,5.44-6.53,5h-.1a6.28,6.28,0,0,1-4.89-3.27,8.82,8.82,0,0,1-.86-3.6L175.29,46c0,3.11.77,6.3,3.25,8.33a13.43,13.43,0,0,0,15.88.8,11.52,11.52,0,0,0,4.84-8.47l2-28.21Zm-2.08,12.44a6.24,6.24,0,0,1-2,4.33,5.43,5.43,0,0,1-4.12,1.16c-4.55-.38-5.46-4.3-5.28-6.56A5.7,5.7,0,0,1,184.48,25a6,6,0,0,1,3.42-1,5.49,5.49,0,0,1,.58,0C190.54,24.12,193.93,25.68,193.61,30.45Z" />
</svg>
