<svg id="Layer_1" data-name="Layer 1" xmlns="http://www.w3.org/2000/svg" xmlns:xlink="http://www.w3.org/1999/xlink" viewBox="0 0 100 100"><defs><style>.cls-1{fill:none;}.cls-2{fill:#fefbec;}.cls-3{fill:#efe9d8;}.cls-4{clip-path:url(#clip-path);}.cls-5{fill:#e5e0d3;}.cls-6{fill:#d3ccbe;}</style><clipPath id="clip-path"><path class="cls-1" d="M40.07,93.87A55.4,55.4,0,0,1,50,93.26c7.76.35,15.47.71,23.25.81l21.2.27a.42.42,0,0,0,.44-.44c-.36-3.42.32-10.22-2-13.49A2.3,2.3,0,0,1,93,77.63c4.25-5.1,2-16.6,2.08-22,.14-14.35-1.44-28.69-.9-43l.29-7.93A.42.42,0,0,0,94,4.28c-11.69.29-23.38.63-35.07.93-7.6.2-24.12-2.44-30.46,1.9C20.78,3.67,13,5.34,4.69,5a.39.39,0,0,0-.42.37c.3,7.41.75,14.82.88,22.24.41,22.8,0,42,.4,67.7a.38.38,0,0,0,.42.38c7.31-.42,14.64.19,21.94-.3C32,95.15,36,94.41,40.07,93.87Z"/></clipPath></defs><g id="_3" data-name="3"><path class="cls-2" d="M39.15,98A60,60,0,0,1,50,97.31c8.48.38,16.92.78,25.43.88l23.18.3a.45.45,0,0,0,.48-.49c-.39-3.75.57-13.2-2-16.75a2.53,2.53,0,0,1,.18-3.06c4.6-5.58,2-16.14,2-22,.16-15.7-1.57-31.37-1-47.06L98.64.45A.46.46,0,0,0,98.15,0C85.36.32,72.58.7,59.79,1c-8.31.22-26.37-2.67-33.31,2.08C18.05-.66,9.5,1.17.45.82A.42.42,0,0,0,0,1.23c.32,8.1.82,16.2,1,24.31.45,25,0,45.94.43,74.05a.43.43,0,0,0,.46.41c8-.46,16,.21,24-.33C30.3,99.37,34.72,98.57,39.15,98Z"/><path class="cls-3" d="M40.07,93.87A55.4,55.4,0,0,1,50,93.26c7.76.35,15.47.71,23.25.81l21.2.27a.42.42,0,0,0,.44-.44c-.36-3.42.32-10.22-2-13.49A2.3,2.3,0,0,1,93,77.63c4.25-5.1,2-16.6,2.08-22,.14-14.35-1.44-28.69-.9-43l.29-7.93A.42.42,0,0,0,94,4.28c-11.69.29-23.38.63-35.07.93-7.6.2-24.12-2.44-30.46,1.9C20.78,3.67,13,5.34,4.69,5a.39.39,0,0,0-.42.37c.3,7.41.75,14.82.88,22.24.41,22.8,0,42,.4,67.7a.38.38,0,0,0,.42.38c7.31-.42,14.64.19,21.94-.3C32,95.15,36,94.41,40.07,93.87Z"/><g class="cls-4"><path class="cls-5" d="M95.59,52.26c-1.39.65-3.11,0-4.22,1.63.25.34.43,1.1.9.51.64-.79,1.16-.54,1.79,0-.59.57-.43,1.53-.89,2.32.81,0,1.38.58,2.08.72a1.71,1.71,0,0,0,.34.06Z"/><path class="cls-5" d="M81.54,58.12c-.31-.52-.79,0-1.15-.25a5.49,5.49,0,0,1-1-.59c-.26-.24.53-1.36-.42-1s-1.93.63-1.77,2.23c.22,2.06,1.57,2.66,3.34,1.48a2.64,2.64,0,0,1,.44-.23l.42-.74Z"/><path class="cls-5" d="M83.36,48.22c-.43.23-.7.45-.76.39-1.28-1.42-2.81.23-4-.36-1.32-.69-2,.41-3.08.61,1.24.52,2.55.64,3.77,1.2a.65.65,0,0,0,.79-.27c.54-.63.91-1,1.29.29.16.54,1.06.4,1.36-.34C82.91,49.37,83,49,83.36,48.22Z"/><path class="cls-5" d="M87.93,83c-.19.41-.14.72.27.87.59-.63,1.58-.21,2.08-1.09.21-.37.79-.51.52-1.19s-.71-.2-1.08-.17l-.72.11c-.34-.82.59-.57.58-1.16-.82-.78-1.92.56-2.7-.46l0-.06c-.07.48.75,1.71-.65,1.08-.19-.09-.17.13-.15.25s.09.33.15.33c.6,0,.91,1,1.64.68.19-.1.57-.1.57.31S88.16,82.91,87.93,83Z"/><path class="cls-5" d="M86.88,79.92c.07-1.24,1-1.38,1.68-1.66,1.68-.65,1.69-.61,1.17-2.61.26-.29.67.1.91-.27,0-.26-.14-.22-.23-.28-1-.7-1.58-.41-1.88.91-.06.27-.54.37-.74.64-.57.77-.5,2.1-1.54,2.48a.87.87,0,0,0-.11.68c.19.38.51.08.78,0Z"/><path class="cls-5" d="M69.46,91c-.83.52-1.22-1.11-2.24-.26-.56.45-1.06.8-.78,1.44s-.8,1.31-.1,1.64a2.65,2.65,0,0,0,2.07,0c.77-.29.79-.24.31-1.18S69.27,91.76,69.46,91Z"/><path class="cls-5" d="M91.59,58.84c-.24,1.23-1.62,2-.8,3.53.07.17.17-.06.27,0,2,.45,2.35-1.37,3-2.87.07-.15.32-.24.16-.44a.45.45,0,0,0-.47-.12C92.48,59.38,92.49,59.39,91.59,58.84Z"/><path class="cls-5" d="M56.64,93.87a8.18,8.18,0,0,0,2,.43c.35,0,1.24.19.81-1-.24-.66.22-.67.65-.55s.77.1.64-.53-.44,0-.64,0c-.54-.21-1.4.45-1.58-.82,0-.21-.35-.52-.6-.18s-.7.09-.54.64C57.6,92.66,57,93.09,56.64,93.87Z"/><path class="cls-5" d="M95.59,68.17a1.51,1.51,0,0,0-1.21.28c-.8.68-.24,1.87-.86,2.54,0,0,.13.3.21.31.3,0,.51-.26.5-.52,0-.67,0-.86.58-.35a.52.52,0,0,0,.78,0Z"/><path class="cls-5" d="M90.12,73.87c0-.06.11,0,.24,0,.52.07.21,1.26.84,1a5.07,5.07,0,0,0,1.89-1.41.91.91,0,0,0,0-1.31c-.4-.44-.58-1.35-1.31-1.15-.28.07-.85.41-.45.9s.63,1,.3,1.55S90.65,73.19,90.12,73.87Z"/><path class="cls-5" d="M76.35,95.26h.84c.82-.35,1.26-1.42,2.2-1.49.23,0,.3-.3.23-.59s-.24-.38-.38-.31c-1.44.72-3.13.47-4.72,1.8C75.3,94.49,75.79,95,76.35,95.26Z"/><path class="cls-5" d="M84.38,54.21a1.8,1.8,0,0,1,.86,1.27c.11,1.09.25,1.25,1.2.56s1-.89.6-1.79-.89-1.26-1.68-.57A4.41,4.41,0,0,1,84.38,54.21Z"/><path class="cls-5" d="M86.5,60.24c0,.12-.65.52-.15,1s.75,0,1.13-.14.65-.1,1-.19a.61.61,0,0,0,.26-1A3,3,0,0,0,86,59a.55.55,0,0,0-.46.6C85.59,60.34,86.17,59.54,86.5,60.24Z"/><path class="cls-5" d="M74.15,79.87c0,1.83,1.24,2,2.17,2.48.29.13.77-.84,1.06.14.1-.07.27-.12.28-.22s0-.49,0-.55c-.75-.56-1-2.16-2.35-1.47C74.89,80.44,74.57,80,74.15,79.87Z"/><path class="cls-5" d="M87.26,68c.33,1.45,1.5,2.19,2.58,1.54A5,5,0,0,0,92,67.48c.14-.3.23-.52,0-.76a.34.34,0,0,0-.56,0c-.28.5-.8.53-1.11.85C89.11,68.89,88.72,69,87.26,68Z"/><path class="cls-5" d="M91.34,53.93c.35-1,.53-2.18,1.47-2.13-.23.16-.88-1.81-1.34.1,0,.14-.78,0-1.19.08a.44.44,0,0,0-.39.48c0,.25.21.23.37.3s.87-.66.77.31-.54,0-.82.1a3.47,3.47,0,0,0-.88.31c1.39.15.64,1.58,1.11,2.33,0-.93.59-1.34.93-1.93Z"/><path class="cls-5" d="M85.19,50.36c.16.31.37,1.06.94.8a1.69,1.69,0,0,0,1.28-1.75c-.07-.72-.63-1.36-1.1-1.12A1.8,1.8,0,0,0,85.19,50.36Z"/><path class="cls-5" d="M71.91,88c.84,0,1.37-.64,1.06-1.2a1.76,1.76,0,0,0-1.8-1.13c-.94.19-.81,1.06-.68,1.69C70.7,88.39,71.49,88,71.91,88Z"/><path class="cls-5" d="M70.49,54.51c.27.52.64,1.11,1.18,1.13s.72-.82,1.08-1.24,0-.87-.38-1.12c-.23-.15-.42-.33-.19-.68,0-.06,0-.29-.11-.34A9,9,0,0,0,70.49,54.51Z"/><path class="cls-5" d="M89.52,23.72c2,.31,2.48-.67,2.51-1.91,0-.7-.23-.86-.77-.67A2.88,2.88,0,0,0,89.52,23.72Z"/><path class="cls-5" d="M81.44,59l-.42.74c-.07.37,0,.87-.24,1.09-.5.55-.67,1,0,1.53s1.15,0,1.53-.62a1.33,1.33,0,0,0,.16-1.12C81.85,60.31,81.79,59.54,81.44,59Z"/><path class="cls-5" d="M91.42,38.11c.1.85.44,1.5.83,1.27a1.83,1.83,0,0,0,1.1-1.78A1.15,1.15,0,0,0,92,36.67C91.33,36.78,91.5,37.72,91.42,38.11Z"/><path class="cls-5" d="M68.28,80.52c-.73-.6-1.51-.1-2.14-.62-.21-.17-.45.19-.54.47a1.12,1.12,0,0,0,0,1,1.21,1.21,0,0,0,2-.17C67.76,80.85,68.12,80.9,68.28,80.52Z"/><path class="cls-5" d="M81.58,70.92a7.17,7.17,0,0,0-2.18,3C81.55,73.6,81.62,73.51,81.58,70.92Z"/><path class="cls-5" d="M60.84,85c-.59.31-1.7-.36-1.65,1.22,0,.1-.15.24-.26.3-.27.16-1-.1-.7.61s.64.16,1,0C60.08,86.65,61.07,86.58,60.84,85Z"/><path class="cls-5" d="M74.86,47.13c.59-.09,1.12-.31,1-1.06s-.72-.73-1.2-.77a1,1,0,0,0-1,1.11C73.76,47.25,74.49,46.92,74.86,47.13Z"/><path class="cls-5" d="M88.3,59c.42-.23.43-.54.55-.69.33-.42.85-.81.46-1.43a1.85,1.85,0,0,0-1.7-.68c-.48,0-.71.4-.22.87A2.91,2.91,0,0,1,88.3,59Z"/><path class="cls-5" d="M73.84,72.32c-.3,0-.73,1-1-.13-.07-.29-.1-.63-.42-.64s-.3.29-.35.53a.81.81,0,0,0,.37,1,8.15,8.15,0,0,0,1.57.49.57.57,0,0,0,.77-.32c.1-.22.2-.46,0-.68A.83.83,0,0,0,73.84,72.32Z"/><path class="cls-5" d="M92.85,6.63c.2.46.68.5,1.17.39.76-.16.78-1.1.78-1.63s-.72-.55-1.12-.45C93.07,5.1,92.71,5.61,92.85,6.63Z"/><path class="cls-5" d="M79,68.46c.28-.16.83-.21.21-.91-.15-.17,0-.33.16-.45.52-.39.38-.83,0-1.22-.51-.55-.61.24-.86.44s-.26.51-.43.72A1.08,1.08,0,0,0,78,68.27C78.22,68.74,78.61,68.42,79,68.46Z"/><path class="cls-5" d="M94.94,84.75c-.1.1-.23.17-.29.29-.3.7-.59.85-1.06.14s-.71-.09-.86.29c-.25.63.17.45.45.42s.24.21.36.33.49,1.09.76.67,1-.81,1.1-1.59A.47.47,0,0,0,94.94,84.75Z"/><path class="cls-5" d="M94.31,88.82c-.61-.67-1.19-1.35-2-.49a.79.79,0,0,0,0,1.21C93.32,90.53,93.59,88.86,94.31,88.82Z"/><path class="cls-5" d="M81.44,59c.35.53.41,1.3,1,1.62.24-.43,1.16-.6.79-1.07s-.75-1.62-1.69-1.44Z"/><path class="cls-5" d="M88.7,87.19a6.34,6.34,0,0,0,1.42.25c.61,0,.56-.66.42-1.13s-.36-1.11-1-.83S89,86.49,88.7,87.19Z"/><path class="cls-5" d="M67.29,65.46a.77.77,0,0,0,1,.47c.54-.16.69-.7.57-1.27s-.47-.42-.81-.3S67.19,64.69,67.29,65.46Z"/><path class="cls-5" d="M82,77.21c0,.21.25.34.42.16.52-.54,1.35-.76,1.47-1.72a.45.45,0,0,0-.61-.49C82.46,75.4,82.17,76.19,82,77.21Z"/><path class="cls-5" d="M91.1,58.65c-.5-.47-1-1.14-1.64-.35.47.55-.47,1.46.11,1.69C90.35,60.29,90.78,59.42,91.1,58.65Z"/><path class="cls-5" d="M79.43,44.06c.3.86,1,.28,1.55.6.24.16.62-.07.69-.45.11-.63-.71-.72-.63-1.38-.08,0-.17,0-.23,0-.26.19-.17.38,0,.59s.08.33-.08.46-.25-.07-.31-.23c-.16-.5-.45-.53-.8-.29A.62.62,0,0,0,79.43,44.06Z"/><path class="cls-5" d="M72.45,91.65c-.69.41-1.14.77-.86,1.76.11.39-.19,1.2.23,1.26.62.09.57-.68.7-1.26A3.4,3.4,0,0,0,72.45,91.65Z"/><path class="cls-5" d="M78.28,81.45c-.11.66.22,1.55-.66,1.89-.31.12-.18.65.15.81.73.36,1-.62,1.46-.9s.14-.75-.25-.86S78.9,81.45,78.28,81.45Z"/><path class="cls-5" d="M84.34,77c.44.52.89.81,1.3.65.71-.26,0-1.33.58-1.75a.6.6,0,0,0-.88-.26C84.84,75.92,85,76.81,84.34,77Z"/><path class="cls-5" d="M88.59,49c-.23.12-.51,0-.57.31s.11.56.33.51c.7-.14-.17,1.15.61.9.42-.13.93-.23.84-.87C89.7,49,89.11,48.93,88.59,49Z"/><path class="cls-5" d="M68,84.54c-.35.1-.83.16-.71.75s.33.94.89.77.84-.35.79-1S68.39,84.48,68,84.54Z"/><path class="cls-5" d="M77.8,36.54c.18.36.29.81.71.72s.74-.68.7-1.23a.57.57,0,0,0-.73-.57C78,35.58,77.93,36.09,77.8,36.54Z"/><path class="cls-5" d="M63.4,68.62c0,.45.1.65.5.55,1-.23,0-1.35.56-1.82.1-.07-.25-.5-.52-.37C63.32,67.29,63.3,67.94,63.4,68.62Z"/><path class="cls-5" d="M90.3,18.36c-.89-.52-1.17.92-1.92.84a1.38,1.38,0,0,0,.24,1c.3.28.81.22.78-.19C89.33,19.13,90,19,90.3,18.36Z"/><path class="cls-5" d="M72,69.49a1.12,1.12,0,0,0,.72-1c0-.43-.22-.57-.58-.44a1.23,1.23,0,0,0-.9,1C71.25,69.33,71.67,69.51,72,69.49Z"/><path class="cls-5" d="M87.75,53.15c0,.62.17,1,.45.89.69-.3.18-1.29.61-1.78-.17-.19-.23-.61-.54-.48A1.06,1.06,0,0,0,87.75,53.15Z"/><path class="cls-5" d="M75.44,56.29a.55.55,0,0,0,.69.4c.48-.08.69-.47.71-1,0-.39-.15-.52-.46-.44A1.4,1.4,0,0,0,75.44,56.29Z"/><path class="cls-5" d="M80.29,17.75c0,.59.31.46.39.37.43-.46,1.3-.17,1.4-1.16,0-.35-.15-.68-.41-.52A3.36,3.36,0,0,0,80.29,17.75Z"/><path class="cls-5" d="M75.06,70.28a.35.35,0,0,0,.27-.54c-.23-.42-.3-1.1-.94-.95-.31.07-.62.31-.52.68C74,70.14,74.64,70.1,75.06,70.28Z"/><path class="cls-5" d="M89.51,64.83c.08.33-.08.85.33.67s1-.44.87-1.21c0-.4-.27-.58-.62-.52C89.5,63.88,89.35,64.29,89.51,64.83Z"/><path class="cls-5" d="M79.37,76.79c-.2-.62.16-1.61-.75-1.57-.28,0-.7.18-.7.5C77.93,76.84,79,76.12,79.37,76.79Z"/><path class="cls-5" d="M81.89,42.84c.12-.71,1-.36.77-1.08-.16-.45-.54-.95-1.1-.88-.26,0-.55.15-.42.53A13.51,13.51,0,0,0,81.89,42.84Z"/><path class="cls-5" d="M82,52.72c-.73-.28-1.33-.66-1.71.12-.28.56-.56,1.51.55.71Z"/><path class="cls-5" d="M83.23,3.59c.2.49.56.39.94.34s.54-.4.46-.82-.36-.78-.69-.59S83.15,2.92,83.23,3.59Z"/><path class="cls-5" d="M79.75,27.07c.12.41.35.59.66.52a.75.75,0,0,0,.57-.83c0-.51-.43-.58-.75-.55S79.8,26.71,79.75,27.07Z"/><path class="cls-5" d="M61.9,87.75c-.32.11-.67.18-.52.65s.13.95.71.75c.34-.12.66-.28.61-.77S62.23,87.79,61.9,87.75Z"/><path class="cls-5" d="M76.67,69.17a.69.69,0,0,0,.75-.83c0-.57-.35-.45-.63-.32s-.88.2-.76.94S76.53,69,76.67,69.17Z"/><path class="cls-5" d="M78.1,18.27c-.23.67-.32,1.11-.67,1.37s-.59.47-.42.93c.1.26.37.08.56.07a.72.72,0,0,0,.75-.78A11.19,11.19,0,0,0,78.1,18.27Z"/><path class="cls-5" d="M65.74,86.62c.16.91.54.72.85.69a.57.57,0,0,0,.53-.78.65.65,0,0,0-.88-.54A.74.74,0,0,0,65.74,86.62Z"/><path class="cls-5" d="M67.71,79c.19.19.3.38.43.42.29.08.36-.17.31-.43-.1-.48-.08-.88.32-1.14.21-.14.33-.36.11-.57s-.56-.25-.66,0C68,77.86,68.13,78.52,67.71,79Z"/><path class="cls-5" d="M79.75,21.45c-.27.26-.75.43-.72,1a.39.39,0,0,0,.58.34c.36-.22.8-.45.68-1.09A.35.35,0,0,0,79.75,21.45Z"/><path class="cls-5" d="M75.93,88.48c.51.5,1-.82,1.54,0,.07.11.27-.32.31-.53s-.19-.22-.32-.18C76.92,87.93,76,86.92,75.93,88.48Z"/><path class="cls-5" d="M66,54.36c.14-.68-.13-1.4.34-2a1,1,0,0,0-.3-.67c-.23-.18-.39.1-.4.35A4.58,4.58,0,0,0,66,54.36Z"/><path class="cls-5" d="M75.93,17.94a2.72,2.72,0,0,0-.83,1.47.23.23,0,0,0,.38.17c.36-.36,1-.46.89-1.28C76.34,18,76.26,17.81,75.93,17.94Z"/><path class="cls-5" d="M83.89,39.23c0,.41.14.8.6.73.3-.06.61-.24.52-.64a1,1,0,0,0-.77-.85C83.85,38.43,83.87,38.88,83.89,39.23Z"/><path class="cls-5" d="M86.56,74.81c.27.11.41,0,.34-.34s-.26-.89-.72-.81-.47.63-.4.93S86.29,74.72,86.56,74.81Z"/><path class="cls-5" d="M15.33,8a1.28,1.28,0,0,1-.07-1.95l-1,.74c-.23-.35.31-1.42-.8-.83-.26-.81-1.53-1-1.28-2.13,0-.12,0-.24,0-.35H10.08a1.81,1.81,0,0,0-.23.7c0,.27.17.38.34.49.45.31,1,.53.26,1.17-.21.18.24.58.33.48.63-.65,1.36.3,2-.17.12-.1.68,1,.58,1.35s-.25.51-.08.72c.61.71-.07.92-.41.74-.68-.36-.82.25-1.09.48a1,1,0,0,0,.11.94c.41.35.85.07,1.22-.25.05-.06.15-.07.29-.13.27.4.12.73.09,1.06s0,.59,0,.87c-.42,0-.8-.31-1.23-.11.57,1.22.65,1.32,1.5.54.65-.59,2-.78,1.54-2.24,0-.08.17-.29.3-.35.71-.29.73-.34.24-1.08A4.24,4.24,0,0,0,15.33,8Z"/><path class="cls-5" d="M8.54,72.17c-.22-.32-.45-.66-.19-1,.67-.94-.06-1.29-.68-1.3s-.75-.34-1-.68c-.29.33-1,0-1.06.62s-.49.58-.68.89c-.51-.16-.18-.52-.26-.76s-.15-.62-.48-.68-.43.26-.48.56a.66.66,0,0,1-.27.43v.88a.75.75,0,0,1,.27.45c.12.46,0,.62-.27.73v3a2.72,2.72,0,0,1,1.05-.27c.38-.07,1.11.47,1-.53-.07-.67.88-.63.84-1.28,0-.27-.1-.59-.36-.57-.47,0-.68-.08-.47-.53s.54-1.06,1.06-1.22c.25-.08.79.4.68.77-.31,1,.47,1.19,1,1.57A.66.66,0,0,0,8.54,72.17Z"/><path class="cls-5" d="M6.4,13.43c0-.48-.65-.92-1.11-1.28-.7.27-.83.29-1.85-.43v1.63a.31.31,0,0,1,.09.16c.28,1.06,1.44,1.05,2.11,1.68.49.47,1-.69,1.86-1.12C6.88,14,6.31,14.29,6.4,13.43Z"/><path class="cls-5" d="M17.44,6.89c-.74-.28-.66-.8-.37-1.59-.56.49-.81.75-1.1,1-.72.49-.46.77.17,1,.13.05.27-.22.4.05.4.84.65.83,1.4-.05.21-.24.33-.66.75-.52s.23.52.28.79c.09.53.07.53-1,.21.09.48.63.87.23,1.38a.29.29,0,0,0,.17.49c.35.11.37,0,.41-.37.1-.81.57-1,1.35-.83.51.12,1,.06.68-.8s-.16-1.88-1.43-1.93c-.06,0-.2-.37-.14-.43.63-.69.3-1-.41-1.23s-.51.88-1.11.83C18.06,5.6,17,6.11,17.44,6.89Z"/><path class="cls-5" d="M4.76,26.29c.24.3.72,0,1,.45.11.18.69.33.76.25.65-.83,2-.64,2.45-1.73.24-.54,0-1-.17-1.43-.53.55-.89-.59-1.59-.06C5.57,25,5.51,24.9,4.76,26.29Z"/><path class="cls-5" d="M5.28,12.15c.08,0,.19-.11.23-.09,1.44.9,1.83-.6,2.61-1.18.13-.1.18-.33.31-.39,1.52-.67.64-1.76.45-2.71-.06-.29-.32-.2-.51-.13S7.81,7.59,8,8c.07.22.22.61-.22.42S7.19,8,7,8.53c-.15.33,0,.51.26.72.51.43,0,.34-.22.51s-.3.57-.41.88,0,.93-.65.24c-.28-.28-.57.72-.63,1.27Z"/><path class="cls-5" d="M8,16.82c-.35.84,0,1.95-1.3,1.21-.2-.12-.48,0-.6.32s.14.45.23.67a.46.46,0,0,0,.71.27c.54-.31,1.08-.63,1.6-1,.24-.17.5-.53.11-.69-.9-.38-.28-1.34-.77-1.87-.14-.15.1-.41.43-.42s.63-.17.36-.58c-.17-.26-.22-.69-.67-.65-.2,0-.54.1-.39.33.56.85,0,.72-.57.91A1.11,1.11,0,0,0,6.51,17C6.89,18,7.37,17.27,8,16.82Z"/><path class="cls-5" d="M6.94,55.37c-.2-.76-1-1-1.72-1.23s-.67-1-1-1.52c-.19.35-.34.67-.18,1,.31.58.3.95-.46,1a.35.35,0,0,0-.14,0v.82l.23,0c.45.05.9.19,1.35.23.64.07,1,.13.16.61-.19.11-.14.35.07.52s.62.36.71,0C6.13,56.2,7.12,56,6.94,55.37Z"/><path class="cls-5" d="M6.29,41.56a.66.66,0,0,0-1,.33c-.07.66-.68.81-.86,1.27s-.32.61-.83.3l-.13-.05v1a.24.24,0,0,1,.06.16c.23,1.46,1.39,1.16,2.36,1.54L5.4,45.08l-1,.41a4.31,4.31,0,0,1,1.68-3.11C6.25,42.23,6.69,41.86,6.29,41.56Z"/><path class="cls-5" d="M11.41,12.65c-1-.19-1.91-.28-1.45-1.59.15-.43-.29-.53-.57-.7s-.38-.06-.51.15-.29.68,0,.94c.78.67.69,1.14-.2,1.59-.21.11-.61.72-.06.67C9.53,13.64,10.61,13.73,11.41,12.65Z"/><path class="cls-5" d="M7.32,27.34c-.24.33-.75.47-.43,1.1.52,1,0,1.47-1,1.61-.27,0-.66,0-.83.36s.17.59.34.74c.34.33.56-.06.75-.3.33-.41.66-.16,1,0,.77.25,1.07-.31.76-.77A5.11,5.11,0,0,1,7.32,27.34Z"/><path class="cls-5" d="M5.58,44.34a2.08,2.08,0,0,1,1.13,1.09c.2.36.6.69,1,.41s.15-.61-.09-.93c-.44-.59-.23-1.24,0-2.17Z"/><path class="cls-5" d="M4.89,6.13A1.17,1.17,0,0,0,3.64,7.37a2.72,2.72,0,0,0,.77,2.08c.14.13.43,0,.42,0-.51-.68.69-1.5-.16-2.14S5.08,6.62,4.89,6.13Z"/><path class="cls-5" d="M13.11,14.05l.11,1.06c.6-.37,1.12,0,1.65.21,0,0,.09,0,.09-.07.11-.61-.56-1-.44-1.65a.82.82,0,0,0-.76-.53c-.6.08-.55.62-.67,1Z"/><path class="cls-5" d="M11.71,7.43c-.39-.27-.52-1-1.13-.52s-.56,1,0,1.29c.34.21.43,1.13,1,.62A1,1,0,0,0,11.71,7.43Z"/><path class="cls-5" d="M9.09,46.7c.95.23,1.56.22,2-.39a.29.29,0,0,0-.16-.49C10.18,45.63,9.79,46.2,9.09,46.7Z"/><path class="cls-5" d="M12.47,20.32c.27.23.58.38.86.06s.49-.51.24-.86a.66.66,0,0,0-1-.2A.83.83,0,0,0,12.47,20.32Z"/><path class="cls-5" d="M10.87,23.81c-.25,0-.57-.07-.73.05A.89.89,0,0,0,9.93,25c.06.12.13.39.33.2s.84-.4.34-1c-.16-.19,0-.39.26-.42Z"/><path class="cls-5" d="M18.49,59c0-1.05-.29-1.69-1.54-1.25-.58.2-1.25-.44-1.88.14-.42.39-.5.55.07.9.78.49,1.76.27,2.51.89.21.18.62-.38.85-.72Z"/></g><polygon class="cls-6" points="53.38 51.76 74.96 34.6 78.03 37.41 53.55 64.3 53.93 70.67 24.3 66.43 29.21 36.1 53.52 35.17 53.38 51.76"/><polygon class="cls-6" points="76.13 31.74 80.7 36.7 87.09 35.81 79.44 25.72 76.13 31.74"/><polygon class="cls-6" points="24.61 32.55 57.9 32.24 53.77 26.1 28.55 22.13 24.61 32.55"/><path class="cls-6" d="M21.51,69.3c.43.14,35.18,4.63,35.18,4.63l.08,4.52L19.14,75.62Z"/></g></svg>