<svg id="Layer_1" data-name="Layer 1" xmlns="http://www.w3.org/2000/svg" xmlns:xlink="http://www.w3.org/1999/xlink" viewBox="0 0 100 100"><defs><style>.cls-1{fill:none;}.cls-2{fill:#fefbec;}.cls-3{fill:#efe9d8;}.cls-4{clip-path:url(#clip-path);}.cls-5{fill:#e5e0d3;}.cls-6{fill:#d3ccbe;}.cls-7{clip-path:url(#clip-path-2);}</style><clipPath id="clip-path"><path class="cls-1" d="M40.07,93.87A55.4,55.4,0,0,1,50,93.26c7.76.35,15.47.71,23.25.81l21.2.27a.42.42,0,0,0,.44-.44c-.36-3.42.32-10.22-2-13.49A2.3,2.3,0,0,1,93,77.63c4.25-5.1,2-16.6,2.08-22,.14-14.35-1.44-28.69-.9-43l.29-7.93A.42.42,0,0,0,94,4.28c-11.69.29-23.38.63-35.07.93-7.6.2-24.12-2.44-30.46,1.9C20.78,3.67,13,5.34,4.69,5a.39.39,0,0,0-.42.37c.3,7.41.75,14.82.88,22.24.41,22.8,0,42,.4,67.7a.38.38,0,0,0,.42.38c7.31-.42,14.64.19,21.94-.3C32,95.15,36,94.41,40.07,93.87Z"/></clipPath><clipPath id="clip-path-2"><path class="cls-1" d="M6.77,40.11A55.34,55.34,0,0,1,7.37,50c-.34,7.76-.7,15.47-.79,23.25L6.31,94.42a.41.41,0,0,0,.44.44c3.36-.35,10,.32,13.26-2a2.2,2.2,0,0,1,2.75.11c5,4.25,16.31,2,21.61,2.07,14.11.14,28.21-1.43,42.32-.9l7.79.3a.42.42,0,0,0,.41-.45C94.6,82.35,94.26,70.67,94,59c-.19-7.6,2.4-24.11-1.87-30.44C95.48,20.83,93.84,13,94.15,4.75a.39.39,0,0,0-.36-.42c-7.29.29-14.58.75-21.88.88-22.43.41-41.31,0-66.59.39A.39.39,0,0,0,5,6c.42,7.3-.19,14.63.3,21.93C5.52,32,6.24,36.06,6.77,40.11Z"/></clipPath></defs><g id="_3" data-name="3"><path class="cls-2" d="M39.15,98A60,60,0,0,1,50,97.31c8.48.38,16.92.78,25.43.88l23.18.3a.45.45,0,0,0,.48-.49c-.39-3.75.57-13.2-2-16.75a2.53,2.53,0,0,1,.18-3.06c4.6-5.58,2-16.14,2-22,.16-15.7-1.57-31.37-1-47.06L98.64.45A.46.46,0,0,0,98.15,0C85.36.32,72.58.7,59.79,1c-8.31.22-26.37-2.67-33.31,2.08C18.05-.66,9.5,1.17.45.82A.42.42,0,0,0,0,1.23c.32,8.1.82,16.2,1,24.31.45,25,0,45.94.43,74.05a.43.43,0,0,0,.46.41c8-.46,16,.21,24-.33C30.3,99.37,34.72,98.57,39.15,98Z"/><path class="cls-3" d="M40.07,93.87A55.4,55.4,0,0,1,50,93.26c7.76.35,15.47.71,23.25.81l21.2.27a.42.42,0,0,0,.44-.44c-.36-3.42.32-10.22-2-13.49A2.3,2.3,0,0,1,93,77.63c4.25-5.1,2-16.6,2.08-22,.14-14.35-1.44-28.69-.9-43l.29-7.93A.42.42,0,0,0,94,4.28c-11.69.29-23.38.63-35.07.93-7.6.2-24.12-2.44-30.46,1.9C20.78,3.67,13,5.34,4.69,5a.39.39,0,0,0-.42.37c.3,7.41.75,14.82.88,22.24.41,22.8,0,42,.4,67.7a.38.38,0,0,0,.42.38c7.31-.42,14.64.19,21.94-.3C32,95.15,36,94.41,40.07,93.87Z"/><g class="cls-4"><path class="cls-5" d="M95.59,52.26c-1.39.65-3.11,0-4.22,1.63.25.34.43,1.1.9.51.64-.79,1.16-.54,1.79,0-.59.57-.43,1.53-.89,2.32.81,0,1.38.58,2.08.72a1.71,1.71,0,0,0,.34.06Z"/><path class="cls-5" d="M81.54,58.12c-.31-.52-.79,0-1.15-.25a5.49,5.49,0,0,1-1-.59c-.26-.24.53-1.36-.42-1s-1.93.63-1.77,2.23c.22,2.06,1.57,2.66,3.34,1.48a2.64,2.64,0,0,1,.44-.23l.42-.74Z"/><path class="cls-5" d="M83.36,48.22c-.43.23-.7.45-.76.39-1.28-1.42-2.81.23-4-.36-1.32-.69-2,.41-3.08.61,1.24.52,2.55.64,3.77,1.2a.65.65,0,0,0,.79-.27c.54-.63.91-1,1.29.29.16.54,1.06.4,1.36-.34C82.91,49.37,83,49,83.36,48.22Z"/><path class="cls-5" d="M87.93,83c-.19.41-.14.72.27.87.59-.63,1.58-.21,2.08-1.09.21-.37.79-.51.52-1.19s-.71-.2-1.08-.17l-.72.11c-.34-.82.59-.57.58-1.16-.82-.78-1.92.56-2.7-.46l0-.06c-.07.48.75,1.71-.65,1.08-.19-.09-.17.13-.15.25s.09.33.15.33c.6,0,.91,1,1.64.68.19-.1.57-.1.57.31S88.16,82.91,87.93,83Z"/><path class="cls-5" d="M86.88,79.92c.07-1.24,1-1.38,1.68-1.66,1.68-.65,1.69-.61,1.17-2.61.26-.29.67.1.91-.27,0-.26-.14-.22-.23-.28-1-.7-1.58-.41-1.88.91-.06.27-.54.37-.74.64-.57.77-.5,2.1-1.54,2.48a.87.87,0,0,0-.11.68c.19.38.51.08.78,0Z"/><path class="cls-5" d="M69.46,91c-.83.52-1.22-1.11-2.24-.26-.56.45-1.06.8-.78,1.44s-.8,1.31-.1,1.64a2.65,2.65,0,0,0,2.07,0c.77-.29.79-.24.31-1.18S69.27,91.76,69.46,91Z"/><path class="cls-5" d="M91.59,58.84c-.24,1.23-1.62,2-.8,3.53.07.17.17-.06.27,0,2,.45,2.35-1.37,3-2.87.07-.15.32-.24.16-.44a.45.45,0,0,0-.47-.12C92.48,59.38,92.49,59.39,91.59,58.84Z"/><path class="cls-5" d="M56.64,93.87a8.18,8.18,0,0,0,2,.43c.35,0,1.24.19.81-1-.24-.66.22-.67.65-.55s.77.1.64-.53-.44,0-.64,0c-.54-.21-1.4.45-1.58-.82,0-.21-.35-.52-.6-.18s-.7.09-.54.64C57.6,92.66,57,93.09,56.64,93.87Z"/><path class="cls-5" d="M95.59,68.17a1.51,1.51,0,0,0-1.21.28c-.8.68-.24,1.87-.86,2.54,0,0,.13.3.21.31.3,0,.51-.26.5-.52,0-.67,0-.86.58-.35a.52.52,0,0,0,.78,0Z"/><path class="cls-5" d="M90.12,73.87c0-.06.11,0,.24,0,.52.07.21,1.26.84,1a5.07,5.07,0,0,0,1.89-1.41.91.91,0,0,0,0-1.31c-.4-.44-.58-1.35-1.31-1.15-.28.07-.85.41-.45.9s.63,1,.3,1.55S90.65,73.19,90.12,73.87Z"/><path class="cls-5" d="M76.35,95.26h.84c.82-.35,1.26-1.42,2.2-1.49.23,0,.3-.3.23-.59s-.24-.38-.38-.31c-1.44.72-3.13.47-4.72,1.8C75.3,94.49,75.79,95,76.35,95.26Z"/><path class="cls-5" d="M84.38,54.21a1.8,1.8,0,0,1,.86,1.27c.11,1.09.25,1.25,1.2.56s1-.89.6-1.79-.89-1.26-1.68-.57A4.41,4.41,0,0,1,84.38,54.21Z"/><path class="cls-5" d="M86.5,60.24c0,.12-.65.52-.15,1s.75,0,1.13-.14.65-.1,1-.19a.61.61,0,0,0,.26-1A3,3,0,0,0,86,59a.55.55,0,0,0-.46.6C85.59,60.34,86.17,59.54,86.5,60.24Z"/><path class="cls-5" d="M74.15,79.87c0,1.83,1.24,2,2.17,2.48.29.13.77-.84,1.06.14.1-.07.27-.12.28-.22s0-.49,0-.55c-.75-.56-1-2.16-2.35-1.47C74.89,80.44,74.57,80,74.15,79.87Z"/><path class="cls-5" d="M87.26,68c.33,1.45,1.5,2.19,2.58,1.54A5,5,0,0,0,92,67.48c.14-.3.23-.52,0-.76a.34.34,0,0,0-.56,0c-.28.5-.8.53-1.11.85C89.11,68.89,88.72,69,87.26,68Z"/><path class="cls-5" d="M91.34,53.93c.35-1,.53-2.18,1.47-2.13-.23.16-.88-1.81-1.34.1,0,.14-.78,0-1.19.08a.44.44,0,0,0-.39.48c0,.25.21.23.37.3s.87-.66.77.31-.54,0-.82.1a3.47,3.47,0,0,0-.88.31c1.39.15.64,1.58,1.11,2.33,0-.93.59-1.34.93-1.93Z"/><path class="cls-5" d="M85.19,50.36c.16.31.37,1.06.94.8a1.69,1.69,0,0,0,1.28-1.75c-.07-.72-.63-1.36-1.1-1.12A1.8,1.8,0,0,0,85.19,50.36Z"/><path class="cls-5" d="M71.91,88c.84,0,1.37-.64,1.06-1.2a1.76,1.76,0,0,0-1.8-1.13c-.94.19-.81,1.06-.68,1.69C70.7,88.39,71.49,88,71.91,88Z"/><path class="cls-5" d="M70.49,54.51c.27.52.64,1.11,1.18,1.13s.72-.82,1.08-1.24,0-.87-.38-1.12c-.23-.15-.42-.33-.19-.68,0-.06,0-.29-.11-.34A9,9,0,0,0,70.49,54.51Z"/><path class="cls-5" d="M89.52,23.72c2,.31,2.48-.67,2.51-1.91,0-.7-.23-.86-.77-.67A2.88,2.88,0,0,0,89.52,23.72Z"/><path class="cls-5" d="M81.44,59l-.42.74c-.07.37,0,.87-.24,1.09-.5.55-.67,1,0,1.53s1.15,0,1.53-.62a1.33,1.33,0,0,0,.16-1.12C81.85,60.31,81.79,59.54,81.44,59Z"/><path class="cls-5" d="M91.42,38.11c.1.85.44,1.5.83,1.27a1.83,1.83,0,0,0,1.1-1.78A1.15,1.15,0,0,0,92,36.67C91.33,36.78,91.5,37.72,91.42,38.11Z"/><path class="cls-5" d="M68.28,80.52c-.73-.6-1.51-.1-2.14-.62-.21-.17-.45.19-.54.47a1.12,1.12,0,0,0,0,1,1.21,1.21,0,0,0,2-.17C67.76,80.85,68.12,80.9,68.28,80.52Z"/><path class="cls-5" d="M81.58,70.92a7.17,7.17,0,0,0-2.18,3C81.55,73.6,81.62,73.51,81.58,70.92Z"/><path class="cls-5" d="M60.84,85c-.59.31-1.7-.36-1.65,1.22,0,.1-.15.24-.26.3-.27.16-1-.1-.7.61s.64.16,1,0C60.08,86.65,61.07,86.58,60.84,85Z"/><path class="cls-5" d="M74.86,47.13c.59-.09,1.12-.31,1-1.06s-.72-.73-1.2-.77a1,1,0,0,0-1,1.11C73.76,47.25,74.49,46.92,74.86,47.13Z"/><path class="cls-5" d="M88.3,59c.42-.23.43-.54.55-.69.33-.42.85-.81.46-1.43a1.85,1.85,0,0,0-1.7-.68c-.48,0-.71.4-.22.87A2.91,2.91,0,0,1,88.3,59Z"/><path class="cls-5" d="M73.84,72.32c-.3,0-.73,1-1-.13-.07-.29-.1-.63-.42-.64s-.3.29-.35.53a.81.81,0,0,0,.37,1,8.15,8.15,0,0,0,1.57.49.57.57,0,0,0,.77-.32c.1-.22.2-.46,0-.68A.83.83,0,0,0,73.84,72.32Z"/><path class="cls-5" d="M92.85,6.63c.2.46.68.5,1.17.39.76-.16.78-1.1.78-1.63s-.72-.55-1.12-.45C93.07,5.1,92.71,5.61,92.85,6.63Z"/><path class="cls-5" d="M79,68.46c.28-.16.83-.21.21-.91-.15-.17,0-.33.16-.45.52-.39.38-.83,0-1.22-.51-.55-.61.24-.86.44s-.26.51-.43.72A1.08,1.08,0,0,0,78,68.27C78.22,68.74,78.61,68.42,79,68.46Z"/><path class="cls-5" d="M94.94,84.75c-.1.1-.23.17-.29.29-.3.7-.59.85-1.06.14s-.71-.09-.86.29c-.25.63.17.45.45.42s.24.21.36.33.49,1.09.76.67,1-.81,1.1-1.59A.47.47,0,0,0,94.94,84.75Z"/><path class="cls-5" d="M94.31,88.82c-.61-.67-1.19-1.35-2-.49a.79.79,0,0,0,0,1.21C93.32,90.53,93.59,88.86,94.31,88.82Z"/><path class="cls-5" d="M81.44,59c.35.53.41,1.3,1,1.62.24-.43,1.16-.6.79-1.07s-.75-1.62-1.69-1.44Z"/><path class="cls-5" d="M88.7,87.19a6.34,6.34,0,0,0,1.42.25c.61,0,.56-.66.42-1.13s-.36-1.11-1-.83S89,86.49,88.7,87.19Z"/><path class="cls-5" d="M67.29,65.46a.77.77,0,0,0,1,.47c.54-.16.69-.7.57-1.27s-.47-.42-.81-.3S67.19,64.69,67.29,65.46Z"/><path class="cls-5" d="M82,77.21c0,.21.25.34.42.16.52-.54,1.35-.76,1.47-1.72a.45.45,0,0,0-.61-.49C82.46,75.4,82.17,76.19,82,77.21Z"/><path class="cls-5" d="M91.1,58.65c-.5-.47-1-1.14-1.64-.35.47.55-.47,1.46.11,1.69C90.35,60.29,90.78,59.42,91.1,58.65Z"/><path class="cls-5" d="M79.43,44.06c.3.86,1,.28,1.55.6.24.16.62-.07.69-.45.11-.63-.71-.72-.63-1.38-.08,0-.17,0-.23,0-.26.19-.17.38,0,.59s.08.33-.08.46-.25-.07-.31-.23c-.16-.5-.45-.53-.8-.29A.62.62,0,0,0,79.43,44.06Z"/><path class="cls-5" d="M72.45,91.65c-.69.41-1.14.77-.86,1.76.11.39-.19,1.2.23,1.26.62.09.57-.68.7-1.26A3.4,3.4,0,0,0,72.45,91.65Z"/><path class="cls-5" d="M78.28,81.45c-.11.66.22,1.55-.66,1.89-.31.12-.18.65.15.81.73.36,1-.62,1.46-.9s.14-.75-.25-.86S78.9,81.45,78.28,81.45Z"/><path class="cls-5" d="M84.34,77c.44.52.89.81,1.3.65.71-.26,0-1.33.58-1.75a.6.6,0,0,0-.88-.26C84.84,75.92,85,76.81,84.34,77Z"/><path class="cls-5" d="M88.59,49c-.23.12-.51,0-.57.31s.11.56.33.51c.7-.14-.17,1.15.61.9.42-.13.93-.23.84-.87C89.7,49,89.11,48.93,88.59,49Z"/><path class="cls-5" d="M68,84.54c-.35.1-.83.16-.71.75s.33.94.89.77.84-.35.79-1S68.39,84.48,68,84.54Z"/><path class="cls-5" d="M77.8,36.54c.18.36.29.81.71.72s.74-.68.7-1.23a.57.57,0,0,0-.73-.57C78,35.58,77.93,36.09,77.8,36.54Z"/><path class="cls-5" d="M63.4,68.62c0,.45.1.65.5.55,1-.23,0-1.35.56-1.82.1-.07-.25-.5-.52-.37C63.32,67.29,63.3,67.94,63.4,68.62Z"/><path class="cls-5" d="M90.3,18.36c-.89-.52-1.17.92-1.92.84a1.38,1.38,0,0,0,.24,1c.3.28.81.22.78-.19C89.33,19.13,90,19,90.3,18.36Z"/><path class="cls-5" d="M72,69.49a1.12,1.12,0,0,0,.72-1c0-.43-.22-.57-.58-.44a1.23,1.23,0,0,0-.9,1C71.25,69.33,71.67,69.51,72,69.49Z"/><path class="cls-5" d="M87.75,53.15c0,.62.17,1,.45.89.69-.3.18-1.29.61-1.78-.17-.19-.23-.61-.54-.48A1.06,1.06,0,0,0,87.75,53.15Z"/><path class="cls-5" d="M75.44,56.29a.55.55,0,0,0,.69.4c.48-.08.69-.47.71-1,0-.39-.15-.52-.46-.44A1.4,1.4,0,0,0,75.44,56.29Z"/><path class="cls-5" d="M80.29,17.75c0,.59.31.46.39.37.43-.46,1.3-.17,1.4-1.16,0-.35-.15-.68-.41-.52A3.36,3.36,0,0,0,80.29,17.75Z"/><path class="cls-5" d="M75.06,70.28a.35.35,0,0,0,.27-.54c-.23-.42-.3-1.1-.94-.95-.31.07-.62.31-.52.68C74,70.14,74.64,70.1,75.06,70.28Z"/><path class="cls-5" d="M89.51,64.83c.08.33-.08.85.33.67s1-.44.87-1.21c0-.4-.27-.58-.62-.52C89.5,63.88,89.35,64.29,89.51,64.83Z"/><path class="cls-5" d="M79.37,76.79c-.2-.62.16-1.61-.75-1.57-.28,0-.7.18-.7.5C77.93,76.84,79,76.12,79.37,76.79Z"/><path class="cls-5" d="M81.89,42.84c.12-.71,1-.36.77-1.08-.16-.45-.54-.95-1.1-.88-.26,0-.55.15-.42.53A13.51,13.51,0,0,0,81.89,42.84Z"/><path class="cls-5" d="M82,52.72c-.73-.28-1.33-.66-1.71.12-.28.56-.56,1.51.55.71Z"/><path class="cls-5" d="M83.23,3.59c.2.49.56.39.94.34s.54-.4.46-.82-.36-.78-.69-.59S83.15,2.92,83.23,3.59Z"/><path class="cls-5" d="M79.75,27.07c.12.41.35.59.66.52a.75.75,0,0,0,.57-.83c0-.51-.43-.58-.75-.55S79.8,26.71,79.75,27.07Z"/><path class="cls-5" d="M61.9,87.75c-.32.11-.67.18-.52.65s.13.95.71.75c.34-.12.66-.28.61-.77S62.23,87.79,61.9,87.75Z"/><path class="cls-5" d="M76.67,69.17a.69.69,0,0,0,.75-.83c0-.57-.35-.45-.63-.32s-.88.2-.76.94S76.53,69,76.67,69.17Z"/><path class="cls-5" d="M78.1,18.27c-.23.67-.32,1.11-.67,1.37s-.59.47-.42.93c.1.26.37.08.56.07a.72.72,0,0,0,.75-.78A11.19,11.19,0,0,0,78.1,18.27Z"/><path class="cls-5" d="M65.74,86.62c.16.91.54.72.85.69a.57.57,0,0,0,.53-.78.65.65,0,0,0-.88-.54A.74.74,0,0,0,65.74,86.62Z"/><path class="cls-5" d="M67.71,79c.19.19.3.38.43.42.29.08.36-.17.31-.43-.1-.48-.08-.88.32-1.14.21-.14.33-.36.11-.57s-.56-.25-.66,0C68,77.86,68.13,78.52,67.71,79Z"/><path class="cls-5" d="M79.75,21.45c-.27.26-.75.43-.72,1a.39.39,0,0,0,.58.34c.36-.22.8-.45.68-1.09A.35.35,0,0,0,79.75,21.45Z"/><path class="cls-5" d="M75.93,88.48c.51.5,1-.82,1.54,0,.07.11.27-.32.31-.53s-.19-.22-.32-.18C76.92,87.93,76,86.92,75.93,88.48Z"/><path class="cls-5" d="M66,54.36c.14-.68-.13-1.4.34-2a1,1,0,0,0-.3-.67c-.23-.18-.39.1-.4.35A4.58,4.58,0,0,0,66,54.36Z"/><path class="cls-5" d="M75.93,17.94a2.72,2.72,0,0,0-.83,1.47.23.23,0,0,0,.38.17c.36-.36,1-.46.89-1.28C76.34,18,76.26,17.81,75.93,17.94Z"/><path class="cls-5" d="M83.89,39.23c0,.41.14.8.6.73.3-.06.61-.24.52-.64a1,1,0,0,0-.77-.85C83.85,38.43,83.87,38.88,83.89,39.23Z"/><path class="cls-5" d="M86.56,74.81c.27.11.41,0,.34-.34s-.26-.89-.72-.81-.47.63-.4.93S86.29,74.72,86.56,74.81Z"/><path class="cls-5" d="M15.33,8a1.28,1.28,0,0,1-.07-1.95l-1,.74c-.23-.35.31-1.42-.8-.83-.26-.81-1.53-1-1.28-2.13,0-.12,0-.24,0-.35H10.08a1.81,1.81,0,0,0-.23.7c0,.27.17.38.34.49.45.31,1,.53.26,1.17-.21.18.24.58.33.48.63-.65,1.36.3,2-.17.12-.1.68,1,.58,1.35s-.25.51-.08.72c.61.71-.07.92-.41.74-.68-.36-.82.25-1.09.48a1,1,0,0,0,.11.94c.41.35.85.07,1.22-.25.05-.06.15-.07.29-.13.27.4.12.73.09,1.06s0,.59,0,.87c-.42,0-.8-.31-1.23-.11.57,1.22.65,1.32,1.5.54.65-.59,2-.78,1.54-2.24,0-.08.17-.29.3-.35.71-.29.73-.34.24-1.08A4.24,4.24,0,0,0,15.33,8Z"/><path class="cls-5" d="M8.54,72.17c-.22-.32-.45-.66-.19-1,.67-.94-.06-1.29-.68-1.3s-.75-.34-1-.68c-.29.33-1,0-1.06.62s-.49.58-.68.89c-.51-.16-.18-.52-.26-.76s-.15-.62-.48-.68-.43.26-.48.56a.66.66,0,0,1-.27.43v.88a.75.75,0,0,1,.27.45c.12.46,0,.62-.27.73v3a2.72,2.72,0,0,1,1.05-.27c.38-.07,1.11.47,1-.53-.07-.67.88-.63.84-1.28,0-.27-.1-.59-.36-.57-.47,0-.68-.08-.47-.53s.54-1.06,1.06-1.22c.25-.08.79.4.68.77-.31,1,.47,1.19,1,1.57A.66.66,0,0,0,8.54,72.17Z"/><path class="cls-5" d="M6.4,13.43c0-.48-.65-.92-1.11-1.28-.7.27-.83.29-1.85-.43v1.63a.31.31,0,0,1,.09.16c.28,1.06,1.44,1.05,2.11,1.68.49.47,1-.69,1.86-1.12C6.88,14,6.31,14.29,6.4,13.43Z"/><path class="cls-5" d="M17.44,6.89c-.74-.28-.66-.8-.37-1.59-.56.49-.81.75-1.1,1-.72.49-.46.77.17,1,.13.05.27-.22.4.05.4.84.65.83,1.4-.05.21-.24.33-.66.75-.52s.23.52.28.79c.09.53.07.53-1,.21.09.48.63.87.23,1.38a.29.29,0,0,0,.17.49c.35.11.37,0,.41-.37.1-.81.57-1,1.35-.83.51.12,1,.06.68-.8s-.16-1.88-1.43-1.93c-.06,0-.2-.37-.14-.43.63-.69.3-1-.41-1.23s-.51.88-1.11.83C18.06,5.6,17,6.11,17.44,6.89Z"/><path class="cls-5" d="M4.76,26.29c.24.3.72,0,1,.45.11.18.69.33.76.25.65-.83,2-.64,2.45-1.73.24-.54,0-1-.17-1.43-.53.55-.89-.59-1.59-.06C5.57,25,5.51,24.9,4.76,26.29Z"/><path class="cls-5" d="M5.28,12.15c.08,0,.19-.11.23-.09,1.44.9,1.83-.6,2.61-1.18.13-.1.18-.33.31-.39,1.52-.67.64-1.76.45-2.71-.06-.29-.32-.2-.51-.13S7.81,7.59,8,8c.07.22.22.61-.22.42S7.19,8,7,8.53c-.15.33,0,.51.26.72.51.43,0,.34-.22.51s-.3.57-.41.88,0,.93-.65.24c-.28-.28-.57.72-.63,1.27Z"/><path class="cls-5" d="M8,16.82c-.35.84,0,1.95-1.3,1.21-.2-.12-.48,0-.6.32s.14.45.23.67a.46.46,0,0,0,.71.27c.54-.31,1.08-.63,1.6-1,.24-.17.5-.53.11-.69-.9-.38-.28-1.34-.77-1.87-.14-.15.1-.41.43-.42s.63-.17.36-.58c-.17-.26-.22-.69-.67-.65-.2,0-.54.1-.39.33.56.85,0,.72-.57.91A1.11,1.11,0,0,0,6.51,17C6.89,18,7.37,17.27,8,16.82Z"/><path class="cls-5" d="M6.94,55.37c-.2-.76-1-1-1.72-1.23s-.67-1-1-1.52c-.19.35-.34.67-.18,1,.31.58.3.95-.46,1a.35.35,0,0,0-.14,0v.82l.23,0c.45.05.9.19,1.35.23.64.07,1,.13.16.61-.19.11-.14.35.07.52s.62.36.71,0C6.13,56.2,7.12,56,6.94,55.37Z"/><path class="cls-5" d="M6.29,41.56a.66.66,0,0,0-1,.33c-.07.66-.68.81-.86,1.27s-.32.61-.83.3l-.13-.05v1a.24.24,0,0,1,.06.16c.23,1.46,1.39,1.16,2.36,1.54L5.4,45.08l-1,.41a4.31,4.31,0,0,1,1.68-3.11C6.25,42.23,6.69,41.86,6.29,41.56Z"/><path class="cls-5" d="M11.41,12.65c-1-.19-1.91-.28-1.45-1.59.15-.43-.29-.53-.57-.7s-.38-.06-.51.15-.29.68,0,.94c.78.67.69,1.14-.2,1.59-.21.11-.61.72-.06.67C9.53,13.64,10.61,13.73,11.41,12.65Z"/><path class="cls-5" d="M7.32,27.34c-.24.33-.75.47-.43,1.1.52,1,0,1.47-1,1.61-.27,0-.66,0-.83.36s.17.59.34.74c.34.33.56-.06.75-.3.33-.41.66-.16,1,0,.77.25,1.07-.31.76-.77A5.11,5.11,0,0,1,7.32,27.34Z"/><path class="cls-5" d="M5.58,44.34a2.08,2.08,0,0,1,1.13,1.09c.2.36.6.69,1,.41s.15-.61-.09-.93c-.44-.59-.23-1.24,0-2.17Z"/><path class="cls-5" d="M4.89,6.13A1.17,1.17,0,0,0,3.64,7.37a2.72,2.72,0,0,0,.77,2.08c.14.13.43,0,.42,0-.51-.68.69-1.5-.16-2.14S5.08,6.62,4.89,6.13Z"/><path class="cls-5" d="M13.11,14.05l.11,1.06c.6-.37,1.12,0,1.65.21,0,0,.09,0,.09-.07.11-.61-.56-1-.44-1.65a.82.82,0,0,0-.76-.53c-.6.08-.55.62-.67,1Z"/><path class="cls-5" d="M11.71,7.43c-.39-.27-.52-1-1.13-.52s-.56,1,0,1.29c.34.21.43,1.13,1,.62A1,1,0,0,0,11.71,7.43Z"/><path class="cls-5" d="M9.09,46.7c.95.23,1.56.22,2-.39a.29.29,0,0,0-.16-.49C10.18,45.63,9.79,46.2,9.09,46.7Z"/><path class="cls-5" d="M12.47,20.32c.27.23.58.38.86.06s.49-.51.24-.86a.66.66,0,0,0-1-.2A.83.83,0,0,0,12.47,20.32Z"/><path class="cls-5" d="M10.87,23.81c-.25,0-.57-.07-.73.05A.89.89,0,0,0,9.93,25c.06.12.13.39.33.2s.84-.4.34-1c-.16-.19,0-.39.26-.42Z"/><path class="cls-5" d="M18.49,59c0-1.05-.29-1.69-1.54-1.25-.58.2-1.25-.44-1.88.14-.42.39-.5.55.07.9.78.49,1.76.27,2.51.89.21.18.62-.38.85-.72Z"/></g><polygon class="cls-6" points="53.38 51.76 74.96 34.6 78.03 37.41 53.55 64.3 53.93 70.67 24.3 66.43 29.21 36.1 53.52 35.17 53.38 51.76"/><polygon class="cls-6" points="76.13 31.74 80.7 36.7 87.09 35.81 79.44 25.72 76.13 31.74"/><polygon class="cls-6" points="24.61 32.55 57.9 32.24 53.77 26.1 28.55 22.13 24.61 32.55"/><path class="cls-6" d="M21.51,69.3c.43.14,35.18,4.63,35.18,4.63l.08,4.52L19.14,75.62Z"/></g><g id="_1" data-name="1"><path class="cls-2" d="M2,39.15A60,60,0,0,1,2.69,50c-.38,8.48-.78,16.92-.88,25.43l-.3,23.18a.45.45,0,0,0,.49.48c3.73-.39,13.14.56,16.71-1.93a2.48,2.48,0,0,1,3.06.13c5.58,4.64,16.17,2,22.05,2,15.7.16,31.37-1.57,47.06-1l8.67.32a.46.46,0,0,0,.45-.49c-.32-12.79-.7-25.57-1-38.36-.22-8.31,2.67-26.37-2.08-33.31,3.76-8.43,1.93-17,2.28-26A.42.42,0,0,0,98.77,0c-8.1.32-16.2.82-24.31,1-24.95.45-45.94,0-74,.43A.43.43,0,0,0,0,1.85c.46,8-.21,16,.33,24C.63,30.3,1.43,34.72,2,39.15Z"/><path class="cls-3" d="M6.78,40.07A57.32,57.32,0,0,1,7.38,50c-.35,7.76-.71,15.48-.8,23.26l-.27,21.2a.41.41,0,0,0,.44.44c3.37-.35,10.06.32,13.28-2a2.23,2.23,0,0,1,2.76.12c5,4.25,16.34,2,21.65,2.07,14.13.14,28.26-1.43,42.39-.9l7.81.3a.42.42,0,0,0,.41-.45c-.29-11.7-.63-23.39-.92-35.09-.2-7.6,2.4-24.12-1.87-30.47C95.64,20.77,94,13,94.31,4.67a.38.38,0,0,0-.37-.41c-7.3.29-14.6.75-21.91.88-22.47.41-41.38,0-66.71.39A.39.39,0,0,0,5,6c.42,7.31-.19,14.64.3,21.94C5.52,32,6.24,36,6.78,40.07Z"/><g class="cls-7"><path class="cls-5" d="M11.5,3.85H7.3c.07.09.06.3.13.41a4.73,4.73,0,0,1,.64,1.65,2.45,2.45,0,0,0,.17-1.38c0-.25.06-.46.35-.42a3.51,3.51,0,0,1,.53.15c-.5.86.69,1.3.52,2s.31,1.15.79,1.62c.22-.67.66-1.08.64-1.83,0-1.19-1.34-.48-1.68-1.58.67.5,1.47-.27,1.73.8a.22.22,0,0,0,.37,0,.44.44,0,0,0,.08-.39A1,1,0,0,1,11.5,3.85Z"/><path class="cls-5" d="M13.58,60.1c-.32,0-.84.32-.83-.28,0-.81-.45-1-1.12-1.1.08.66-.52,1.07-.63,1.77-.48-.52-1.16-.54-1.68-.9s-.31-.2.06-.57a1.26,1.26,0,0,0,.23-1.15c-.29-.85.05-1.27.9-1,.69.24.75-.33,1.12-.67.34,1.49,2.12,2.19,1.94,3.92Z"/><path class="cls-5" d="M16.49,17.12c.84-.18,1.25.23,1.07,1a.67.67,0,0,0,.08.53,4.94,4.94,0,0,1,1.05,2c0,.11.3,1.37.92.24.07-.12.3-.08.34.09a.46.46,0,0,1-.13.37c-.49.23-.91.43-1,1.09,0,.11-.66.21-1,.24-.66.07.19-.39-.14-.46.15-.36-.83-.93.21-1.13a1.78,1.78,0,0,0-1.17-1c-.7-.08-.93-.34-.86-.94s.72-.27,1.15-.58c-.9,0,0-.88-.62-1.07Z"/><path class="cls-5" d="M17.54,68.35c.46-.09.5.47.85.57a6.21,6.21,0,0,0,.9.28c.29,0,.37-1,.79-.28s.88,1.51,0,2.25c-1.19,1-2.34.45-2.84-1.26a2.66,2.66,0,0,0-.16-.39l.12-.65Z"/><path class="cls-5" d="M21.49,62c.16.38.21.66.28.66,1.53,0,1.64,1.85,2.66,2.25,1.18.45,1.08,1.48,1.62,2.21-1.05-.49-1.93-1.23-3-1.68a.63.63,0,0,1-.35-.63c0-.66-.06-1.08-1-.63-.37.18-.87-.44-.67-1A12.23,12.23,0,0,0,21.49,62Z"/><path class="cls-5" d="M17,24.54c.24-.63,1.11-.47,1.36-1.11.05-.11.42,0,.41.2a1.09,1.09,0,0,1-.49,1c-.14.07-.51-.2-.38.24,0,.17.18.36.4.21s.51-.27.51.16-.31.45-.64.34a4.45,4.45,0,0,0-.51-.19c-.22,0-.68-.19-.56.15s-.2,1.19.38,1.06c1.72-.38.31.52.35.79,0,.1-.14.23-.19.3-.6,0-.36-1.31-1.29-.67,1.41.78-.4,1-.22,1.59-.85-.91-.38-1.89-.18-2.84.07-.33.24-.62,0-.92Z"/><path class="cls-5" d="M19.29,36.15c.06,1.09-1.05,1.5-1.33,2.61-.23-1-1.2-1.4-1-2.49.6.49,1.12.48,1.53-.17-.2-.35-.43.16-.69,0,.21-.61.66-.85,1.22-.53a2.76,2.76,0,0,0,1.83.13c.2,0,.42-.42.6,0a.41.41,0,0,1-.17.57c-.64.28-.52.85-.56,1.47A2.62,2.62,0,0,0,19,38C19.17,37.28,20.57,36.87,19.29,36.15Z"/><path class="cls-5" d="M11.06,54c.24-.06.6,0,.7-.17.56-.85.69-.11.77.23.15.73.39.56.72.14.18-.24.41-.49.72-.45s.44-.6.81-.13a1.06,1.06,0,0,1,.2,1.13c-.22.52-.57,0-.83.07s-.68-.38-.86.07.28.35.48.5a1.54,1.54,0,0,1,.45.82c.09.31,0,.55-.45.44A3.25,3.25,0,0,1,11.06,54Z"/><path class="cls-5" d="M18.4,4.56A.87.87,0,0,0,18,3.85h-.82c-.09.37,0,.81-.58.91-.16.3-.12.74.11.8,1.06.33,1.05,1.29,1.36,2.08.21.54.61.36.85.05A1.28,1.28,0,0,0,19,6.34,4.09,4.09,0,0,1,18.4,4.56Z"/><path class="cls-5" d="M22.39,27.87c.31-.17.9,0,.71-.59a4.61,4.61,0,0,0-.85-1.75c-.18-.18-.25-.41-.42-.58s-.22-.47.09-.58a.43.43,0,0,1,.59.3c.14.42.39.81.5,1.2s.2.74.8.68c.42,0,.47.42.4.75-.14.67-.31,1.34-.48,2a.42.42,0,0,1-.7.25,5.69,5.69,0,0,1-1.1-.81C21.42,28.23,22.57,28.34,22.39,27.87Z"/><path class="cls-5" d="M10.89,62.57c-.48.79,0,2.05-1.31,2.34-.13,0-.08-.13-.15-.18C8,63.77,8.66,62.57,9,61.4c0-.12-.07-.32.13-.33a.46.46,0,0,1,.35.22C10.06,62.3,10.05,62.31,10.89,62.57Z"/><path class="cls-5" d="M5.67,16.11c.57-1-.89-.62-.89-1.32a.21.21,0,0,0-.11-.21v1.78c.22.11.26.35,0,.77a.35.35,0,0,1,0,.08v.68c.79-.14,1.5-.29.86-1.53C5.51,16.31,5.62,16.2,5.67,16.11Z"/><path class="cls-5" d="M13.59,30.71a.69.69,0,0,1-.14-.9c.27-.45.6-.27.94-.13s.52.12.64-.2c.21-.59.53-.56,1-.28s.59.56.33,1-.24.86-.93.58a1.61,1.61,0,0,0-1.18.24C13.85,31.27,13.77,31.09,13.59,30.71Z"/><path class="cls-5" d="M14.29,27.36c-.08,0-.21.06-.29,0-.5-.21-1-.69-1.34.25a.79.79,0,0,1-.4-.08c-.18-.09,0-1.76.19-1.77a6.4,6.4,0,0,0,2.38-.69c.25-.12.45.31.38.34-.87.35-.61,1.19-.85,1.81A.57.57,0,0,1,14.29,27.36Z"/><path class="cls-5" d="M28.62,27a.43.43,0,0,1-.68.06c-.33-.53-1.19-.23-1.35-.91-.06-.23.16-.33.42-.38.52-.09,1-.24,1.55-.37.25-.07.53-.51.71-.07s.41.87-.16,1.14A1,1,0,0,0,28.62,27Z"/><path class="cls-5" d="M21.05,14a4.44,4.44,0,0,0,1.31.88c.47.13.46.58.43,1s-.37.49-.71.44c-.68-.1-.6.33-.5.72s0,.57-.27.73a.33.33,0,0,1-.29,0c-.37-.26,0-.47,0-.72A9.13,9.13,0,0,0,21.05,14Z"/><path class="cls-5" d="M7.12,11.71c-.51-.43-.78-1.19-1.48-1.34-.37-.09-.41-.66-.75-.47a.7.7,0,0,0-.22.2v1.13a.83.83,0,0,0,.68.39c.55,0,0-.56.33-.81a2.26,2.26,0,0,1,.4,2.09c0,.21-.11.46.1.59a.4.4,0,0,0,.58-.14C7.09,12.85,6.66,12.18,7.12,11.71Z"/><path class="cls-5" d="M13.46,47.67c-.22-.84.39-1.58-.16-2.28-.1-.13.1-.28.23-.3.38-.07.58.23.79.47s.28.59,0,.65c-.9.2-.46.82-.35,1.19.21.7.16,1-.67,1a3,3,0,0,1-1.36-.2.61.61,0,0,1,.08-.38C12.41,47.3,12.9,47.4,13.46,47.67Z"/><path class="cls-5" d="M16.49,17.12l-.09.37c.07.34-.43.16-.43.51a.53.53,0,0,1-.73.55.71.71,0,0,1-.5-.95c.18-.74.35-1.48.55-2.22a.35.35,0,0,1,.51-.26c.21.1.18.46.15.48-1,.59.11.73.23,1.07A1.82,1.82,0,0,0,16.49,17.12Z"/><path class="cls-5" d="M17.77,64.55a1.3,1.3,0,0,0-1.18.14c-.63.5-.8.51-1-.44s-.17-1.08.55-1.31,1.2-.12,1.33.73A5,5,0,0,0,17.77,64.55Z"/><path class="cls-5" d="M13.35,66.42c-.08,0,.14.68-.42.62s-.48-.45-.64-.76a5.68,5.68,0,0,0-.51-.7.42.42,0,0,1,.37-.69,2.89,2.89,0,0,1,2.19,1.17.42.42,0,0,1,0,.6C13.87,67,13.92,66.25,13.35,66.42Z"/><path class="cls-5" d="M20.25,30.41c.38.35,1.65.16.63,1.3-.44.49.31,1.2.26,1.86,0,.24.22.5,0,.75-.4-.39-.61.38-.94.17S20,34,20,33.68C20,32.6,20.45,31.54,20.25,30.41Z"/><path class="cls-5" d="M11,84.29c-1,.94-1.81.31-2.63,0-.25-.1,0-.91-.73-.57,0-.1-.1-.23-.07-.29s.23-.28.32-.26c.75.17,1.76-.5,2.23.67C10.22,84.15,10.67,84.09,11,84.29Z"/><path class="cls-5" d="M21.94,30.16a6.72,6.72,0,0,0,2.75,3.64C24,33.31,23,34,22.32,33S22.33,31.06,21.94,30.16Z"/><path class="cls-5" d="M8.89,70a1.58,1.58,0,0,1-2.4-.77,4.09,4.09,0,0,1-.3-2.42c.07-.25.13-.41.37-.42a.32.32,0,0,1,.33.36c-.08.43.23.77.26,1.12C7.28,69.36,7.47,69.66,8.89,70Z"/><path class="cls-5" d="M5.41,38c.25.19.08.63.56.77.72.21.46.82.3,1.35s-.59.41-1,.32c-.58-.13-.71-.48-.54-1S4.73,38.28,5.41,38Z"/><path class="cls-5" d="M23.92,40.09c.37.53,1.19.52,1.31,1.27.07.48-.13.76-.51.81a2.57,2.57,0,0,0-1.43.81c-.16.16-.4.28-.56,0s0-.38.26-.48c.44-.16,0-1.06.82-1.05A1.55,1.55,0,0,0,23.92,40.09Z"/><path class="cls-5" d="M13.57,60.14c.29-.74.79-1.47.18-2,.06.22,1.48-.41.78.87,0,.1.47.5.71.77a.35.35,0,0,1,0,.5c-.13.12-.25,0-.38-.07s-.2-.88-.64-.31.32.35.46.55a3.76,3.76,0,0,1,.39.71c-1-.78-1.21.43-1.89.54.48-.48.32-1.06.41-1.58Z"/><path class="cls-5" d="M19.25,62c-.26.06-.77.34-1-.15s-.5-1.22.1-1.71c.41-.33,1.09-.33,1.27.09A1.32,1.32,0,0,1,19.25,62Z"/><path class="cls-5" d="M8.2,90c-.5-.54-.53-1.18,0-1.29a1.61,1.61,0,0,1,1.71.52c.49.68,0,1-.44,1.3C8.76,90.89,8.47,90.19,8.2,90Z"/><path class="cls-5" d="M26.3,73.22A1.43,1.43,0,0,1,25,73.08c-.36-.33,0-.86,0-1.31s.42-.47.81-.35c.22.06.43.08.47-.25,0,0,.17-.12.24-.11A6.73,6.73,0,0,1,26.3,73.22Z"/><path class="cls-5" d="M30.23,45.38c-1.43-1.09-1.2-1.88-.59-2.54.35-.38.6-.31.83.12A2.17,2.17,0,0,1,30.23,45.38Z"/><path class="cls-5" d="M6.74,43.55,7.17,45c-.61-.22-.87,1-1.58.39a4.51,4.51,0,0,1,.12-2A.75.75,0,0,1,6.74,43.55Z"/><path class="cls-5" d="M12.5,19.39c.95.3,1.59.84,1.27,2-.16.59-.38.68-.89.27A1.57,1.57,0,0,1,12.5,19.39Z"/><path class="cls-5" d="M15.76,34.94c0-.24-.23-.39-.54-.51a.51.51,0,0,1-.17-.82c.19-.27.53-.44.83-.13s.32.4.62.39c.59,0,.92.11.37.7a1,1,0,0,0-.13.3c-.13.28.37.79-.24.86C16.11,35.78,15.92,35.36,15.76,34.94Z"/><path class="cls-5" d="M17.15,68.87l-.12.65c-.14.24-.42.48-.41.72,0,.6-.11,1-.77.82s-.71-.7-.63-1.26a.84.84,0,0,1,.47-.69C16.22,69.31,16.66,68.94,17.15,68.87Z"/><path class="cls-5" d="M21.22,39.12c.58,1,.28,2.08,1,2.87C20.19,42.18,20.17,42.11,21.22,39.12Z"/><path class="cls-5" d="M15.22,53.22c.15-.69-.66-1-.47-1.71.11-.39,0-1,.58-1s.55.8.87,1.19C15.74,52.09,16,52.88,15.22,53.22Z"/><path class="cls-5" d="M25,11.42c-.19.46-.84.6-.59,1.22a.22.22,0,0,1-.39.19c-.37-.54-1-.83-1.28-1.46-.12-.25-.19-.49.08-.68s.54-.23.67,0C23.79,11.34,24.42,11.27,25,11.42Z"/><path class="cls-5" d="M17,24.54l-1.07.3c-.1,0-.28,0-.28,0-.2-.64,0-1.32-.31-2-.18-.38.64-.32.84-.19s.87,0,.88.33c0,.69-.66.07-1,.44A2.55,2.55,0,0,1,17,24.54Z"/><path class="cls-5" d="M21.66,51.78c-.5.38-1.05.52-1.18.16s-.32-1.2.23-1.61,1.12.06,1.33.34C22.4,51.14,21.8,51.53,21.66,51.78Z"/><path class="cls-5" d="M14.32,88.24c.77.13,1,.87,1.66,1,.21,0,.18.38.09.57s-.19.48-.5.53A1.18,1.18,0,0,1,14.39,89C14.47,88.72,14.22,88.53,14.32,88.24Z"/><path class="cls-5" d="M46.44,30.66c-.12-.46-.67-.92,0-1.36.43-.28.68,0,.88.35s.64.86,0,1.32S46.71,30.82,46.44,30.66Z"/><path class="cls-5" d="M10.94,75.05A5.36,5.36,0,0,1,10.76,78C9.58,76.48,9.59,76.38,10.94,75.05Z"/><path class="cls-5" d="M27.36,66.66c-.32-.41-.54-.85-.1-1.19s.84.06,1.15.33a.77.77,0,0,1,0,1.18C28,67.4,27.7,66.77,27.36,66.66Z"/><path class="cls-5" d="M12.86,64.67c-.14-.38,0-.54,0-.7,0-.42-.11-.95.45-1a1.77,1.77,0,0,1,1.41.68c.3.3.24.65-.31.59A2,2,0,0,0,12.86,64.67Z"/><path class="cls-5" d="M15.06,80.52c.19.18-.07,1,.68.54.19-.12.38-.27.59-.08s0,.33,0,.49a.56.56,0,0,1-.74.28,8.94,8.94,0,0,1-1.24-.7.54.54,0,0,1-.31-.64c0-.18.11-.36.34-.36A.81.81,0,0,1,15.06,80.52Z"/><path class="cls-5" d="M36.94,34.36c-.36.13-.68-.15-.93-.51-.39-.55.08-1.06.35-1.34s.73.16.93.46C37.59,33.42,37.55,33.91,36.94,34.36Z"/><path class="cls-5" d="M13.8,75.32c-.1-.26-.41-.63.33-.61.18,0,.18-.17.14-.34-.13-.52.18-.66.61-.65.6,0,.26.5.31.76s-.1.43-.1.64a.7.7,0,0,1-.55.73C14.16,76,14.08,75.56,13.8,75.32Z"/><path class="cls-5" d="M67,20.7c-.4.37-.64.33-.84,0-.33-.5-.1-.9.25-1.26s.63-.31.76,0A1.24,1.24,0,0,1,67,20.7Z"/><path class="cls-5" d="M10.06,37.6c.83.13,1.42.45,1.42,1.34,0,.23-.28.54-.49.47C10.2,39.13,10.06,38.43,10.06,37.6Z"/><path class="cls-5" d="M18.92,18.58a.45.45,0,0,1,.29-.6,3.46,3.46,0,0,1,2.31.51c.13.18.32.39.12.57s-.45.13-.52-.22c0-.09-.11-.16-.18-.23-.57,1.28-1.24-.48-1.85.05C19.07,18.68,19,18.61,18.92,18.58Z"/><path class="cls-5" d="M26.38,40c-.06-.69-1.39-.94-.72-1.64.53-.54,1.29-.26,1.32.64C27,39.3,26.43,39.55,26.38,40Z"/><path class="cls-5" d="M32.4,36.72c-.45-.27-1-.3-1.34-.58s-.62-.27-.44-.62.32-.61.69-.56.69-.07.77.42S32.29,36.27,32.4,36.72Z"/><path class="cls-5" d="M27.06,32.71a4,4,0,0,0,1.35.62c.2.05.33.16.31.38a.54.54,0,0,1-.28.44,2.27,2.27,0,0,1-1.05.16c-.69.07-.05-.53-.24-.76s-.23-.27-.35-.4Z"/><path class="cls-5" d="M17.15,68.87c-.49.07-.93.44-1.46.24.07-.37-.42-1,.05-1s1.31-.39,1.8.29Z"/><path class="cls-5" d="M8.05,44.86c.26.21,1.18-.12,1.35.89.06.32.18.56-.15.72s-.43-.11-.61-.31C8.26,45.73,8.55,44.91,8.05,44.86Z"/><path class="cls-5" d="M22.68,80.93a.73.73,0,0,1-.89-.38.69.69,0,0,1,.3-1c.32-.2.51.06.66.34S23.13,80.58,22.68,80.93Z"/><path class="cls-5" d="M7.42,78.07a.22.22,0,0,1-.34-.18c0-.6-.46-1.22,0-1.8.15-.2.46-.17.64.12A1.55,1.55,0,0,1,7.42,78.07Z"/><path class="cls-5" d="M11.3,62.77c.55.06,1.18,0,1.2.82-.57,0-.45,1-.94.82C10.92,64.09,11.1,63.37,11.3,62.77Z"/><path class="cls-5" d="M26.09,62.24c-.63.27-.8-.49-1.28-.62a.47.47,0,0,1-.2-.67c.25-.4.82.06,1.1-.33.05.05.12.09.14.15.06.26-.09.3-.31.3s-.22.13-.19.29.2.12.31.07c.36-.16.56,0,.65.34A.4.4,0,0,1,26.09,62.24Z"/><path class="cls-5" d="M7.6,82.6c-.28.41-.94.68-.57,1.4.13.25-.22.45-.51.33-.64-.26-.28-.91-.45-1.37s.3-.47.6-.3S7.2,82.22,7.6,82.6Z"/><path class="cls-5" d="M27.06,32.71l-.26.44c-.12.07-.29.12-.35.23-.18.31-.31.69-.77.58a.82.82,0,0,1-.56-.73c0-.43.43-.47.67-.67.4.38-.59.71,0,.88.44.12.62-.26.52-.78-.06-.35.26-.6.67-.47S27.34,32.5,27.06,32.71Z"/><path class="cls-5" d="M6.09,76.55c-.54,0-1-.12-1.15-.46-.31-.57.7-.69.55-1.27a.58.58,0,0,1,.67.4C6.33,75.68,5.78,76.06,6.09,76.55Z"/><path class="cls-5" d="M17.85,59.2c.08.21.32.32.2.52a.31.31,0,0,1-.48.07c-.36-.51-.47.71-.83.09-.2-.32-.47-.68-.08-1S17.53,58.88,17.85,59.2Z"/><path class="cls-5" d="M48.87,19.22c-.33.29-.51.22-.63,0a.75.75,0,0,1,.24-1.12c.25-.17.59-.14.67.08A1.08,1.08,0,0,1,48.87,19.22Z"/><path class="cls-5" d="M8.5,9.3c.26.27.38.56,0,.8a.69.69,0,0,1-1-.34c-.17-.29-.36-.69.08-.94S8.25,9,8.5,9.3Z"/><path class="cls-5" d="M12.45,90.54c.17.27.44.59.06.84s-.69.29-.95-.14-.35-.71,0-1S12.22,90.25,12.45,90.54Z"/><path class="cls-5" d="M12.06,51.38c1.8-.15.86,1,1,1.76C12.2,52.83,12.27,52.05,12.06,51.38Z"/><path class="cls-5" d="M31,59.29c-.3.09-.6.25-.81,0a.79.79,0,0,1,.19-1.08.49.49,0,0,1,.75.15C31.36,58.69,31.12,59,31,59.29Z"/><path class="cls-5" d="M23.15,38.19l-.81.32c-.84.31-.81.31-.76-.47a3.18,3.18,0,0,0-.2-.92C22.1,37.17,22.19,38,23.15,38.19Z"/><path class="cls-5" d="M23.49,85c-.21.27-.41.28-.6,0-.49-.73.71-.7.58-1.31,0-.09.42-.11.52.13C24.22,84.32,23.9,84.67,23.49,85Z"/><path class="cls-5" d="M35.55,30.54c.23-.45-.57-1,0-1.47.22-.19.56.11.52.2-.18.51.69,1,.06,1.46C36,30.87,35.73,30.89,35.55,30.54Z"/><path class="cls-5" d="M32.5,42.08c.83.28.26,1.21.77,1.62a.89.89,0,0,1-.67.4c-.34,0-.63-.39-.39-.59C32.71,43.08,32.37,42.58,32.5,42.08Z"/><path class="cls-5" d="M17.64,80.14a.85.85,0,0,1,.07-1c.21-.24.43-.17.59.12a1,1,0,0,1,0,1.09C18.21,80.53,17.86,80.37,17.64,80.14Z"/><path class="cls-5" d="M24.93,6.54a1.1,1.1,0,0,1-1.07-.25c-.14-.13,0-.57,0-.87.32.12.72-.15,1,.21A.67.67,0,0,1,24.93,6.54Z"/><path class="cls-5" d="M16.22,61.93c-.3.35-.63.43-.74.19-.28-.58.55-.79.53-1.31.2,0,.46-.18.59.08A.73.73,0,0,1,16.22,61.93Z"/><path class="cls-5" d="M22.76,21.24c.44.35,1.16.35.83,1.15-.08.2-.2.62-.49.4A1.3,1.3,0,0,1,22.76,21.24Z"/><path class="cls-5" d="M34.88,18.14c-.36.27-.57.35-.73,0s-.25-.64,0-.89a.43.43,0,0,1,.72.14C35.06,17.7,35.17,18,34.88,18.14Z"/><path class="cls-5" d="M22.29,71.12a.49.49,0,0,1-.63-.21.71.71,0,0,1,.08-1c.19-.21.36-.17.51,0A1.11,1.11,0,0,1,22.29,71.12Z"/><path class="cls-5" d="M39.07,47.9c-.28.33-.42.05-.43,0,0-.51-.73-.89-.28-1.47.16-.21.44-.27.52,0A2.78,2.78,0,0,1,39.07,47.9Z"/><path class="cls-5" d="M9.66,20.64a6.69,6.69,0,0,1,.81,1.05c.16.31.2.78-.25.89s-.55-.27-.59-.61.06-.82-.27-1.2Z"/><path class="cls-5" d="M8.08,36.21c0,.41.33.85-.17,1.18s-.6-.09-.72-.26c-.3-.41.09-.72.34-1A.35.35,0,0,1,8.08,36.21Z"/><path class="cls-5" d="M6.3,19c-.29.08-.55,0-.66-.23s-.18-.73.22-.94c.23-.12.58-.1.69.09C6.77,18.35,6.41,18.69,6.3,19Z"/><path class="cls-5" d="M15.34,78.7c-.16-.22-.09-.4.11-.44.36-.08.75-.4,1.08.07.16.23.22.54,0,.68C16.05,79.26,15.7,78.87,15.34,78.7Z"/><path class="cls-5" d="M9.11,67c-.22.12-.38.5-.54.15s-.38-.82.07-1.17a.42.42,0,0,1,.65.11C9.61,66.5,9.49,66.8,9.11,67Z"/><path class="cls-5" d="M9.31,79.48c.44-.2.72-.94,1.27-.36.17.18.35.52.18.69C10.17,80.39,9.87,79.35,9.31,79.48Z"/><path class="cls-5" d="M25.18,60.1c.29-.45-.46-.81.07-1a1,1,0,0,1,1.14.21c.15.18.27.42,0,.54A8.15,8.15,0,0,1,25.18,60.1Z"/><path class="cls-5" d="M20.05,65.24c.6.3,1.17.47,1,1.12-.12.46-.43,1.13-.72,0C20.26,66.08,20.19,65.77,20.05,65.24Z"/><path class="cls-5" d="M10.35,9.24c-.31.21-.61.27-.81,0a.73.73,0,0,1,0-1c.28-.21.6.06.82.33S10.66,9.07,10.35,9.24Z"/><path class="cls-5" d="M44.51,38.66c-.37.13-.55-.14-.76-.4s-.13-.54.13-.72.63-.18.74.12S44.9,38.35,44.51,38.66Z"/><path class="cls-5" d="M34.62,53.13a.49.49,0,0,1-.68-.14.57.57,0,0,1,.07-.78c.28-.25.57,0,.75.17S34.77,52.91,34.62,53.13Z"/><path class="cls-5" d="M21.43,10.08l-.33.07c-.17-.6-1.12-.83-.84-1.61.16-.45.62,0,.94,1C21.25,9.7,21.34,9.86,21.43,10.08Z"/><path class="cls-5" d="M18.78,29.8c0-.26,0-.45,0-.63s-.39-.74,0-.87.34.35.37.63a.47.47,0,0,0,0,.1C19.53,29.38,19.53,29.38,18.78,29.8Z"/><path class="cls-5" d="M19.56,26.67c.26.15.59.4.22.7a.65.65,0,0,1-.86-.21.78.78,0,0,1,.11-.91C19.49,25.9,19.43,26.42,19.56,26.67Z"/><path class="cls-5" d="M19.91,12.27c.64.77.49,1.33-.4,1.66A4.64,4.64,0,0,1,19.91,12.27Z"/><path class="cls-5" d="M14.91,77.14c-.32-.33-.34-.63,0-.9s.45,0,.55.22.45.64,0,1S15.11,77.1,14.91,77.14Z"/><path class="cls-5" d="M13.55,38.12c-.19.1-.42.17-.54-.08a1.11,1.11,0,0,1,.13-1c.06-.14.3,0,.44.15C13.87,37.53,13.71,37.82,13.55,38.12Z"/><path class="cls-5" d="M40.18,49.51c-.21.49-.38.78-.29,1.13s.12.61-.22.75-.27-.18-.39-.31-.34-.59-.07-.87A7.85,7.85,0,0,1,40.18,49.51Z"/><path class="cls-5" d="M12.77,93c-.57.38-.71.05-.89-.15A.44.44,0,0,1,12,92.1a.58.58,0,0,1,.83.26A.55.55,0,0,1,12.77,93Z"/><path class="cls-5" d="M23.6,18.72a.67.67,0,0,1,.29-.89c.32-.24.45,0,.59.22a.64.64,0,0,1-.18.95C24.18,19.08,23.82,18.81,23.6,18.72Z"/><path class="cls-5" d="M15.45,87.8c-.23,0-.39,0-.49,0s-.14-.31,0-.41.5-.42.38-.8c-.06-.2,0-.38.23-.36s.48.2.4.41C15.85,87,15.44,87.28,15.45,87.8Z"/><path class="cls-5" d="M19.18,43.36c-.19.18-.28,0-.32,0-.24-.38-.93-.41-.83-1,0-.07.25-.18.35-.14C19,42.36,19.11,42.86,19.18,43.36Z"/><path class="cls-5" d="M13.5,11.92a.38.38,0,0,1-.53-.21.72.72,0,0,1,.19-1c.18-.13.44.06.48.29S13.87,11.68,13.5,11.92Z"/><path class="cls-5" d="M37.5,50.17c0,.31.25.69-.07,1a.34.34,0,0,1-.54-.18c-.11-.34-.26-.73.14-1A.31.31,0,0,1,37.5,50.17Z"/><path class="cls-5" d="M33,32.75c.19.16.29.28.21.43s-.17.11-.27.16c-.21-1.13-1.08.63-1.33-.31-.08-.3.11-.49.39-.55S32.82,32.23,33,32.75Z"/><path class="cls-5" d="M29.16,75.87c.26-.45.8-.67.81-1.27a.8.8,0,0,1,.54-.17c.23,0,.19.29.07.43A2.91,2.91,0,0,1,29.16,75.87Z"/><path class="cls-5" d="M13.22,32.93a.41.41,0,0,1-.57-.21c-.15-.25-.14-.6.11-.65s.63-.44.87,0S13.4,32.6,13.22,32.93Z"/><path class="cls-5" d="M14.39,17.83c-.08.53.53,1,0,1.28-.28.16-.69-.22-.76-.46C13.44,18.12,14,18.16,14.39,17.83Z"/><path class="cls-5" d="M12.77,16c-.29.66.36,1.11-.17,1.51a.34.34,0,0,1-.47-.16C11.83,16.81,12.12,16.48,12.77,16Z"/><path class="cls-5" d="M22,22.79c-.84.09-1.58,0-1.44-1.36A4.65,4.65,0,0,0,22,22.79Z"/><path class="cls-5" d="M41.69,50.67A2,2,0,0,1,41.47,52c-.07.1-.32,0-.33-.14,0-.41-.39-.86.1-1.23C41.39,50.47,41.55,50.4,41.69,50.67Z"/><path class="cls-5" d="M25.78,57c-.24.18-.5.34-.74,0s-.26-.49,0-.65a.81.81,0,0,1,.92,0C26.22,56.59,26,56.81,25.78,57Z"/><path class="cls-5" d="M5.83,74c-.23-.11-.24-.27,0-.39s.62-.31.87,0,0,.61-.23.73S6,74.16,5.83,74Z"/><path class="cls-5" d="M77.34,92.81c.6-.15.78.57.69,1a3.34,3.34,0,0,0,.44,2.31h3.31c0-.58.17-1.2-.16-1.76a2.69,2.69,0,0,1-.43-1.86c.13-.59-.07-1.63,1.21-1.26.58.16.53-.29.37-.69s-.69-.63-.34-1.25c-.71.21-1.26.65-2,.43-.39-.11-1.33,0-.48,1,.28.3.16.91-.15,1.33s-.62.18-.94,0a.34.34,0,0,0-.29,0c-.56.46-.58.48-1.05,0a2.55,2.55,0,0,0-1.9-1.12c.06.25.1.46.16.65C76,92.31,76.15,93.11,77.34,92.81Z"/><path class="cls-5" d="M85.2,92.86c.36.87.44,1.76.73,2.62a1.88,1.88,0,0,0,.4.65H87c.66-.78,1.84-.65,2.33-1.56l0-.08a1.64,1.64,0,0,1,0-.44c.16-1.08.42-2.16-.61-3-.29-.25-.08-.54.24-.76a1.68,1.68,0,0,0,.6-1.5c0-.51-.72-.33-1-.32-.58,0-.45-.36-.55-.62a.39.39,0,0,0-.6-.26.36.36,0,0,0-.09.57A2.14,2.14,0,0,1,88,89.61c.05.25.58.41.18.78s-.63.07-.9,0c-.48-.22-.87-.36-1.15.28-.09.21-.36.11-.57.06C85.53,91.45,85,92.37,85.2,92.86Z"/><path class="cls-5" d="M89.67,13.64c-.32-.39-.52-.74-1.24-.58-1,.2-1.44-.61-1.73-1.48a2.77,2.77,0,0,1,.57-3c.78-.59,1.49-1.16,2.63-.48a1.16,1.16,0,0,1,.58.84,3.47,3.47,0,0,0,1.1,2.56c-.33.44-1.42-.6-1.15.69-.88.17-.8.84-.78,1.48Z"/><path class="cls-5" d="M85.26,50.11c-.36.21-.34.53-.44.8s-.19.47-.28.7c.32.16.75,0,1,.33-.86.77-1,.82-1.39-.08-.32-.7-1.37-1.33-.47-2.32,0,0,0-.28-.12-.37-.47-.48-.47-.53.18-.94a3.26,3.26,0,0,1,.61-.38c.75-.27.91-.78.73-1.53l.54.94c.31-.2.24-1.24.93-.39.48-.55,1.56-.23,1.75-1.24.12-.58.48-1,1.1-.61a1.38,1.38,0,0,1,.65,1.69c-.07.23-.26.24-.43.28-.47.08-1,.06-.61.83.11.22-.39.37-.43.27-.29-.73-1.19-.23-1.53-.83-.06-.11-.9.59-.93.88s0,.49-.18.59c-.73.36-.26.76.08.73.66-.05.57.49.71.76s-.2.64-.41.7c-.45.14-.7-.23-.89-.62C85.42,50.24,85.35,50.2,85.26,50.11Z"/><path class="cls-5" d="M91,54.58c.56.54.56.54,2.32.16.12-.32-.27-.39-.32-.64s-.15-.5.11-.67a.47.47,0,0,1,.39-.08.43.43,0,0,1,.2.57c-.22.65.45.73.67,1.09s.23.26-.11.59-.19.74-.21,1.14.15.8-.32.81c-.84,0,0-.62-.27-.86s-.28.23-.41.35-.31.34-.55.14-.24-.29-.06-.47.33-.28,0-.44c-.17-.08-.3-.19-.46,0-.59.74-1.52.33-2.27.61-.56.2-.57-.9-1.11-1.53.53.13.88.59,1.1-.13.12-.4.84-.51,1.34-.63Z"/><path class="cls-5" d="M83.06,46.22c.69,0,.8-.41.84-1.13a10.6,10.6,0,0,0,.56,1.13c.41.64.1.77-.48.75-.13,0-.15-.27-.34-.1-.61.53-.81.44-1.11-.52-.08-.26,0-.64-.43-.67s-.36.33-.49.53c-.25.38-.23.39.73.5-.24.36-.8.48-.65,1a.25.25,0,0,1-.3.33c-.33,0-.29-.16-.21-.43.2-.68-.12-1-.8-1.13-.45-.08-.85-.31-.28-.86s.77-1.44,1.81-1c0,0,.28-.23.26-.29-.27-.77.09-.87.75-.83s.11.87.61,1C83,45,83.65,45.74,83.06,46.22Z"/><path class="cls-5" d="M88.21,68.19a2.06,2.06,0,0,0,1.86,1c.81-.07.37,1,1,1.19,0,.05-.11.16-.12.15-.89-.4-1.48.7-2.19.52s-.88.58-1.58.25-1.09-.53-.79-1.28.82,0,1.26,0C87.47,69.28,88.58,69,88.21,68.19Z"/><path class="cls-5" d="M81.86,86.44c.25-.22.06-.41,0-.58-.22-.42-.3-.82.25-1a.86.86,0,0,1,1.15.56,1.32,1.32,0,0,1-1,1.49c-.49.09-1.1.51-1.4.34-.61-.35-.93-1.09-1.39-1.65a1.68,1.68,0,0,1,.81-2.36.36.36,0,0,1,.27,0c.14.08.22.27.09.36-.85.63-.24,1,.21,1.44a1.13,1.13,0,0,1,.35.89C81.23,86.28,81.58,86.35,81.86,86.44Z"/><path class="cls-5" d="M86.65,66c-.29.16-.59-.22-.92,0a.85.85,0,0,1-.7-.06c-.23-.89-1.37-1.2-1.38-2.22,0-.52.36-.76.63-1.08.23.62.91-.16,1.29.5C86.45,64.65,86.53,64.61,86.65,66Z"/><path class="cls-5" d="M91.48,19.55c-.35-.86.64-1.06.73-1.71,0-.26.33-.53,0-.74s-.5.06-.61.36c-.29.84-1,.16-1.49.41-.1.05-.23-.23-.2-.44s.28-.71.62-.64c.64.13.45,0,.31-.46s.58-1.16,1.15-.93c1.48.6,1.59,1,.74,2.55C92.42,18.54,92.3,19.26,91.48,19.55Z"/><path class="cls-5" d="M95.65,78.13a1.74,1.74,0,0,1-.76-.8c-.11-.21-.57-.12-.14-.55s-.16-.57-.33-.81a.39.39,0,0,0-.39-.13c-.37.17-.12.4,0,.61s-.07.26-.19.4c-.36.42,0,1.91.49,1.84.85-.15.92.45,1,.93s.18.47.35.53Z"/><path class="cls-5" d="M91.05,54.59c-.06-.05-.12-.15-.16-.15-1.46.22-1.26-1.1-1.7-1.84-.07-.12,0-.32-.11-.42-1-1,.08-1.61.56-2.3.14-.2.32-.05.45.08s.48.14.2.45c-.13.15-.39.41,0,.41s.57-.15.59.32c0,.31-.17.4-.45.48-.55.16-.12.26,0,.48a1.68,1.68,0,0,1,0,.84c0,.32-.34.72.44.42.32-.13.22.77.08,1.22Z"/><path class="cls-5" d="M93.16,24.9l-.3-.08c-.12-.09-.38.08-.39-.24,0-.69.52-1.49-.41-2-.14-.08-.08-.55.21-.39,1,.56.64-.71,1.2-.87.26-.07-.37-.54-.65-.79v.07c.32-.44-.45-.67-.21-1.07s0-.76.44-.77.49.51.47.63c-.1.82,0,1.42.92,1.74.36.12-.15,1.34-.66,1.28-.85-.09-.56.55-.43.72C93.87,23.8,93.48,24.33,93.16,24.9Z"/><path class="cls-5" d="M87.26,57.35c0,.78-.62,1.56.63,1.4.2,0,.38.2.38.47s-.27.31-.42.45a.39.39,0,0,1-.65,0c-.34-.44-.66-.88-1-1.34-.14-.21-.22-.58.15-.58.85,0,.67-1,1.25-1.21.17-.07.06-.36-.2-.48s-.45-.36-.09-.59.41-.47.76-.28c.15.08.4.26.2.39-.74.49-.2.59.15.93a1,1,0,0,1,0,1.51C87.78,58.62,87.62,57.92,87.26,57.35Z"/><path class="cls-5" d="M78.13,87c0,.34,0,.65-.18.83-.45.35-.56.65,0,1,.24.12.26.28.15.53s-.3.21-.52.14c-.39-.11-.79-.16-1.17-.28-.54-.16-.88-.25-.34.43.12.15,0,.32-.23.39s-.62.07-.58-.24c.09-.57-.65-1-.28-1.51a1.8,1.8,0,0,1,1.8-.38C77.51,88,77.68,87.35,78.13,87Z"/><path class="cls-5" d="M79,81.32l.73-.68.67.67a3.7,3.7,0,0,0-.29-3c-.1-.18-.32-.63.1-.73s.81.32.72.62c-.17.55.26.87.26,1.31s.05.59.56.52.75.43.81.86-.39.38-.63.46-.25-.82-.51-.4C80.76,82,79.93,81.35,79,81.32Z"/><path class="cls-5" d="M85.52,90.67a.84.84,0,0,0,0-.31c-.06-.23-.21-.19-.26,0-.13.49-.48.88-.92.64s-1.36-.36-1-1.26c.1-.27-.57-.28-.08-.61,1-.66,1.66,0,2.35.5.21.15.63.52.17.91a.92.92,0,0,1-.3.14Z"/><path class="cls-5" d="M85.64,85.23c-.6.49-.35,1.06-.46,1.56s-.74.43-.74,1a.59.59,0,0,1-.58-.42,7.25,7.25,0,0,1-.17-1.29c0-.34-.18-.79.24-1S84.91,85.37,85.64,85.23Z"/><path class="cls-5" d="M86,52.87c.88.2,1.63.44,1.7-.76,0-.39.42-.32.7-.36s.32.08.36.3,0,.64-.33.73c-.86.27-.94.67-.38,1.34.13.16.25.78-.18.55C87.12,54.3,86.22,54,86,52.87Z"/><path class="cls-5" d="M84.24,65.92c.08.35.44.63,0,1-.77.64-.48,1.17.28,1.63.2.13.55.2.55.57s-.34.41-.53.48c-.39.14-.43-.25-.5-.5-.13-.44-.48-.36-.79-.38-.71-.07-.75-.61-.35-.87A4.49,4.49,0,0,0,84.24,65.92Z"/><path class="cls-5" d="M93.31,94c.33.33.71.59.47,1.2s-.8.74-1.24.94-.64-.29-.54-.72c.17-.72.44-1.37,1.34-1.42Z"/><path class="cls-5" d="M93.31,94h0a2.3,2.3,0,0,1-1-2c.2-.44.53-.2.84-.11s.8.45.7.84S94.22,93.88,93.31,94Z"/><path class="cls-5" d="M79.86,80a1.82,1.82,0,0,0-1.28.47c-.29.22-.72.34-1,0s.08-.53.39-.7c.55-.31.6-.91.72-1.73Z"/><path class="cls-5" d="M90.06,48.24c.09-.47.25-.64.59-.73s.58-.27.35-.7a.42.42,0,0,1,.21-.64.55.55,0,0,1,.69.18c.23.37.78.75.6,1.09s-.77.46-1.2.49A4,4,0,0,0,90.06,48.24Z"/><path class="cls-5" d="M93.41,50A1,1,0,0,1,94,51.37a2.37,2.37,0,0,1-1.33,1.38c-.16.06-.34-.17-.33-.18.65-.36,0-1.42.86-1.63S93.09,50.27,93.41,50Z"/><path class="cls-5" d="M84.11,53.39l-.45.8c-.36-.5-.89-.41-1.4-.4,0,0-.06-.06-.05-.09.12-.52.79-.6.92-1.16a.71.71,0,0,1,.79-.15c.45.27.23.68.18,1.06Z"/><path class="cls-5" d="M89.41,19.29c0,.11.08.14.08.17,0,.28,0,.82-.18.74-.65-.28-1.14.93-1.74.14a.34.34,0,0,1,.13-.48c.42-.11.49-.38.67-.75S89,19.38,89.41,19.29Z"/><path class="cls-5" d="M94.42,63.9c-.42.34-.82.83-1.44.36a.69.69,0,0,1-.12-1.13c.36-.39.9.13,1.28-.3.08.44,0,.82.27,1.1Z"/><path class="cls-5" d="M84.6,79.43c-.47.34-.8.09-1-.23s-.45-.94,0-1.26.77.18,1,.47A.66.66,0,0,1,84.6,79.43Z"/><path class="cls-5" d="M92.49,87.59c0-.33-.41-.72,0-1a.89.89,0,0,1,1.19.15.71.71,0,0,1-.24,1A.74.74,0,0,1,92.49,87.59Z"/><path class="cls-5" d="M87.48,48.63c.41-.09.77-.63,1.08,0s.12,1-.4,1c-.35,0-.73.74-1,.13A.85.85,0,0,1,87.48,48.63Z"/><path class="cls-5" d="M89.29,94.57l0-.08a2.48,2.48,0,0,1,.24-.49c.15-.22.15-.65.53-.56s-.11.42.08.62.07.2.11.3c.12.39.75.86-.1,1.1S89.31,95.15,89.29,94.57Z"/><path class="cls-5" d="M83.74,83c.12.37.71.79.18,1.12s-.75-.41-1.1-.66a.6.6,0,0,1,0-1C83.29,82.22,83.47,82.78,83.74,83Z"/><path class="cls-5" d="M92.35,42.47c-.28-.4-.58-.8-.86-1.21a.55.55,0,0,1,.18-.76c.22-.19.38,0,.52.2C92.59,41.23,93.54,41.66,92.35,42.47Z"/><path class="cls-5" d="M87.47,45.51c-1.61.44-1.1-.95-1.5-1.54-.1-.14,0-.41.35-.4s.68.25.58.62A1.18,1.18,0,0,0,87.47,45.51Z"/><path class="cls-5" d="M84.28,94c-.5-.24-1,.77-1.48,0-.2-.32-.29-.74,0-.88.52-.26,1,.19,1.5.34C84.47,93.5,84.48,93.81,84.28,94Z"/><path class="cls-5" d="M89.29,63.4a4.26,4.26,0,0,0-.31-1c-.21-.33-.1-.43.18-.59s.42,0,.57.24c.25.46,0,1,.41,1.45.06.07-.09.2-.1.14C90,63.17,89.16,64,89.29,63.4Z"/><path class="cls-5" d="M90,80c1-.38.36-1.62,1.39-1.78.47-.08.43.48.76.71C91.14,78.69,91.37,80.26,90,80Z"/><path class="cls-5" d="M92.15,89.26c-.27.14-.59.18-.66-.1s-.28-.89.2-1.16c.23-.14.63-.14.72.2A1,1,0,0,1,92.15,89.26Z"/><path class="cls-5" d="M89,83c.67.62.74,1.13.41,1.65a.54.54,0,0,1-.78.09C88.12,84,89.08,83.67,89,83Z"/><path class="cls-5" d="M88.24,22.28a.47.47,0,0,0,0-.51c-.27-.46-.07-.75.35-1s.54,0,.69.27a.76.76,0,0,1-.35,1.09.84.84,0,0,1-.72.1Z"/><path class="cls-5" d="M94.41,63.93c1.13-.27,1.27-.1,1.12,1.51-.42-.56-1.13-.76-1.11-1.54Z"/><path class="cls-5" d="M85.36,80.93c-.31-.38-.88-.53-.35-.94s.79.29,1.15.47.09.69-.13.83C85.5,81.64,85.45,81.05,85.36,80.93Z"/><path class="cls-5" d="M89.65,13.64c-.1.56.36,1.08.15,1.67-1-.53-1-1-.13-1.67Z"/><path class="cls-5" d="M94,19c1.37-.57.81,1.09,1.61,1.15C95.16,20.29,95.16,20.29,94,19Z"/><path class="cls-5" d="M85.65,72.93c0,.12.44.17.18.45a.42.42,0,0,1-.58,0c-.16-.53-.83-.18-1-.6s.13-.74.35-.7A1.49,1.49,0,0,1,85.65,72.93Z"/><path class="cls-5" d="M94.85,15.29c-.27-.36-.81-.18-1.08-.5-.15-.17,0-.5.33-.59a.71.71,0,0,1,.93.31A.63.63,0,0,1,94.85,15.29Z"/><path class="cls-5" d="M94,8.46c-.31.22-.64.26-.86-.08s.07-.47.25-.64a.43.43,0,0,1,.73.11C94.25,8.09,94.32,8.32,94,8.46Z"/><path class="cls-5" d="M76.24,80.64c-.85-.14-1.34-.36-1.49-1,0-.22.08-.37.3-.33C75.72,79.42,75.84,80,76.24,80.64Z"/><path class="cls-5" d="M82.49,58.58c-.3.09-.6.1-.72-.25s-.21-.58.1-.77a.59.59,0,0,1,.85.18A.71.71,0,0,1,82.49,58.58Z"/><path class="cls-5" d="M91,93c-.23-.15-.53-.39-.18-.56.52-.24.53.74,1.12.63a.87.87,0,0,1-.21.56C90.91,94.1,91.39,93,91,93Z"/><path class="cls-5" d="M88.6,77.11c-.11-.31-.26-.63.1-.89.2-.14.43-.21.51.11s.43.69.05,1C89.05,77.49,88.77,77.35,88.6,77.11Z"/><path class="cls-5" d="M82.59,61.9c.19.09.48.14.56.29a.74.74,0,0,1-.21,1c-.09.08-.24.27-.34,0s-.54-.61.06-.9c.19-.09.13-.3-.07-.42Z"/><path class="cls-5" d="M90.42,45.36c.15-.47-.09-1.09.42-1.26s.29.4.37.6C91.52,45.48,90.57,45,90.42,45.36Z"/><path class="cls-5" d="M64.48,87.17c.37-.83.81-1.24,1.67-.46.4.36,1.16.08,1.46.76.2.45.22.61-.36.69-.79.12-1.5-.4-2.32-.16-.23.07-.37-.52-.44-.87Z"/></g><polygon class="cls-6" points="68.76 51.15 63.23 54.38 53.17 32.74 55.5 31.39 68.76 51.15"/><polygon class="cls-6" points="60.73 50.77 67.51 46.3 80.29 70.3 77.44 72.18 60.73 50.77"/><polygon class="cls-6" points="67.07 50.86 69.32 59.39 45.87 46.54 47.24 43.84 67.07 50.86"/><polygon class="cls-6" points="64.8 52.34 71.69 57.85 69.42 31.21 66.39 31.37 64.8 52.34"/><polygon class="cls-6" points="37.04 50.49 32.45 54.95 17.47 36.38 19.4 34.5 37.04 50.49"/><polygon class="cls-6" points="28.32 52.28 34.41 46.91 50.4 68.9 47.84 71.16 28.32 52.28"/><polygon class="cls-6" points="34.61 51.49 38.02 59.63 13.01 50.16 14 47.29 34.61 51.49"/><polygon class="cls-6" points="32.56 53.27 40.15 57.77 34.2 31.7 31.22 32.28 32.56 53.27"/></g></svg>