<svg id="Layer_1" data-name="Layer 1" xmlns="http://www.w3.org/2000/svg" xmlns:xlink="http://www.w3.org/1999/xlink" viewBox="0 0 100 100"><defs><style>.cls-1{fill:none;}.cls-2{fill:#fefbec;}.cls-3{fill:#efe9d8;}.cls-4{clip-path:url(#clip-path);}.cls-5{fill:#e5e0d3;}.cls-6{fill:#d3ccbe;}</style><clipPath id="clip-path"><path class="cls-1" d="M93.87,59.93A55.4,55.4,0,0,1,93.26,50c.35-7.76.71-15.47.81-23.25l.27-21.2a.42.42,0,0,0-.44-.44c-3.42.36-10.22-.32-13.49,2A2.3,2.3,0,0,1,77.63,7c-5.1-4.25-16.6-2-22-2.08-14.35-.14-28.69,1.44-43,.9L4.69,5.53A.42.42,0,0,0,4.28,6c.29,11.69.63,23.38.93,35.07.2,7.6-2.44,24.12,1.9,30.46C3.67,79.22,5.34,87,5,95.31a.39.39,0,0,0,.37.42c7.41-.3,14.82-.75,22.24-.88,22.8-.41,42,0,67.7-.4a.38.38,0,0,0,.38-.42c-.42-7.31.19-14.64-.3-21.94C95.15,68,94.41,64,93.87,59.93Z"/></clipPath></defs><g id="_2" data-name="2"><path class="cls-2" d="M98,60.85A60,60,0,0,1,97.31,50c.38-8.48.78-16.92.88-25.43l.3-23.18A.45.45,0,0,0,98,1c-3.75.39-13.2-.57-16.75,2a2.53,2.53,0,0,1-3.06-.18c-5.58-4.6-16.14-2-22-2-15.7-.16-31.37,1.57-47.06,1L.45,1.36A.46.46,0,0,0,0,1.85C.32,14.64.7,27.42,1,40.21c.22,8.31-2.67,26.37,2.08,33.31C-.66,82,1.17,90.5.82,99.55a.42.42,0,0,0,.41.45c8.1-.32,16.2-.82,24.31-1,25-.45,45.94,0,74.05-.43a.43.43,0,0,0,.41-.46c-.46-8,.21-16-.33-24C99.37,69.7,98.57,65.28,98,60.85Z"/><path class="cls-3" d="M93.87,59.93A55.4,55.4,0,0,1,93.26,50c.35-7.76.71-15.47.81-23.25l.27-21.2a.42.42,0,0,0-.44-.44c-3.42.36-10.22-.32-13.49,2A2.3,2.3,0,0,1,77.63,7c-5.1-4.25-16.6-2-22-2.08-14.35-.14-28.69,1.44-43,.9L4.69,5.53A.42.42,0,0,0,4.28,6c.29,11.69.63,23.38.93,35.07.2,7.6-2.44,24.12,1.9,30.46C3.67,79.22,5.34,87,5,95.31a.39.39,0,0,0,.37.42c7.41-.3,14.82-.75,22.24-.88,22.8-.41,42,0,67.7-.4a.38.38,0,0,0,.38-.42c-.42-7.31.19-14.64-.3-21.94C95.15,68,94.41,64,93.87,59.93Z"/><g class="cls-4"><path class="cls-5" d="M8.73,85.63a1.26,1.26,0,0,0-1.42.14c-.82.82-1.66,1.21-2.44,0-.51.38-.09.8-.31,1.13s.69.64.18.93-.68-.45-1.07-.66c-.55-.29-.73-1-1.18-1.4s.4-.91.69-1.38c-.13-.6-.9-.21-1.11-.78.32-.44,1.26.26,1.4-.6.28.16.87.15.49.71-.54.8-.12,1.22.64,1.6-.15-.93.07-1.6,1.18-1.47.36,0,.54-.21.79-.34s0-.16-.07-.24c-.3-.3-.54-.21-.81.06s-.55.17-.66-.18-.27-.69.16-.73c.94-.07,1.06-1.23,1.95-1.35,0,0,.81-.38.09-.81-.15-.08.19-.72.69-.76a.8.8,0,0,1,.08.16,2.36,2.36,0,0,1,.78,1.95.8.8,0,0,0,.49.82c.5.14.39-.42.61-.59s.6-1.2.86,0c0,.15.18.3.35.09.64-.79,1.47.31,2.17-.23.2-.15.57.24.32.34-.61.22-.83,1.09-1.65.9s-.8-.18-1,.73c-.2-.06-.41-.1-.6-.17s-.36-.2-.52-.28c-.44.34-.26.91-.6,1.27-.6-.06-.29-.73-.64-.94s-.11-1-.66-.75c-.26.12-.2.84-.11,1.4.14.84.84.85,1.13,1.34A1,1,0,0,0,8.73,85.63Z"/><path class="cls-5" d="M17.39,59c-.28.25-.53.89-1,.35-.58-.73-1.13-.58-1.81-.19.55.54.3,1.33.7,2-.81-.12-1.44.35-2.17.39s-.43,0-.36-.54a1.43,1.43,0,0,0-.62-1.2c-.88-.55-.88-1.17.11-1.52.8-.27.45-.83.54-1.39,1.38,1.09,3.51.45,4.59,2.12Z"/><path class="cls-5" d="M17.43,97A4.37,4.37,0,0,0,15,96.13,1.44,1.44,0,0,0,14,97Z"/><path class="cls-5" d="M26.94,63.55c.36-.41.79.06,1.18-.1a6.53,6.53,0,0,0,1-.39c.28-.18-.41-1.19.52-.8s1.89.72,1.58,2c-.39,1.7-1.81,2.07-3.49.89-.13-.09-.29-.16-.43-.24L27,64.29Z"/><path class="cls-5" d="M26,55.08c.42.24.67.45.73.4,1.42-1,2.83.49,4,.11,1.4-.43,2,.56,3.06.83-1.3.31-2.63.27-3.91.62a.75.75,0,0,1-.78-.31c-.48-.59-.83-.93-1.32.11-.21.43-1.11.23-1.34-.42C26.33,56.09,26.24,55.73,26,55.08Z"/><path class="cls-5" d="M5.3,33.51c.84.93.13,2.09.67,3.28-.91-.71-2.1-.4-2.67-1.53.89,0,1.36-.37,1.26-1.25-.43-.16-.27.45-.64.47-.26-.7,0-1.23.72-1.34A3.3,3.3,0,0,0,6.4,32c.17-.17.08-.69.55-.42a.46.46,0,0,1,.26.63c-.38.7.14,1.13.55,1.71a3,3,0,0,0-1.42,1.47C6,34.61,7,33.24,5.3,33.51Z"/><path class="cls-5" d="M10.72,55.35c.18-.22.53-.45.51-.65-.1-1.16.55-.59.86-.34.67.54.76.23.76-.39a1,1,0,0,1,.33-.91c.29-.18,0-.85.65-.69a1.21,1.21,0,0,1,1,.86c.18.63-.54.39-.7.65s-.89.15-.73.68.5.12.8.11a1.76,1.76,0,0,1,1,.41c.31.21.44.46-.08.72C13.51,56.55,12.4,56.47,10.72,55.35Z"/><path class="cls-5" d="M18.3,83.68c.16.36.08.62-.35.7-.54-.59-1.57-.34-2-1.13-.19-.33-.76-.51-.42-1s.73-.1,1.1,0a6.76,6.76,0,0,1,.71.16c.43-.65-.54-.54-.47-1,.89-.56,1.89.67,2.76-.1l0-.06c0,.41-.91,1.35.56,1,.19-.05.16.13.13.22s-.12.27-.18.27c-.61,0-1,.78-1.72.39-.19-.1-.56-.14-.6.2S18.07,83.57,18.3,83.68Z"/><path class="cls-5" d="M7.34,94.05c.84-.37,1.63-1.1,2.59-.12.32.32.4-.27.6-.44a.41.41,0,0,1,.57,0c.26.26-.19.31-.19.44,0,.93-1.56,1.59-.52,2.73.1.11-.09.35-.27.32-.41-.06-.87.13-1.21-.31-.5-.64-1-1.25-1.57-1.87Z"/><path class="cls-5" d="M4.39,24.23c-.33-.72-.65-1.44-1-2.13-.18-.35-.55-.72-.9-.39s-.51.34-.73.25v.53l.61.39c.58.37-.06.65-.23,1,.51.3-.61,1,.22,1.11A7.15,7.15,0,0,0,3.94,25C4.27,24.91,4.59,24.67,4.39,24.23Z"/><path class="cls-5" d="M19.63,81.21c0-1-.85-1.26-1.55-1.56-1.64-.72-1.66-.69-.95-2.31-.24-.26-.69,0-.89-.32,0-.22.15-.17.25-.21,1.12-.47,1.63-.17,1.81,1,0,.23.52.36.7.61.51.7.32,1.8,1.34,2.23.09,0,.14.46.05.58-.23.3-.52,0-.79,0Z"/><path class="cls-5" d="M36.25,92.28c.79.52,1.33-.8,2.28,0,.52.44,1,.79.66,1.29s.69,1.17,0,1.38a3.23,3.23,0,0,1-2.08-.19c-.76-.33-.78-.29-.21-1S36.37,92.91,36.25,92.28Z"/><path class="cls-5" d="M16.73,63.11c.13,1,1.46,1.84.49,3-.08.14-.17-.06-.26-.06-2,.18-2.25-1.38-2.76-2.7,0-.13-.3-.23-.12-.38a.56.56,0,0,1,.49-.06C15.78,63.46,15.77,63.47,16.73,63.11Z"/><path class="cls-5" d="M48.94,96a9.35,9.35,0,0,1-2,.15c-.36,0-1.27,0-.73-.94.29-.53-.17-.58-.61-.53s-.78,0-.6-.5.44.08.65,0c.57-.12,1.37.52,1.67-.52a.35.35,0,0,1,.62-.09c.15.21.7.15.48.59C48.07,94.87,48.65,95.29,48.94,96Z"/><path class="cls-5" d="M8.73,85.63a1,1,0,0,1,.21-.09c.52-.05.84.28,1.22.57.54.4,1.13.87.75,1.49s-1.29.52-1.95.22a1.9,1.9,0,0,1-1.09-1.31C7.71,85.85,8.46,85.94,8.73,85.63Z"/><path class="cls-5" d="M11.41,70.39c.52.21,1.11,0,1.65.46.75.65.08,1.59.65,2.21,0,0-.15.24-.24.24a.45.45,0,0,1-.46-.49c.06-.56.06-.72-.55-.35s-1,0-1-.63A1,1,0,0,0,11,71c-.23-.17-.53-.38-.29-.72S11.17,70.3,11.41,70.39Z"/><path class="cls-5" d="M7.2,18.73c0,.38-.32.61-.57.53-.68-.23-1.25.65-1.89.15-.21-.16-.09-.41.11-.63.41-.46.78-1,1.14-1.45.18-.23.12-.82.6-.56s1,.48.68,1.13A1.1,1.1,0,0,0,7.2,18.73Z"/><path class="cls-5" d="M16.89,75.82c0-.06-.11,0-.24,0-.53,0-.32,1-.94.77a5.29,5.29,0,0,1-1.79-1.38.68.68,0,0,1,.15-1.09c.44-.32.71-1.07,1.43-.82.27.09.82.43.37.8s-.72.8-.44,1.26S16.41,75.19,16.89,75.82Z"/><path class="cls-5" d="M30.81,94.8c-1.1-.33-1.75.68-2.72.23-.81-.37-1.16-1.33-2.12-1.48-.22,0-.27-.29-.17-.52s.28-.29.41-.22C27.6,93.56,29.33,93.52,30.81,94.8Z"/><path class="cls-5" d="M8.31,48c-.81-.59-.78-1.69-1.79-1.93-.18,0-.11-.31,0-.43.3-.33.69-.21,1-.14s.69.33.49.57c-.66.82.19,1.06.55,1.31.7.48.87.78.09,1.35a3.65,3.65,0,0,1-1.38.78s-.2-.25-.2-.39C7.09,48.38,7.61,48.12,8.31,48Z"/><path class="cls-5" d="M24.41,60c-.5.27-.86.48-1,1-.22.89-.36,1-1.27.34s-.93-.84-.44-1.56,1-1,1.74-.3A4.34,4.34,0,0,0,24.41,60Z"/><path class="cls-5" d="M21.74,64.8c0,.1.62.51.07.86s-.77-.06-1.13-.23a9.85,9.85,0,0,0-1-.26.48.48,0,0,1-.17-.88,3.43,3.43,0,0,1,2.84-.51c.31.09.47.31.41.55C22.65,65,22.14,64.25,21.74,64.8Z"/><path class="cls-5" d="M2,27.69c.59,0,1.61-1,1.51.71,0,.76,1.14.86,1.58,1.48.16.24.56.3.53.69-.64-.07-.28.76-.73.82s-.52-.38-.73-.63C3.41,29.81,3,28.56,2,27.69Z"/><path class="cls-5" d="M32.49,82.47C32.28,84,31.06,84,30.08,84.32c-.3.09-.7-.77-1.08,0-.09-.08-.26-.14-.27-.22s0-.41.1-.46c.81-.38,1.24-1.7,2.51-1C31.69,82.88,32.05,82.52,32.49,82.47Z"/><path class="cls-5" d="M3.38,26.27a7.93,7.93,0,0,0,5.13,1.3c-1,.08-1.43,1.36-2.77.93S4.39,26.8,3.38,26.27Z"/><path class="cls-5" d="M20.3,71.21a1.85,1.85,0,0,1-2.74,1,4.61,4.61,0,0,1-2-2c-.12-.26-.19-.46,0-.64a.38.38,0,0,1,.56.09c.24.45.77.52,1.05.82C18.34,71.76,18.73,71.88,20.3,71.21Z"/><path class="cls-5" d="M12.35,33.74c.72.21,1.45-.38,2.1.21A.7.7,0,0,1,14.58,35a2.77,2.77,0,0,0-.72,1.73c0,.26-.16.54-.49.42s-.29-.31-.11-.6c.29-.46-.77-1,0-1.53A1.74,1.74,0,0,0,12.35,33.74Z"/><path class="cls-5" d="M17.41,59c-.27-.86-.34-1.88-1.29-1.93.21.15,1-1.42,1.33.22,0,.13.79.11,1.2.19A.38.38,0,0,1,19,58c0,.21-.23.18-.39.21s-.82-.64-.81.18.54.09.82.17a4.31,4.31,0,0,1,.86.36c-1.42,0-.79,1.24-1.33,1.82.09-.77-.47-1.17-.76-1.71Z"/><path class="cls-5" d="M23.93,56.68c-.18.24-.46.85-1,.58s-1.33-.73-1.13-1.6c.13-.59.75-1.07,1.21-.82A1.49,1.49,0,0,1,23.93,56.68Z"/><path class="cls-5" d="M34,89.51c-.85-.13-1.33-.68-1-1.12A1.85,1.85,0,0,1,35,87.64c.94.26.73,1,.54,1.48C35.22,90,34.46,89.53,34,89.51Z"/><path class="cls-5" d="M38.41,61.67c-.32.4-.74.86-1.29.82s-.65-.76-1-1.15,0-.73.48-.9c.25-.1.46-.23.25-.55,0,0,.07-.23.15-.27A7.86,7.86,0,0,1,38.41,61.67Z"/><path class="cls-5" d="M21.9,34c-2.09.05-2.45-.82-2.37-1.86,0-.58.32-.69.84-.48A2.47,2.47,0,0,1,21.9,34Z"/><path class="cls-5" d="M8,79.65a.8.8,0,0,0-.08-.16c.44-.85.11-1.32-.75-1.55-.31-.08-.55-.25-.49-.61a.45.45,0,0,1,.25-.26c.43-.21.35.32.58.41.85.34,1.48,1.61,2.67.55.38-.35.41.22.57.4s.34.41-.06.57-.71.46-.9.37C9.08,79,8.6,79.61,8,79.65Z"/><path class="cls-5" d="M14,68.36a1.58,1.58,0,0,1-1.9.53c-.51-.11-1.23-.72-1-1.09a1.87,1.87,0,0,1,2-.6A1.11,1.11,0,0,1,14,68.36Z"/><path class="cls-5" d="M27,64.29l.36.66c0,.32,0,.74.15.94.46.52.59.94-.11,1.29s-1.15-.12-1.49-.68a1,1,0,0,1-.06-1C26.43,65.34,26.57,64.7,27,64.29Z"/><path class="cls-5" d="M9.19,34.79c1.23.46,1.76,1.67,3,1.85C10.47,38.26,10.39,38.21,9.19,34.79Z"/><path class="cls-5" d="M13.92,51.67c-.37-.73-1.35-.45-1.66-1.19-.19-.43-.78-.92-.19-1.3s1.09.33,1.66.45C13.57,50.29,14.41,50.79,13.92,51.67Z"/><path class="cls-5" d="M18.72,45.8c-.17.7-.57,1.21-.95,1s-1.15-.84-.95-1.6,1.06-.74,1.45-.64C18.93,44.7,18.68,45.47,18.72,45.8Z"/><path class="cls-5" d="M38.36,83.63c.79-.44,1.54.07,2.22-.31.22-.12.44.21.5.45s.16.56-.08.83a1.38,1.38,0,0,1-2-.35C38.85,84,38.48,84,38.36,83.63Z"/><path class="cls-5" d="M26,9.29C25.57,9,24.73,9,25,8.08c.18-.55.61-.47,1-.31s1.21.32,1,1.16C26.87,9.56,26.37,9.24,26,9.29Z"/><path class="cls-5" d="M25.77,74.23A6.12,6.12,0,0,1,27.71,77C25.57,76.48,25.51,76.39,25.77,74.23Z"/><path class="cls-5" d="M45.49,88.09c.57.32,1.74-.13,1.56,1.19,0,.09.13.22.23.28.26.16,1,0,.65.58s-.66.07-1-.13C46.1,89.59,45.11,89.43,45.49,88.09Z"/><path class="cls-5" d="M34.65,55.05c-.59-.14-1.1-.37-.95-1s.8-.54,1.28-.52a.88.88,0,0,1,.88,1C35.75,55.26,35,54.91,34.65,55.05Z"/><path class="cls-5" d="M20,63.59c-.4-.24-.38-.49-.49-.63-.29-.39-.79-.77-.34-1.25A2.09,2.09,0,0,1,21,61.32c.49,0,.69.41.15.75A2.35,2.35,0,0,0,20,63.59Z"/><path class="cls-5" d="M33.46,76.2c.31,0,.65.92,1,0,.09-.23.16-.51.48-.49s.28.27.31.48a.64.64,0,0,1-.47.78,8.94,8.94,0,0,1-1.62.25c-.29,0-.61,0-.75-.35s-.16-.4,0-.57A1,1,0,0,1,33.46,76.2Z"/><path class="cls-5" d="M20.05,19.35c-.24.37-.73.36-1.22.21-.75-.21-.69-1-.65-1.44s.78-.39,1.18-.26C20,18.05,20.28,18.52,20.05,19.35Z"/><path class="cls-5" d="M28.56,72.44c-.27-.16-.82-.26-.13-.78.17-.13,0-.28-.12-.4-.49-.37-.31-.73.09-1,.56-.41.59.26.83.45s.22.45.37.64a.79.79,0,0,1,0,1C29.36,72.76,29,72.45,28.56,72.44Z"/><path class="cls-5" d="M14.55,31.94c-.56-.57-2,.16-1.83-1,.08-.86,1-1.15,1.66-.37C14.57,30.85,14.24,31.47,14.55,31.94Z"/><path class="cls-5" d="M11.07,84.41c.09.09.22.17.26.27.25.62.53.78,1.07.23s.72,0,.84.33c.19.55-.22.36-.49.3s-.27.16-.39.25c-.28.19-.6.85-.84.47s-1-.78-1-1.43C10.55,84.53,10.77,84.4,11.07,84.41Z"/><path class="cls-5" d="M11.35,87.88c.67-.5,1.32-1,2-.21.29.33.37.69-.1,1C12.19,89.4,12.07,88,11.35,87.88Z"/><path class="cls-5" d="M4.85,80c-.73-.41-.65-1.16-.87-1.75s.33-.56.65-.74a.55.55,0,0,1,.77.12.5.5,0,0,1-.1.84C4.65,78.91,5.51,79.62,4.85,80Z"/><path class="cls-5" d="M17.62,24.69c-.61.08-1.09.42-1.64.44-.33,0-.75.2-.84-.25s-.15-.76.23-1,.56-.56,1-.18S17.2,24.37,17.62,24.69Z"/><path class="cls-5" d="M9.88,24.9a4.59,4.59,0,0,0,1.67-.4.4.4,0,0,1,.56.12.61.61,0,0,1,.06.6c-.15.41-.57.61-.85.88-.56.56-.42-.43-.76-.5s-.4-.08-.6-.12Z"/><path class="cls-5" d="M27,64.29c-.39.41-.53,1-1.15,1.25-.2-.38-1.12-.62-.71-1s.9-1.28,1.84-1Z"/><path class="cls-5" d="M17.15,87.09a6.55,6.55,0,0,1-1.45.06c-.61-.1-.51-.6-.32-1s.45-.88,1-.59S16.92,86.48,17.15,87.09Z"/><path class="cls-5" d="M40.69,71.15a.85.85,0,0,1-1.08.28.78.78,0,0,1-.47-1.12c.15-.41.51-.31.84-.16S40.85,70.51,40.69,71.15Z"/><path class="cls-5" d="M24.76,79.44a.26.26,0,0,1-.44.09C23.84,79,23,78.76,23,77.94c0-.28.28-.48.66-.35C24.49,77.89,24.71,78.57,24.76,79.44Z"/><path class="cls-5" d="M17.24,63c.55-.34,1.07-.85,1.69-.13-.53.41.34,1.27-.27,1.4C17.85,64.45,17.49,63.68,17.24,63Z"/><path class="cls-5" d="M30.3,52c-.38.69-1.08.13-1.61.34A.53.53,0,0,1,28,51.9c-.06-.53.78-.52.76-1.08a.59.59,0,0,1,.23,0c.24.19.14.34-.06.49s-.11.27,0,.39.26,0,.33-.16c.21-.4.5-.39.83-.16A.47.47,0,0,1,30.3,52Z"/><path class="cls-5" d="M33.18,92.49c.65.42,1.07.77.7,1.56-.14.32.09,1-.34,1-.63,0-.51-.62-.59-1.12A2.35,2.35,0,0,1,33.18,92.49Z"/><path class="cls-5" d="M28.18,83.37c.05.56-.35,1.27.5,1.65.3.13.13.56-.22.66-.77.22-.92-.62-1.39-.9s-.08-.64.32-.69S27.55,83.31,28.18,83.37Z"/><path class="cls-5" d="M9.88,24.9l.08.58c-.06.15-.18.32-.16.46.06.41.22.84-.28,1.07a1,1,0,0,1-1-.25c-.34-.37,0-.73.12-1.08.64.05,0,1.05.67.76.49-.2.37-.67-.1-1.07-.31-.26-.19-.71.27-.89S10,24.52,9.88,24.9Z"/><path class="cls-5" d="M22.45,79a1.43,1.43,0,0,1-1.37.41c-.7-.3.13-1.12-.42-1.53a.66.66,0,0,1,.9-.12C22,78.07,21.82,78.8,22.45,79Z"/><path class="cls-5" d="M20.62,55.15c.22.13.52.05.55.32s-.16.46-.38.4c-.69-.2.08,1-.69.68-.41-.15-.91-.28-.77-.81S20.1,55.09,20.62,55.15Z"/><path class="cls-5" d="M9.1,78.35c.22-1.67.56-1.95,1.84-1.78.22,0,.45.1.5.32a.27.27,0,0,1-.29.34C10.27,77.09,9.89,77.9,9.1,78.35Z"/><path class="cls-5" d="M38.33,87c.35.12.82.21.66.7s-.42.75-1,.55-.82-.38-.72-.89S37.9,86.92,38.33,87Z"/><path class="cls-5" d="M9.72,52.27c1.52-1.41,1.53.33,2.22.82C10.89,53.48,10.39,52.72,9.72,52.27Z"/><path class="cls-5" d="M32.61,45.9c-.21.28-.36.64-.78.52a.88.88,0,0,1-.6-1.09.57.57,0,0,1,.79-.41C32.53,45.08,32.53,45.51,32.61,45.9Z"/><path class="cls-5" d="M10.28,32.59l-.51.86c-.54.88-.51.86-1,.12a3.68,3.68,0,0,0-.85-.68C8.59,32.43,9.29,33.12,10.28,32.59Z"/><path class="cls-5" d="M7.75,88.05c.57.29,1,.65.83,1.26a.57.57,0,0,1-.83.32,1.37,1.37,0,0,1-.6-1.29C7.17,87.87,7.54,88.05,7.75,88.05Z"/><path class="cls-5" d="M5.14,62.91c-.12.31-.36.55-.57.41-.8-.52-.23-1.3-.28-2,0-.17.22-.53.34-.28A10.43,10.43,0,0,1,5.14,62.91Z"/><path class="cls-5" d="M44.34,74.18c0,.39-.17.54-.56.42-1-.3.15-1.13-.41-1.59-.09-.07.3-.39.56-.25C44.54,73.08,44.5,73.62,44.34,74.18Z"/><path class="cls-5" d="M16,16.92c-.11-.56-1.22-.45-1.05-1.32.06-.32.58-.29.61-.19.2.59,1.32.38,1.11,1.26C16.63,16.94,16.45,17.11,16,16.92Z"/><path class="cls-5" d="M21.58,29.42c1-.34,1.11.89,1.87.9a1,1,0,0,1-.33.83c-.33.2-.84.1-.77-.25C22.5,30.16,21.82,30,21.58,29.42Z"/><path class="cls-5" d="M35.54,74c-.33-.19-.67-.44-.63-.9s.27-.46.62-.31.82.48.81.94C36.34,74,35.9,74.08,35.54,74Z"/><path class="cls-5" d="M21.11,58.75c0,.52-.26.83-.54.7-.67-.32-.07-1.1-.46-1.56.19-.14.29-.48.59-.34A.84.84,0,0,1,21.11,58.75Z"/><path class="cls-5" d="M2.91,68.82c.46.25.73.53.56,1.11-.1.34-.23.8-.54.59a2.07,2.07,0,0,1-.62-1.22C2.26,69.06,2.55,68.79,2.91,68.82Z"/><path class="cls-5" d="M6.46,6.32c-.12.49-.26.72-.65.53s-.69-.4-.6-.82A.5.5,0,0,1,6,5.63C6.31,5.79,6.65,6,6.46,6.32Z"/><path class="cls-5" d="M33.26,62.64a.59.59,0,0,1-.73.27A.8.8,0,0,1,31.9,62c0-.33.2-.42.5-.32A1.27,1.27,0,0,1,33.26,62.64Z"/><path class="cls-5" d="M31.75,29.94c0,.49-.35.35-.42.27-.4-.43-1.31-.27-1.32-1.11,0-.3.21-.55.46-.4A3.19,3.19,0,0,1,31.75,29.94Z"/><path class="cls-5" d="M32.41,74.37c-.3-.09-.37-.29-.22-.48s.4-.88,1-.7c.31.1.6.33.47.62C33.46,74.36,32.86,74.26,32.41,74.37Z"/><path class="cls-5" d="M18.3,68.32c-.11.28,0,.73-.39.53s-.93-.47-.77-1.1a.49.49,0,0,1,.67-.37C18.39,67.54,18.51,67.89,18.3,68.32Z"/><path class="cls-5" d="M27.49,79.36c.26-.5,0-1.36.89-1.23.29,0,.7.22.66.49C28.93,79.56,27.91,78.84,27.49,79.36Z"/><path class="cls-5" d="M27.93,50.74c-.06-.61-1-.41-.68-1a1.13,1.13,0,0,1,1.19-.63c.25.06.54.19.37.49A10.07,10.07,0,0,1,27.93,50.74Z"/><path class="cls-5" d="M3.53,89.21c-.45.13-.61-.28-.89-.4s-.77-.37-.75-.87c0-.09.13-.18.21-.27.19.56,1.12,0,1.16.74C3.28,88.71,3.79,88.77,3.53,89.21Z"/><path class="cls-5" d="M7.34,94.05v.7c-.15.3-.19.81-.72.42A1.2,1.2,0,0,1,6,93.92c.15-.43.53,0,.81.08A1.32,1.32,0,0,0,7.34,94.05Z"/><path class="cls-5" d="M27,59c.76-.16,1.4-.41,1.72.28.23.5.43,1.32-.63.54Z"/><path class="cls-5" d="M7.46,90.14c.26.73.06,1.1-.73,1a2,2,0,0,1-.5,0c-.37-.15-.24.93-.73.28,0-.06.46-.71.75-.75C6.74,90.62,7,90.25,7.46,90.14Z"/><path class="cls-5" d="M8.91,73.4c.08-.6-1.14-1-.4-1.57.33-.29.69.12.93.38C10.12,72.94,9,73,8.91,73.4Z"/><path class="cls-5" d="M30,17.81c-.25.39-.61.27-1,.19s-.51-.4-.4-.74.44-.61.76-.42S30.16,17.26,30,17.81Z"/><path class="cls-5" d="M31.48,37.78a.58.58,0,0,1-.72.37.66.66,0,0,1-.5-.75c.07-.42.48-.44.8-.38S31.46,37.48,31.48,37.78Z"/><path class="cls-5" d="M44.16,90.32c.32.13.67.22.48.6s-.22.77-.78.55c-.34-.13-.65-.3-.55-.71S43.83,90.32,44.16,90.32Z"/><path class="cls-5" d="M30.89,73.28c-.52-.07-.77-.32-.69-.78s.39-.34.67-.19.87.25.68.86S31,73.1,30.89,73.28Z"/><path class="cls-5" d="M5.86,92.58a1.68,1.68,0,0,1-.48.19c-.24,0-.55-.16-.72-.07s-.51.62-.91.19a.51.51,0,0,1,0-.47c.25-.48.67-.15,1-.17S5.56,92,5.86,92.58Z"/><path class="cls-5" d="M33.92,30.6c.17.59.22,1,.55,1.21s.55.46.34.83c-.12.2-.38,0-.57,0-.42-.07-.74-.28-.69-.73A9,9,0,0,1,33.92,30.6Z"/><path class="cls-5" d="M40.39,89c-.24.74-.61.55-.92.49s-.61-.33-.47-.7a.67.67,0,0,1,.94-.36C40.26,88.53,40.44,88.85,40.39,89Z"/><path class="cls-5" d="M39.07,82.43c-.21.14-.34.29-.48.31-.29,0-.35-.18-.27-.4a.71.71,0,0,0-.23-1c-.2-.14-.29-.33-.05-.49s.58-.15.66.09C38.86,81.43,38.69,82,39.07,82.43Z"/><path class="cls-5" d="M10.4,40c0,.3-.21.25-.3.22-.5-.17-1.14.29-1.51-.33,0-.07.11-.34.22-.39A1.47,1.47,0,0,1,10.4,40Z"/><path class="cls-5" d="M32,33.09c.25.24.72.44.64.92a.4.4,0,0,1-.62.23c-.34-.22-.77-.46-.59-1C31.47,33.07,31.67,32.94,32,33.09Z"/><path class="cls-5" d="M15.27,20.74c.28,0,.46.06.5.24s-.08.22-.13.33c-1-.86-.53,1.34-1.43.68a.49.49,0,0,1-.05-.78C14.47,20.83,14.76,20.38,15.27,20.74Z"/><path class="cls-5" d="M29.93,89.49c-.56.36-.93-.79-1.55-.15-.08.08-.25-.3-.26-.48s.2-.16.34-.12C29,88.92,30,88.18,29.93,89.49Z"/><path class="cls-5" d="M4.06,82c-.5-.33-.16-.84-.28-1.26-.07-.22.36-.38.57-.21s.7.47.34.86C4.5,81.59,4.54,82.09,4.06,82Z"/><path class="cls-5" d="M42.93,62c-.09-.59.25-1.16-.18-1.7,0-.07.19-.45.36-.54s.39.12.38.34A3.33,3.33,0,0,1,42.93,62Z"/><path class="cls-5" d="M9.49,75.14c.3.07.56.17.47.5s-.53.49-.93.45-.45-.4-.4-.66C8.74,74.9,9.18,75.13,9.49,75.14Z"/><path class="cls-5" d="M36.13,30.55a2.25,2.25,0,0,1,.72,1.31c0,.14-.26.26-.4.11-.33-.34-1-.49-.79-1.16C35.71,30.59,35.81,30.41,36.13,30.55Z"/><path class="cls-5" d="M26.22,47.52c-.09.34-.2.66-.66.54-.3-.07-.6-.26-.47-.59a1,1,0,0,1,.85-.63C26.34,46.86,26.28,47.23,26.22,47.52Z"/><path class="cls-5" d="M20.4,77c-.28.07-.41-.08-.31-.32s.34-.71.8-.6.42.57.32.82S20.68,76.93,20.4,77Z"/><path class="cls-5" d="M97.42,69.21a1.38,1.38,0,0,1-.58.22c-.37,0-1.13.5-.06,1,.35.15.48.71.36,1.17s-.46.38-.8.34a.3.3,0,0,0-.24.14c-.31.59-.32.61-.91.36a2.37,2.37,0,0,0-2-.26,5.62,5.62,0,0,0,.38.49c.49.54.91,1.17,1.82.48.46-.34.88.2,1,.61a3,3,0,0,0,1.1,1.69Z"/><path class="cls-5" d="M86.42,34.23c-.22.31-.09.57-.07.84s0,.46,0,.69c.34,0,.65-.25,1-.09-.46,1-.53,1-1.22.43-.53-.47-1.67-.62-1.26-1.78,0-.06-.13-.23-.24-.27-.58-.24-.6-.28-.2-.86a2.77,2.77,0,0,1,.39-.54,1,1,0,0,0,.06-1.55l.82.59c.19-.29-.26-1.13.65-.67.21-.64,1.25-.76,1-1.68-.12-.53,0-1,.71-.91a1.27,1.27,0,0,1,1.18,1.19c0,.22-.13.3-.27.39-.37.24-.84.42-.21.92.17.15-.2.46-.28.39-.51-.52-1.1.23-1.61-.15-.09-.07-.55.83-.47,1.08s.2.4.06.56c-.49.57.06.74.34.59.55-.28.67.2.89.38a.77.77,0,0,1-.09.74c-.34.28-.7.06-1-.19A.67.67,0,0,0,86.42,34.23Z"/><path class="cls-5" d="M91.88,81c.22.3.82,0,.88.51s.41.46.57.7c.4-.13.14-.41.21-.6s.12-.49.38-.54.36.21.39.45c.09.51.86.45.88,1.09-.37-.15-.71-.27-.87.3s.17.56.49.67c.6.21.65,1,1.31,1.17v0c0,.28,0,.5-.37.26s-.56-.57-1-.27,0,.62,0,.93a1.28,1.28,0,0,1-.14.35h0a1.69,1.69,0,0,0-1-.28c-.31-.06-.9.38-.82-.42,0-.53-.72-.5-.69-1,0-.22.08-.47.3-.45.38,0,.55-.07.38-.42a1.67,1.67,0,0,0-.87-1c-.2-.06-.64.31-.55.61.25.82-.4,1-.85,1.25h0c-.43-.2-.5-.49-.23-.88s.36-.53.15-.82c-.55-.74,0-1,.55-1s.62-.29.84-.57Z"/><path class="cls-5" d="M94,12.81c-.71,0-.74.45-.45.93s.57.62.25,1.07l-.27.13c-.25,0-.35.14-.47.32a.43.43,0,0,1-.63.13c-.41-.27.14-.35.13-.53,0-.48.69-.9-.15-1.49s-.75.07-.74.33a4.73,4.73,0,0,0,0,1c.1.43,0,.73-.5.59s-.56.77-1.11.41v0c-.16-.56.19-1.35-.73-1.58.41-.28.26-.86.63-1.12.15-.1.32-.14.29-.34-.13-1,.31-.37.59-.21.31-.27-.4-.8,0-.79s1.15-.79,1.7.09c.21.34.64,1,1.17.19a.36.36,0,0,1,.55,0,.57.57,0,0,1,.12.81Z"/><path class="cls-5" d="M93,35.91c.68.25.68.25,2-.71,0-.31-.36-.23-.5-.42s-.31-.37-.16-.61a.49.49,0,0,1,.31-.21.42.42,0,0,1,.39.41c0,.63.65.45,1,.68s.29.13.12.53.11.7.24,1,.42.63,0,.8c-.72.32-.2-.53-.56-.62s-.15.29-.22.44-.14.4-.41.32S95,37.4,95,37.19s.18-.36-.18-.37c-.18,0-.33,0-.39.17-.24.84-1.18.83-1.73,1.33-.4.37-.82-.55-1.51-.89.5-.07,1,.18.89-.5,0-.39.54-.73.92-1Z"/><path class="cls-5" d="M83.11,31.74c.61-.21.54-.63.3-1.25a10.07,10.07,0,0,0,.9.75c.59.39.37.61-.14.81-.11,0-.22-.18-.32,0-.33.67-.53.66-1.15,0-.16-.19-.27-.52-.61-.41s-.19.41-.23.62c-.07.42,0,.42.82.17-.08.38-.52.69-.19,1.09.12.15.09.32-.14.39s-.3,0-.33-.3c-.08-.64-.47-.79-1.1-.65-.42.09-.85,0-.56-.63s.13-1.49,1.17-1.53c0,0,.16-.3.12-.34-.52-.55-.25-.77.33-1s.42.69.91.65C82.6,30.73,83.44,31.13,83.11,31.74Z"/><path class="cls-5" d="M97.42,8.78a.49.49,0,0,1-.19,0c-.35-.2-.77-.57-.67-.93.34-1.26-.51-1.87-1.31-2.6-.19.81-.64,1.55.34,2.17.14.09-.08.71.53.46.09,0,.27.18.14.29-.36.29-.32.46.13.49s.42,1,1,.83Z"/><path class="cls-5" d="M97.42,48.63a2,2,0,0,1-1.81-.21c.62.55-.23,1.18.16,1.72-.39.15-1.1-.4-1.07.49,0,.74.44.77,1.14.79s.68-.69,1.27-.79a.69.69,0,0,0,.31-.15Z"/><path class="cls-5" d="M97.42,64.57a.84.84,0,0,0-.92.15c-.42.33-.2.64.14.91.14.11.38.21.24.48-.27,0-.6.1-.73-.18a1.07,1.07,0,0,0-.62-.63c-.55-.19-1.21-.29-.72-1.13.08-.13,0-.26-.2-.28a.4.4,0,0,0-.23.12,1.52,1.52,0,0,0,.17,2.28,5.89,5.89,0,0,0,1.8.88c.32,0,.69-.53,1.07-.79h0Z"/><path class="cls-5" d="M97.42,21.85c-.18-.18-.58-.17-.85-.22s-.92,0-.81.45c.18.76-.27,1.14-.64,1.62-.19.25-.51.54-.15.88a.81.81,0,0,0,.94.17c.54-.21.07-.59.18-.87.35-.05.55.65,1,.21.17-.19.29-.24.37-.2Z"/><path class="cls-5" d="M93.46,47.11c-.2.23-.59,0-.79.35-.08.15-.56.27-.61.2-.53-.66-1.62-.51-2-1.37-.19-.43,0-.76.14-1.13.44.44.73-.47,1.3,0C92.8,46.06,92.85,46,93.46,47.11Z"/><path class="cls-5" d="M93,35.91c-.07,0-.16-.09-.19-.07-1.18.72-1.49-.47-2.13-.93-.11-.08-.15-.27-.26-.31-1.24-.54-.52-1.39-.36-2.15,0-.22.26-.16.42-.1s.45-.05.33.31c-.06.17-.18.49.18.33s.44-.34.63,0,0,.41-.21.58c-.41.33,0,.26.18.4s.24.45.34.7,0,.73.53.19c.22-.22.46.57.51,1Z"/><path class="cls-5" d="M83.93,10.1l-.3,0c-.13,0-.29.21-.42-.06-.27-.57-.1-1.44-1.09-1.55-.15,0-.27-.44,0-.41,1,.11.29-.83.71-1.17.19-.15-.52-.32-.85-.43v.06c.12-.48-.63-.4-.57-.83,0-.27-.31-.63.09-.81s.61.26.64.37c.22.72.49,1.21,1.42,1.13.36,0,.37,1.18-.09,1.32-.75.24-.28.67-.1.76C84.13,8.91,84,9.5,83.93,10.1Z"/><path class="cls-5" d="M90.81,39.61c.28.66,0,1.54,1.06,1,.16-.1.39,0,.49.25s-.11.36-.19.53a.37.37,0,0,1-.58.21c-.44-.24-.88-.49-1.31-.77-.19-.13-.4-.42-.08-.55.73-.3.22-1.05.63-1.48.11-.12-.09-.32-.36-.33S90,38.3,90.18,38s.18-.54.55-.51c.16,0,.44.07.31.26-.45.67,0,.57.47.72A.88.88,0,0,1,92,39.73C91.72,40.5,91.33,40,90.81,39.61Z"/><path class="cls-5" d="M93.9,68c.16.28.27.53.14.77-.25.46-.23.75.38.79.26,0,.33.14.33.39s-.18.29-.4.31-.73.15-1.1.19-.85.1-.14.49c.16.08.12.27,0,.41s-.51.28-.58,0c-.14-.52-1-.65-.8-1.18s.82-.83,1.4-1S93.64,68.39,93.9,68Z"/><path class="cls-5" d="M93.55,14.94l.27-.13c.37.14.94,0,.91.73a.68.68,0,0,0,.82.5c.52-.14.75.18.92.58.1.23.44.44.22.71s-.62-.36-.92,0l-.09-.05c-.4-.39-.4-.39-.69.21-.66-.31-1.3-.62-.86-1.54.15-.3-.15-.42-.37-.49S93.44,15.19,93.55,14.94Z"/><path class="cls-5" d="M92.56,62.82l.38-.83.82.32a3.34,3.34,0,0,0-1.37-2.46c-.15-.12-.51-.42-.18-.66a.55.55,0,0,1,.84.27c.06.52.55.64.7,1s.27.48.68.23.8.1,1,.44-.19.46-.37.61-.51-.6-.59-.15C94.3,62.76,93.35,62.52,92.56,62.82Z"/><path class="cls-5" d="M94.89,29.78c-.31-.39-.62-.77-.92-1.16s-.07-.65.13-.92.53-.11.7.06c.39.4.8-.06,1.12.06s.6.5,1,.83c-.77,0-.89.57-.93,1.13-.54-.12-.25-1.1-1-.84C94.5,29.1,95.23,29.43,94.89,29.78Z"/><path class="cls-5" d="M94,12.81l.38-.06c.47,0,1.1.42,1.06-.59,0-.31.43-.64.73-1.05A2.28,2.28,0,0,0,97,12.56c.16.09.22.31,0,.5a2.21,2.21,0,0,1-3,0S94,12.91,94,12.81Z"/><path class="cls-5" d="M92.71,7.78c-.17-.2-.43-.37-.49-.7s-.5-.5-.1-.78a.67.67,0,0,1,1,.29,3.44,3.44,0,0,0,1,1.21c.16.12.4.54-.21.39l-.26,0c.23.26.19.78,0,.67a5.24,5.24,0,0,0-1.31-.23A.39.39,0,0,1,92,8.11C92.05,7.65,92.48,8.08,92.71,7.78Z"/><path class="cls-5" d="M95.16,20.13c-.32-.35-.72-.3-.82-.65-.06-.19-.17-.41,0-.56a.54.54,0,0,1,.47-.05c.54.17,1.07.37,1.6.58s.72.72.29,1.18c-.18.19-.16.68-.57.56s-.23-.39-.24-.66C95.86,20.09,95.26,20.29,95.16,20.13Z"/><path class="cls-5" d="M91.05,26c-.39-.13-.25-.46-.14-.47.94-.11.91-1.35,1.82-1.5.14,0,.35-.21.39,0a3.27,3.27,0,0,1,.14,1.44.67.67,0,0,1-1,.31C91.67,25.32,91.48,26.33,91.05,26Z"/><path class="cls-5" d="M88,36.31c.82-.15,1.55-.22,1.18-1.26-.13-.34.23-.42.46-.55s.31,0,.42.11.23.54,0,.75c-.64.53-.56.9.17,1.26.17.08.49.57,0,.53A2.66,2.66,0,0,1,88,36.31Z"/><path class="cls-5" d="M91.37,47.94c.2.26.61.37.35.87-.42.82,0,1.16.84,1.28.22,0,.54,0,.68.28s-.14.46-.28.59-.46-.05-.61-.24-.54-.13-.82,0c-.63.21-.87-.24-.61-.6A4,4,0,0,0,91.37,47.94Z"/><path class="cls-5" d="M92.79,61.4a1.66,1.66,0,0,0-.92.86c-.17.29-.49.54-.83.32s-.13-.47.07-.73c.35-.46.18-1,0-1.72Z"/><path class="cls-5" d="M95.25,80.05c-1,.85-1.61-.61-2.51-.49,0,0-.11-.49.21-.52.52-.05,1.21-.63,1.48.4C94.51,79.76,95.11,79.56,95.25,80.05Z"/><path class="cls-5" d="M89.85,30.91a.71.71,0,0,1,.24-.83c.25-.18.4-.43,0-.71a.38.38,0,0,1-.06-.62.52.52,0,0,1,.66-.1c.33.23.94.35.91.7s-.49.67-.85.86A3.93,3.93,0,0,0,89.85,30.91Z"/><path class="cls-5" d="M93.36,31.15a.93.93,0,0,1,1,1,2.07,2.07,0,0,1-.62,1.64c-.12.11-.36,0-.35,0,.42-.54-.56-1.19.13-1.69S93.2,31.53,93.36,31.15Z"/><path class="cls-5" d="M93.8,21.05c.36.72.46,1.44,1.37,1.43-.46.11-.54.46-.74.72a.65.65,0,0,1-.89.23c-.4-.21-.07-.44,0-.66C93.61,22.26,93.68,21.76,93.8,21.05Z"/><path class="cls-5" d="M86.65,37.41l-.09.84c-.5-.29-.92,0-1.35.17,0,0-.07,0-.08-.05-.09-.48.47-.8.36-1.31a.69.69,0,0,1,.63-.42c.48.07.45.49.54.83Z"/><path class="cls-5" d="M78.65,6.73c.08.07.12.08.13.11.1.24.31.69.11.69-.66,0-.63,1.2-1.44.75a.3.3,0,0,1-.06-.45c.32-.25.28-.5.3-.88S78.36,6.93,78.65,6.73Z"/><path class="cls-5" d="M96.65,59.21c-.27.45-.65.36-1,.19s-.73-.64-.5-1.06.73-.13,1.08,0A.61.61,0,0,1,96.65,59.21Z"/><path class="cls-5" d="M87.78,32.18c.32-.22.43-.81.93-.41s.46.77,0,1-.36.89-.83.48A.78.78,0,0,1,87.78,32.18Z"/><path class="cls-5" d="M91.53,5.14c-.26.38-.85.69-.15,1,.51.24.08.48,0,.61s-.39.19-.61,0a.88.88,0,0,1,0-1.54A.85.85,0,0,1,91.53,5.14Z"/><path class="cls-5" d="M96.75,81.77c-.43.43-.93-.32-1.27.19a3,3,0,0,1-.09-1.07.56.56,0,0,1,.77-.28C96.72,80.84,96.41,81.46,96.75,81.77Z"/><path class="cls-5" d="M95.34,8.62c.33.1.14.68.63.64.14,0,.2.14.07.27-.3.29-1.07.29-.63,1.05,0,.1-.28,0-.39-.06s-.54.3-.65-.14c0-.19-.06-.44.19-.52C95.18,9.67,95.25,9.14,95.34,8.62Z"/><path class="cls-5" d="M89.7,25.21c-.39-.23-.79-.46-1.18-.71a.47.47,0,0,1-.13-.7c.12-.24.33-.12.52,0C89.45,24.08,90.42,24.1,89.7,25.21Z"/><path class="cls-5" d="M86.63,29.55c-1.22,1-1.29-.41-1.85-.76-.14-.08-.12-.36.15-.46s.67,0,.72.31C85.74,29.2,86.11,29.41,86.63,29.55Z"/><path class="cls-5" d="M94.77,44a4,4,0,0,0-.62-.71c-.3-.19-.24-.32-.06-.56s.36-.16.57,0c.39.29.42.85.89,1.07.08,0,0,.2,0,.16C95.28,43.54,94.88,44.53,94.77,44Z"/><path class="cls-5" d="M78.74,9.67a.43.43,0,0,0-.18-.43c-.39-.29-.33-.61,0-.94s.45-.22.7,0a.69.69,0,0,1,.09,1,.77.77,0,0,1-.58.35Z"/><path class="cls-5" d="M90.67,18.74c-.13.2-.39.22-.42.07-.1-.5-1.21.24-.85-.7a.46.46,0,0,1,.64-.33C90.49,18,90.55,18.36,90.67,18.74Z"/><path class="cls-5" d="M96.16,84.31c-.69-.52-.26-.81.24-1s.66.1.74.45-.22.5-.51.42a.45.45,0,0,0-.52.16Z"/><path class="cls-5" d="M82.51,4.84c1-1,1.1.63,1.8.39C83.94,5.48,83.94,5.48,82.51,4.84Z"/><path class="cls-5" d="M95.16,53.34c.08.09.44,0,.32.32a.39.39,0,0,1-.51.17c-.33-.39-.78.15-1-.16S93.75,53,94,53A1.37,1.37,0,0,1,95.16,53.34Z"/><path class="cls-5" d="M89.93,63.26c-.78.19-1.28.18-1.65-.3a.23.23,0,0,1,.14-.39C89,62.42,89.36,62.87,89.93,63.26Z"/><path class="cls-5" d="M92.43,16.16c-.08.29-.11.71-.42.74s-.51-.52-1-.5c-.07,0,0-.35.17-.38s.37-.45.69-.2c.16.13.16.5.51.36Z"/><path class="cls-5" d="M97.1,31.6c.35.23.19.55.1.79s-.45.44-.53.19-.83-.58-.49-1.06S96.77,31.73,97.1,31.6Z"/><path class="cls-5" d="M87.17,42.38c-.23.18-.48.3-.7,0s-.4-.41-.2-.69a.56.56,0,0,1,.79-.15A.65.65,0,0,1,87.17,42.38Z"/><path class="cls-5" d="M92.42,16.18c.51-.26.93-.19.77.46a1.17,1.17,0,0,0,.12,1c-.76-.27-.68-.94-.89-1.46Z"/><path class="cls-5" d="M88.48,45.15c.2,0,.46-.06.59,0a.68.68,0,0,1,.17.9c0,.1-.1.32-.27.16s-.68-.32-.28-.77c.14-.15,0-.31-.21-.33Z"/><path class="cls-5" d="M89.1,28.35c0-.44-.47-.88-.1-1.21s.4.23.54.37C90.09,28.05,89.09,28,89.1,28.35Z"/><path class="cls-5" d="M82.25,73c0-.84.24-1.34,1.26-1,.47.16,1-.35,1.54.11.34.31.41.43-.06.72-.63.38-1.43.2-2,.7-.17.14-.51-.3-.69-.57Z"/></g><polygon class="cls-6" points="25.84 68.49 23.64 74.01 77.11 73.33 77.69 66.39 25.84 68.49"/><polygon class="cls-6" points="63.04 32.65 36.55 33.22 39.74 27.37 58.01 26.1 63.04 32.65"/><path class="cls-6" d="M24.91,38l4.82,24.73,42.57.93,1.32-28.18ZM61.58,52.63a6.7,6.7,0,0,1-.71,2.16c-1.54,2.91-5.36,4.19-8.34,4.7a10.81,10.81,0,0,1-8.68-2,11.42,11.42,0,0,1-2.44-2.74,11.22,11.22,0,0,1-1.74-6.94c.66-6.81,10-8.94,15.22-7.33C59.61,41.92,62.38,47.78,61.58,52.63Z"/><path class="cls-6" d="M55.26,45.72a6.21,6.21,0,0,0-3.89-2.16c-1.82-.18-3.84.84-5.33,1.84a4.25,4.25,0,0,0-2,4,7.55,7.55,0,0,0,4.11,6.36c2.94,1.25,6.73-.36,8.42-3C58.07,50.44,56.94,47.65,55.26,45.72Z"/></g></svg>