<svg id="b" data-name="Capa_2" xmlns="http://www.w3.org/2000/svg" width="200" height="254.287" xmlns:xlink="http://www.w3.org/1999/xlink" viewBox="0 0 200 254.287"><defs><clipPath id="d"><path d="M25.931 117.379s10.846 21.696 16.547 30.021c5.706 8.325 25.596 28.831 25.596 28.831s0 36.849 0.923 38.238 3.086 4.932 4.624 5.09c1.543 0.154 83.874 -9.095 85.417 -11.257 1.543 -2.158 2.312 -22.818 0.923 -24.515s-7.095 -2.774 -7.095 -2.774 -0.213 -8.991 -1.543 -9.714 -77.399 -0.154 -78.481 -0.923 -42.093 -54.581 -43.016 -54.889 -3.905 1.896 -3.905 1.896Z" fill="#d4a955"/></clipPath></defs><g id="c" data-name="Layer_6"><g><path d="M60.825 194.579c-2.004 0.308 -1.851 8.674 -1.851 8.674s0.769 32.958 0.308 34.808c-12.027 1.389 -15.108 4.778 -14.646 5.706s13.171 -0.615 13.171 -0.615 -7.778 5.398 -6.868 6.936c0.905 1.543 10.886 -6.013 10.886 -6.013s-0.385 7.556 0.851 7.71 2.004 -6.629 2.004 -8.787 -1.851 -48.722 -3.855 -48.414Z" fill="#f1dc35"/><path d="M90.43 238.062s-6.321 -42.093 -8.633 -41.328 1.928 24.37 1.928 24.37l1.62 19.429s-11.257 4.317 -10.484 6.013c0.769 1.697 10.723 -2.466 10.723 -2.466s-7.488 8.633 -6.561 10.022c2.004 1.697 10.022 -8.325 10.022 -8.325s0.308 6.475 1.389 7.556c3.855 0.308 0 -15.266 0 -15.266Z" fill="#f1dc35"/></g><path d="M167.811 122.583c11.099 1.733 17.348 3.534 17.692 6.624 0.348 3.09 -9.018 15.14 -29.836 9.633 7.977 2.475 16.651 9.067 14.569 11.149s-4.855 7.629 -14.569 7.629c0.692 3.47 1.389 4.855 -3.47 10.407 -4.855 5.552 -29.139 34.691 -36.772 36.424s-77.01 -1.946 -86.032 -31.845c-3.814 -14.637 -6.936 -90.267 -6.936 -102.054 0 0 -0.023 -1.701 -0.027 -4.52v-1.271c0.005 -13.977 0.462 -48.613 4.887 -51.102 5.552 -3.122 16.651 -10.058 25.325 -3.122 0.407 1.05 0.778 4.104 1.109 8.461 0.294 3.887 0.561 8.801 0.796 14.253 1.077 24.759 1.561 60.54 1.561 60.54l63.137 6.968s6.936 -33.465 11.099 -33.225c2.43 2.321 2.774 9.633 2.774 9.633s5.203 -17.719 9.018 -17.375c2.43 1.041 1.733 17.375 1.733 17.375s5.896 -25.7 13.18 -25.7c3.122 2.081 -3.122 51.69 -3.122 51.69s43.36 3.122 43.708 8.325 -10.407 12.488 -29.831 11.099Z" fill="#3098a5"/><path d="M34.885 31.288c1.511 2.552 4.887 3.145 7.837 3.403 3.683 0.317 7.457 0.507 11.022 -0.466 1.742 -0.475 3.489 -1.29 4.552 -2.756 1.335 -1.846 1.027 -4.199 -0.742 -5.597 -1.122 -0.887 -2.299 -0.914 -3.697 -1.027 -3.068 -0.258 -6.163 -0.33 -9.239 -0.163 -3.303 0.181 -13.054 1.009 -9.737 6.611Z" fill="#f2f5ee"/><path d="M42.813 23.488c-3.728 0 -3.439 5.443 -3.163 7.936 0.335 3.05 3.33 4.253 5.511 1.805 2.217 -2.484 2.109 -9.742 -2.348 -9.742" fill="#005662"/><path points="52.65 60.35 8.69 78.72 50.75 87.58 52.65 60.35" fill="#f1dc35" d="M23.822 27.306L3.932 35.618L22.963 39.627L23.822 27.306Z"/><g><path d="M95.711 147.025c3.308 -0.462 6.62 -0.928 9.914 -1.461 3.95 -0.643 9.393 -2.425 8.081 -7.624 -0.561 -2.213 -2.013 -3.611 -3.819 -4.525 4.498 -0.67 9.262 -2.068 11.343 -5.172 2.633 -3.936 -0.172 -6.678 -3.633 -8.203 5.027 -0.937 10.131 -3.222 10.226 -8.936 0.14 -8.239 -10.113 -8.687 -15.936 -8.049 5.063 -0.086 14.773 0.357 14.705 7.638 -0.027 2.864 -2.226 5.199 -4.656 6.411 -1.321 0.661 -2.774 1.004 -4.231 1.222 -1.253 0.19 -4.258 -0.249 -5.28 0.344 -1.566 0.914 -0.973 1.461 0.081 1.814 0 0.045 0 0.09 -0.005 0.136 0.127 -0.009 0.253 -0.014 0.385 -0.023 0.864 0.235 1.882 0.371 2.317 0.475 1.914 0.475 4.38 1.584 4.697 3.832 0.656 4.651 -8.633 5.796 -11.665 6.28 -1.33 0.213 -6.086 -0.231 -6.004 1.846 0.059 1.48 5.036 1.584 6.203 2.131 3.977 1.873 4.33 5.982 0.136 7.615 -3.38 1.317 -7.366 1.493 -10.95 2.127 -1.48 0.262 -5.136 0.19 -6.339 1.122 -0.973 0.756 -0.575 1.199 0.276 1.502v0.086l0.176 -0.027c1.176 0.366 3.013 0.52 3.529 0.814 1.661 0.955 2.385 2.765 0.887 4.203 -1.724 1.656 -5.353 1.67 -7.561 1.846 -2.855 0.226 -5.733 0.14 -8.574 -0.244 4.466 1.023 11.742 2.045 16.008 -0.222 2.172 -1.154 2.991 -3.389 1.421 -5.525 -0.466 -0.638 -1.063 -1.095 -1.728 -1.434Z" fill="#206b76"/><path d="M140.781 138.89q-0.448 -0.502 -0.95 -0.896c4.615 -0.719 9.221 -2.253 10.832 -6.004 1.036 -2.412 0.131 -5.176 -1.597 -7.027 -1.285 -1.376 -2.9 -2.145 -4.638 -2.57 2.339 -0.765 4.642 -1.638 6.896 -2.629 2.389 -1.054 6.923 -2.656 6.244 -6.104 -1.158 -5.887 -13.891 -6.059 -18.108 -5.507 3.412 -0.09 6.814 0.326 10.067 1.371 1.878 0.606 6.452 1.878 6.715 4.375 0.285 2.746 -4.66 3.909 -6.534 4.606 -3.484 1.294 -7.045 2.081 -10.583 3.149 -0.208 0.063 -0.448 0.131 -0.688 0.208h-0.154c0 0.018 0 0.032 0.005 0.05 -0.851 0.303 -1.597 0.774 -0.819 1.81 0.52 0.692 2.33 0.421 3.013 0.471 2.588 0.19 5.534 0.656 7.149 2.932 3.765 5.312 -4.855 7.384 -8.443 8.027 -1.661 0.299 -8.144 -0.014 -8.859 1.543 -0.611 1.326 0.213 1.828 1.312 2.023v0.041c0.054 0 0.109 -0.009 0.163 -0.014 1.014 0.149 2.213 0.072 2.765 0.145 2.267 0.299 5.715 1.683 5.004 4.606 -0.48 1.973 -3.099 3.118 -4.728 3.896 -2.434 1.158 -5.036 1.959 -7.692 2.403 -0.928 0.154 -6.656 -0.262 -5.755 2.004 0.457 1.149 3.036 0.973 4.031 1.231 1.511 0.389 3.022 0.973 4.045 2.217 0.774 0.946 1.217 2.072 0.964 3.289 -0.67 3.24 -5.271 4.43 -7.991 5.199 -6.262 1.774 -12.877 2.104 -19.298 1.072 7.706 2.023 18.135 2.28 25.334 -1.647 2.873 -1.566 4.909 -4.384 3.484 -7.728 -0.665 -1.556 -1.796 -2.624 -3.145 -3.389 4.289 -0.701 8.665 -2.249 11.547 -5 2.407 -2.303 2.656 -5.638 0.425 -8.167Z" fill="#206b76"/><path d="M199.932 110.99c-0.842 -5.344 -10.09 -4.556 -14.28 -4.896 -4.226 -0.344 -8.457 -0.683 -12.687 -1.009 -9.122 -0.697 -18.239 -1.376 -27.365 -2.018q-2.851 -0.204 -5.701 -0.394c2.484 -8.362 3.891 -17.035 5.968 -25.506 2.136 -8.719 5.131 -16.918 8.515 -25.207 -11.701 13.407 -15.271 33.32 -14.692 50.695 -6.792 -0.462 -13.583 -0.891 -20.379 -1.262 2.032 -5.212 3.579 -10.638 5.307 -15.959 1.756 -5.412 3.896 -10.846 5.176 -16.388 -7.515 8.077 -11.846 21.347 -10.683 32.338 -2.24 -0.122 -4.479 -0.24 -6.719 -0.348 23.632 3.199 47.364 5.728 71.087 8.158 2.267 0.231 12.972 0.262 12.877 2.792 -0.081 2.181 -4.212 3.298 -5.76 3.9 -3.045 1.19 -6.199 2.14 -9.398 2.819 -2.801 0.593 -5.651 0.977 -8.506 1.163 -1.629 0.109 -5.927 -0.756 -6.669 1.308 -1.077 3.013 9.054 5.353 11.361 6.221 1.348 0.507 3.276 0.946 4.222 2.077 1.751 2.086 -0.638 3.936 -2.461 4.751 -2.832 1.262 -6.154 1.941 -9.167 2.493a64.431 64.431 0 0 1 -10.162 1.027c-1.493 0.032 -6.321 -1.05 -7.199 0.566 -1.394 2.575 4.923 3.194 6.258 3.366 2.837 0.366 5.597 0.629 7.678 2.828 5.393 5.701 -1.624 9.574 -6.823 10.271 -6.258 0.842 -12.601 1.032 -18.909 0.833 3.099 0.38 6.226 0.357 9.325 0.683 1.783 0.186 3.909 1.149 3.977 3.308 0.122 4.004 -5.181 7.963 -6.461 11.678 4.289 -1.747 14.633 -10.927 7.086 -14.968 4.493 -0.081 11.203 0.217 14.339 -3.814 3.249 -4.172 0.086 -9.972 -4.163 -11.972 5.534 -0.38 16.556 -1.131 19.872 -6.525 3.814 -6.208 -3.697 -9.036 -8.244 -10.782 5.321 -0.656 10.556 -2.004 15.533 -4.013 3.484 -1.407 8.565 -3.493 7.841 -8.217Z" fill="#206b76"/><path d="M127.696 101.846c2.692 -6.932 4.633 -14.221 6.846 -21.32 2.217 -7.099 4.764 -14.194 6.506 -21.429 -8.62 11.814 -13.732 28.13 -13.357 42.749Z" fill="#206b76"/><path d="M37.225 139.618c-0.81 2.846 -1.434 5.751 -1.995 8.656 -0.235 1.231 -0.29 4.176 -1.683 4.629 -3.869 1.253 -4.927 -11.285 -5.027 -13.325 -0.643 3.086 -0.882 16.574 5.298 14.904 4.036 -1.09 3.344 -11.882 3.407 -14.868Z" fill="#206b76"/><path d="M51.559 162.115c1.416 2.063 2.973 7.832 0.009 9.47 -2.516 1.389 -3.724 -0.819 -4.271 -3.14 0.068 -2.353 -0.213 -4.262 -1.208 -4.244 -0.285 0.005 -0.489 0.339 -0.593 0.869 -0.068 0 -0.14 0.005 -0.208 0.009 0.027 0.317 0.072 0.728 0.127 1.213 0.014 0.452 0.063 0.946 0.154 1.461 0.339 3.47 0.566 8.552 -1.801 9.76 -4.479 2.289 -3.896 -5.719 -3.507 -7.534 -1 2.421 -1.982 5.638 0.195 7.742 1.832 1.769 4.28 1.357 5.479 -0.796 0.317 -0.566 0.823 -2.914 1.122 -5.439 0.941 1.276 2.308 2.059 4.167 1.552 4.57 -1.24 2.633 -8.606 0.33 -10.923Z" fill="#206b76"/><path d="M59.282 159.803c-3.127 -13.217 -6.226 -26.433 -9.289 -39.663 0.416 13.407 3.697 27.465 9.289 39.663" fill="#206b76"/><path d="M57.549 188.403c-0.991 0.054 -2.656 -2.312 -3.05 -2.832 -1.556 -2.05 -2.724 -4.362 -3.561 -6.787 0.104 2.991 2.638 11.873 7.095 11.239 4.412 -0.624 0.009 -11.208 -0.823 -13.606 0.054 1.584 2.032 11.891 0.339 11.986" fill="#206b76"/><path d="M49.179 48.898c2.62 -4.869 4.244 -10.253 5.366 -15.646 0.507 -2.43 0.909 -4.873 1.253 -7.33q0.278 -2.002 0.516 -4.018c0.14 -1.163 0.964 -3.76 0.529 -4.76 -0.57 -1.308 -1.968 -1.525 -2.819 -0.394s-0.647 5.538 -0.842 7.04c-0.638 4.959 -1.471 9.909 -2.909 14.705 -2.611 8.715 -7.366 16.836 -15.235 21.768 -2.321 1.457 -4.918 2.651 -7.538 3.448 -0.941 0.285 -4.294 0.348 -4.918 1.027 -1.683 1.828 2.982 1.502 3.633 1.466 10.009 -0.516 18.556 -8.873 22.967 -17.311Z" fill="#206b76"/></g><g><path d="M98.226 101.57c1.67 0.407 3.339 0.819 5.009 1.231 1.642 0.403 3.615 0.728 4.823 -0.457 -1.796 -4.298 -3.588 -8.592 -5.38 -12.891 -0.231 -0.543 -0.611 -1.19 -1.199 -1.127 -0.29 0.032 -0.529 0.24 -0.742 0.439 -2.249 2.095 -4.285 4.412 -6.068 6.914 -0.81 -0.964 -2.357 -1.204 -3.421 -0.529s-1.511 2.172 -0.986 3.317c-2.194 -2.099 -4.416 -4.222 -7.036 -5.76 -0.557 -0.326 -1.172 -0.633 -1.81 -0.552s-1.235 0.733 -1.023 1.339l-0.371 2.145c0.018 -0.394 0.032 -0.792 0.05 -1.185 -0.751 4.38 -1.131 8.819 -1.145 13.266 4.905 -1.389 8.828 -5.303 13.778 -6.511 -0.434 0.109 -1.158 4.217 -1.353 4.783 -0.516 1.484 -1.041 2.946 -1.493 4.466 2.013 0.575 4.122 0.814 6.212 0.701 -0.394 0 -1.697 -8.873 -1.81 -9.724 0.968 2.253 2.878 3.932 4.407 5.85 2.063 2.593 3.448 5.651 4.805 8.674 1.235 -0.941 2.308 -2.104 3.131 -3.425 0.127 -0.199 0.249 -0.407 0.262 -0.647 0.014 -0.231 -0.081 -0.452 -0.176 -0.665 -1.778 -3.964 -4.769 -7.375 -8.47 -9.651Zm-14.597 0.104c-0.068 -1.765 0.081 -3.538 0.457 -5.267 0.086 -0.403 3.923 2.294 4.28 2.403 -1.466 1.081 -3.108 2.041 -4.737 2.864m18.438 -7.325c0.059 -0.027 0.122 -0.05 0.181 -0.072 -0.136 0.05 1.118 3.475 1.24 3.701 -1.937 -0.385 -3.683 -0.498 -5.66 -0.502 1.24 -1.009 2.742 -2.511 4.235 -3.127Z" fill="#b93263"/><path d="M88.924 121.189s5.203 -1.502 5.552 -3.122 -8.212 -10.058 -9.253 -10.013c-1.041 0.05 -4.05 8.742 -4.393 9.552s-4.624 0.462 -10.407 0.692 -4.742 4.05 -4.742 4.05 -0.118 6.936 2.43 7.864c2.543 0.923 8.325 -4.973 8.325 -4.973l-2.312 14.348s6.362 -1.511 7.054 -2.683c0.692 -1.176 0.552 -13.511 0.552 -13.511s10.665 7.402 11.579 7.402 4.869 -5.783 4.525 -6.706 -8.905 -2.891 -8.905 -2.891Zm-18.501 3.932 -0.52 -3.932h5.203zm15.497 -12.778 3.76 3.991 -5.896 0.403 2.14 -4.393Z" fill="#b93263"/></g><path points="0 46 181.97 40.89 90.98 0 0 46" fill="#d4a955" d="M0 20.814L82.336 18.501L41.166 0L0 20.814Z"/><g><path d="M25.931 117.379s10.846 21.696 16.547 30.021c5.706 8.325 25.596 28.831 25.596 28.831s0 36.849 0.923 38.238 3.086 4.932 4.624 5.09c1.543 0.154 83.874 -9.095 85.417 -11.257 1.543 -2.158 2.312 -22.818 0.923 -24.515s-7.095 -2.774 -7.095 -2.774 -0.213 -8.991 -1.543 -9.714 -77.399 -0.154 -78.481 -0.923 -42.093 -54.581 -43.016 -54.889 -3.905 1.896 -3.905 1.896Z" fill="#d4a955"/><g clip-path="url(#d)"><g><path d="M152.002 169.807c-5.787 5.529 -9.8 13.049 -14.479 19.583 -0.014 -0.077 -0.027 -0.145 -0.036 -0.195 -1.606 0.312 -3.208 0.624 -4.814 0.932 -1.023 0.199 -2.154 0.471 -2.71 1.348 -0.29 0.457 -0.371 1.009 -0.421 1.556 -1.556 0.018 -3.086 -0.077 -4.335 -0.072 -3.294 0.005 -6.588 -0.204 -9.864 -0.498 -5.579 -0.507 -11.294 -0.982 -16.922 -1.778 -0.032 -0.299 -0.059 -0.597 -0.09 -0.896 -0.095 -0.855 -0.285 -1.837 -1.041 -2.249 -0.321 -0.176 -0.701 -0.217 -1.068 -0.235 -2.38 -0.127 -4.846 0.131 -5.991 1.937 -0.629 -0.136 -1.253 -0.276 -1.878 -0.43 -1.642 -0.394 -4.208 -0.547 -5.615 -1.516 -1.452 -1 -2.122 -3.222 -2.746 -4.774 -0.425 -1.05 -2.086 -7 -3.801 -6.868 -0.136 0.009 -0.276 0.059 -0.412 0.154 -1.045 0.719 0.579 2.525 0.905 3.285 0.692 1.633 1.271 3.317 1.968 4.95 0.733 1.733 1.529 3.878 3.253 4.869 1.701 0.977 4.131 1.213 6.018 1.665 0.566 0.136 1.131 0.267 1.697 0.389 -0.326 1.692 -0.412 3.701 -0.629 5.393 -0.62 4.864 3.099 6.384 7.574 6.516 0.566 0.018 1.185 -0.009 1.615 -0.376 0.511 -0.434 0.579 -1.19 0.597 -1.864 0.077 -2.701 0.014 -5.407 -0.195 -8.104 4.217 0.584 8.475 0.995 12.687 1.376 -0.299 1.909 0.366 4.588 0.48 6.004 0.226 2.86 -0.158 8.009 1.656 10.389 -0.086 -0.113 0.412 -1.982 0.439 -2.194 0.163 -1.38 0.14 -2.778 0.041 -4.163 -0.163 -2.09 -0.33 -4.181 -0.498 -6.271 -0.09 -1.131 0.014 -2.443 -0.249 -3.597l2.14 0.19 1.421 0.122c-0.199 1.896 0.154 5.199 0.195 5.701 0.226 2.918 -0.014 6.968 2.118 9.244 1.068 -2.946 -0.118 -6.687 -0.344 -9.733 -0.063 -0.855 0.199 -3.43 -0.176 -5.077 2.434 0.167 4.869 0.267 7.312 0.244 1.068 -0.009 2.308 0.032 3.593 0.027 -0.226 2.855 -0.362 6.33 0.715 8.755 0.389 0.882 1.05 1.344 2.131 0.955 1.756 -0.629 3.47 -1.376 5.122 -2.231 2.47 0 1.434 -6.57 0.665 -10.443 2.878 -3.606 5.421 -7.583 8.031 -11.38 2.344 -3.407 4.633 -6.674 5.945 -10.638Z" fill="#b93263"/><path d="M73.359 174.472c-1.86 6.149 -1.29 12.855 -0.923 19.198 0.371 6.398 0.602 13.253 3.194 19.189 0.484 -6.402 -1.018 -12.9 -1.394 -19.298 -0.371 -6.326 0.348 -12.859 -0.878 -19.094Z" fill="#b93263"/></g></g></g><path d="M24.424 119.167s0.018 -3.222 3.715 -5.841c3.701 -2.62 27.972 -19.533 27.972 -19.533l4.588 0.507s-8.04 31.053 -11.126 39.378 -12.642 43.016 -12.642 43.016 -2.62 1.389 -2.927 0 21.587 -68.766 21.587 -68.766l-10.022 21.28s-8.941 -5.552 -11.873 -6.936c-2.927 -1.389 -9.267 -3.099 -9.267 -3.099Z" fill="#f2f5ee"/><path d="m28.107 174.612 10.416 0.774c0.584 0.045 1.045 0.52 1.068 1.104l1.946 51.518a0.418 0.418 0 0 1 -0.471 0.43l-16.262 -2.05a0.412 0.412 0 0 1 -0.362 -0.434l2.565 -50.373a1.02 1.02 0 0 1 1.099 -0.968" fill="#f1dc35"/><path d="M32.392 187.082c1.086 0.176 3.882 0.756 4.561 -0.538s-0.928 -1.045 -1.814 -1.086c-2.013 -0.086 -7.823 0.805 -2.746 1.624" fill="#f2f5ee"/><path d="M29.392 192.688c2.09 0.443 3.869 1.154 6.054 0.95 0.76 -0.072 3.796 -0.222 3.059 -1.507 -0.923 -1.602 -9.814 -0.059 -9.556 0.466l0.443 0.086Z" fill="#f2f5ee"/><path d="M28.628 200.991c-0.326 0.204 3.095 1.371 3.525 1.475 1.344 0.33 3.33 1.045 4.674 0.692 2.412 -0.633 0.023 -1.697 -1.294 -2.122 -2.09 -0.674 -4.923 -1.276 -6.905 -0.045" fill="#f2f5ee"/><path d="M28.926 222.366c-0.018 1.303 3.624 1.258 4.502 1.131 2.009 -0.281 2.244 -1.946 2.597 -3.864 0.308 -1.665 1.661 -7.239 -0.054 -8.448 -0.882 -0.624 -4.633 -0.86 -5.538 -0.226 -2.289 1.602 -1.471 9.013 -1.507 11.402Z" fill="#f2f5ee"/></g></svg>