<?xml version="1.0" encoding="UTF-8"?>
<svg id="b" data-name="Capa_2" xmlns="http://www.w3.org/2000/svg" width="231.56" height="174.93" viewBox="0 0 231.56 174.93">
  <g id="c" data-name="OBJETS">
    <g>
      <path d="M230.23,144.6c1.02-1.83,1.31-3.99,1.33-6.1.03-3.07-.3-6.15-.83-9.16-1.08-6.14-3.14-12.06-5.5-17.82-1.34-3.27-2.78-6.51-4.23-9.73-.19-.43-.61-.54-1.01-.46-.09-.26-.14-.4-.14-.4l-102.39-13.34s-34.38-3.76-50.35-3.19c-15.82.56-45.29-1.27-52.23,31.4-4.24-3.54-6.4-9.27-6.37-14.78.04-7.95,3.89-15.64,8.57-21.88,2.52-3.35,5.54-6.36,8.99-8.74.33-.23.53-.61.48-.99.02-.02.04-.03.06-.05.38-.41.37-.99,0-1.4-1.55-1.7-3.1-3.41-4.65-5.11-.12-.13-.28-.21-.45-.25-.34-.41-.97-.6-1.45-.12-6.41,6.37-12.37,13.46-16.12,21.75C.1,92.67-1.39,102.53,1.55,111.48c1.61,4.91,4.42,9.32,7.73,13.25.09.11.22.19.35.23.04.16.12.32.25.44.75.7,1.55,1.36,2.37,1.98.05.14.12.27.23.37.14.13.29.24.44.35.09.07.18.13.28.18.07.04.14.07.21.1.45,3.15,3.78,23.17,17.6,33.02,0,0-2.63,5.45,2.44,7.89,5.07,2.44,38.7,4.51,56.36,5.07,17.66.56,29.12-.56,28.74-6.76,0,0-4.88-8.08-19.54-8.08l1.88-3.01,6.01-5.82s9.58,5.07,62.37,3.57c0,0,16.91,6.01,23.48,7.14,6.58,1.13,23.67,6.39,23.67,6.39,0,0,6.58.19,6.58-2.44s6.76-5.64-1.5-13.72c0,0,6.64-1.09,8.69-7.05Z" fill="#e6be50"/>
      <path d="M117.26,40.62s-17.75,26.77.38,53.36c11.9,17.45,32.5,18.04,40.58,19.16,8.08,1.13,14.84-.56,19.73,0,4.88.56,38.14,3.01,46.97-20.67,8.83-23.67,11.27-53.54-14.09-74.77-22.74-19.03-71.11-13.25-85.39,10.24l-8.17,12.68Z" fill="#d88d42"/>
      <path d="M172.5,105.44s-31.28-9.02-36.35-34.38c-5.07-25.36,10.22-40.64,34.66-43.68,24.44-3.04,37.48,9.3,40.86,19.16s6.76,20.01,5.07,27.62c-1.69,7.61-5.07,19.16-8.17,21.14,0,0-17.19,11.84-36.07,10.15Z" fill="#e6be50"/>
      <path d="M126.85,48.79s-15.78-1.97-19.45-12.4,6.2-19.45,15.22-13.53,10.71,13.81,10.71,13.81c0,0-6.2,9.58-6.48,12.12Z" fill="#e6be50"/>
      <path d="M195.33,23.71S192.55-1.09,208.29.04c11.84.85,9.3,23.67-3.95,28.18l-9.02-4.51Z" fill="#e6be50"/>
      <path d="M185.18,85.71s-9.16-2.54-10.71-4.23c-1.55-1.69-4.79-4.51,2.82-6.62,7.61-2.11,15.13-5.3,15.67-1.73.54,3.56-3.97,10.33-7.78,12.58Z" fill="#dd9d95"/>
      <path d="M45.6,43.15c.01-.06.02-.13.02-.2,0-.5-.45-1.03-.99-.99-8.8.68-16.95,5.79-21.68,13.22-1.31,2.07-2.34,4.32-3.05,6.66-.03.1-.04.19-.04.28-.37.41-.29.95.03,1.36,1.84,2.31,3.8,4.52,5.88,6.62.26.27.66.34,1,.23.26.14.58.16.91-.05,7.32-4.57,12.98-11.56,16.07-19.6.85-2.22,1.49-4.52,1.92-6.86.04-.24.01-.48-.08-.68Z" fill="#d88d42"/>
      <path d="M43.5,96.17c-.15-.55-.69-.79-1.22-.69-3.16.57-6,2.72-7.44,5.59-.24.48-.13,1.07.35,1.35.44.26,1.11.12,1.35-.35.16-.32.34-.63.53-.93.22-.33.34-.5.54-.74.23-.27.48-.53.74-.78.12-.12.25-.23.38-.34.06-.06.13-.11.2-.16.03-.02.05-.04.06-.05.01-.01.03-.02.06-.05,1.2-.88,2.3-1.37,3.75-1.63.53-.1.82-.73.69-1.22Z" fill="#d88d42"/>
      <path d="M46.59,97.95c-.29-.44-.88-.64-1.35-.35-2.09,1.28-4.03,2.81-5.76,4.55-.36.37-.39,1.04,0,1.4.39.36,1.01.39,1.4,0,.82-.83,1.69-1.61,2.61-2.34.05-.04.1-.08.16-.12.01-.01.03-.03.05-.04.11-.09.23-.18.35-.26.23-.17.46-.33.69-.5.49-.34,1-.67,1.51-.99.44-.27.65-.9.35-1.35Z" fill="#d88d42"/>
      <path d="M103.24,89.85c-2.97-.11-5.95-.22-8.92-.33-1.27-.05-1.27,1.93,0,1.98,2.97.11,5.95.22,8.92.33,1.27.05,1.27-1.93,0-1.98Z" fill="#d88d42"/>
      <path d="M129.77,147.93c-2.79.16-5.56-.19-8.22-1.06-.51-.17-1.08.19-1.22.69-.15.54.18,1.05.69,1.22,2.81.91,5.79,1.3,8.74,1.13.53-.03.99-.43.99-.99,0-.51-.45-1.02-.99-.99Z" fill="#d88d42"/>
      <path d="M134.33,145.69c-.15-.56-.69-.78-1.22-.69-2.38.38-4.83.12-7.11-.66-.5-.17-1.08.2-1.22.69-.15.54.18,1.04.69,1.22,2.63.9,5.42,1.1,8.16.66.53-.08.82-.74.69-1.22Z" fill="#d88d42"/>
      <path d="M184.79,151.46c-3.75-.77-7.38-2.04-10.79-3.81-1.13-.58-2.13,1.12-1,1.71,3.55,1.84,7.34,3.2,11.26,4.01.52.11,1.07-.15,1.22-.69.13-.49-.16-1.11-.69-1.22Z" fill="#d88d42"/>
      <path d="M21.27,136.12c-1.04-2.02-1.62-4.27-1.71-6.52-.02-.53-.44-.99-.99-.99-.52,0-1.01.45-.99.99.11,2.63.79,5.18,1.98,7.52.24.47.91.61,1.35.35.48-.28.6-.88.35-1.35Z" fill="#d88d42"/>
      <path d="M26.65,138.28c-.86-2.27-1.82-4.51-2.89-6.69-.24-.48-.91-.61-1.35-.35-.49.29-.59.87-.35,1.35,1.01,2.05,1.9,4.09,2.7,6.21.19.5.67.84,1.22.69.48-.13.88-.71.69-1.22Z" fill="#d88d42"/>
      <path d="M49.35,166.48c-2.66-.69-5.37-1.16-8.1-1.43-.53-.05-.99.49-.99.99,0,.58.45.94.99.99,2.56.25,5.09.71,7.57,1.36,1.23.32,1.76-1.59.53-1.91Z" fill="#d88d42"/>
      <path d="M212.75,9.07c-.66-1.54-1.99-2.91-3.74-3.04-1.85-.14-3.07,1.41-4.07,2.73-2.17,2.9-4.3,5.85-5.69,9.22-.38.92-.69,1.86-.92,2.82-.11.48-.21.97-.27,1.47-.08.55-.18,1.1.03,1.63.2.52.63.83,1.06,1.16.41.31.84.59,1.28.86.84.5,1.74.9,2.66,1.23.03.67.72,1.31,1.45.85,2.98-1.9,4.92-4.98,6.53-8.04,1.7-3.23,3.21-7.29,1.68-10.88Z" fill="#dd9d95"/>
      <path d="M130.09,41.86c-.06-.16-.12-.31-.18-.47-.04-.22-.13-.44-.26-.66-1.64-3.98-4.26-7.55-7.63-10.24-1.91-1.52-4.21-3.03-6.75-2.89-2.21.12-4.45,1.47-4.89,3.77-.48,2.49.94,4.88,2.29,6.85,1.31,1.9,2.85,3.63,4.6,5.13,1.75,1.5,3.68,2.78,5.76,3.78,1.09.52,2.41,1.21,3.6.58.61-.32.93-.93,1.25-1.5.34-.6.68-1.21,1.02-1.81.27-.48.57-.96.78-1.45.34-.23.56-.68.41-1.08Z" fill="#dd9d95"/>
      <circle cx="155.07" cy="79.28" r="8.88" fill="#dd9d95"/>
      <circle cx="202.79" cy="64.69" r="8.88" fill="#dd9d95"/>
      <path d="M157.55,45.53c-.32-1.23-2.23-.71-1.91.53.33,1.25.7,2.57.52,3.87-.08.58-.23.95-.52,1.41-.2.31-.53.65-.85.83-.06.03-.12.07-.18.1-.1.05-.12.06-.07.03.05-.03.03-.02-.08.02-.07.02-.13.04-.2.05-.05,0-.08.01-.09.02-.06,0-.12,0-.18,0,0,0-.21,0-.22,0-.5-.07-.95-.31-1.31-.64-.88-.8-1.3-1.95-1.71-3.03-.19-.5-.67-.84-1.22-.69-.48.13-.88.71-.69,1.22.45,1.22.93,2.42,1.76,3.43.77.93,1.88,1.57,3.09,1.69,2.45.23,4.17-2.13,4.43-4.32.19-1.53-.19-3.05-.58-4.52Z"/>
      <path d="M192.58,40.98c-.19-.5-.67-.84-1.22-.69-.48.13-.88.71-.69,1.22.44,1.15.79,2.46.33,3.65-.32.83-1.07,1.48-1.99,1.4-.08,0-.46-.1-.57-.15-.25-.11-.5-.26-.72-.43-.4-.31-.73-.73-1-1.17-.7-1.17-1.08-2.5-1.66-3.73-.23-.48-.92-.61-1.35-.35-.5.29-.58.87-.35,1.35,1.03,2.19,1.62,4.81,3.98,5.99,1.13.57,2.41.65,3.55.06,1.03-.53,1.76-1.57,2.09-2.65.45-1.47.14-3.08-.4-4.49Z"/>
      <path d="M133.89,35.33c-.43-1.62-1.39-3.08-2.32-4.44-.97-1.4-2.04-2.74-3.2-3.99-2.29-2.45-5-4.76-8.13-6.05-3.22-1.33-7.32-1.15-9.82,1.53-.87.93.53,2.33,1.4,1.4,1.89-2.03,4.89-2.12,7.35-1.24,2.84,1.02,5.32,3.19,7.39,5.33,1.07,1.1,2.07,2.28,2.96,3.53.88,1.22,1.82,2.55,2.32,3.98.76,2.19-.21,3.9-1.59,5.54-2.43-5.19-5.37-10.67-10.94-12.94-1.83-.75-3.84-1.05-5.81-.92-.53.04-.99.43-.99.99,0,.51.45,1.02.99.99,3.01-.2,5.96.75,8.28,2.69,2.1,1.77,3.63,4.08,4.93,6.48.77,1.41,1.45,2.87,2.13,4.33,0,0,0,0,0,0-1.33,1.5-2.61,3.1-2.96,5.1-.09.53.14,1.06.69,1.22.48.13,1.12-.16,1.22-.69.4-2.3,2.24-3.94,3.73-5.68,1.74-2.03,3.11-4.38,2.39-7.15Z"/>
      <path d="M128.04,42.01c-2.7-2.11-5.3-4.34-7.79-6.7-.92-.87-2.32.52-1.4,1.4,2.49,2.36,5.09,4.59,7.79,6.7.42.33.99.41,1.4,0,.34-.34.42-1.07,0-1.4Z"/>
      <path d="M209.76,6.02c-.3-.51-.86-.56-1.35-.35-5.31,2.26-9.33,7.25-10.69,12.83-.37,1.52-.54,3.1-.51,4.67l-.86-.48c-1.03-5.68-.3-11.74,3.05-16.55.85-1.23,1.88-2.33,3.03-3.28.41-.34.35-1.04,0-1.4-.41-.41-.99-.34-1.4,0-4.74,3.97-7.05,10.13-7.1,16.21-.02,1.95.19,3.9.56,5.82.05.25.22.45.44.58.08.11.18.2.32.28,2.63,1.48,5.27,2.97,7.9,4.45,1.11.62,2.11-1.08,1-1.71l-3.08-1.74c.46-.95.98-1.87,1.58-2.75.15-.22.31-.44.47-.66.04-.05.08-.1.11-.15.01-.02.03-.04.04-.05.08-.11.16-.21.25-.31.35-.43.72-.85,1.1-1.25.36-.38.4-1.03,0-1.4-.39-.35-1.02-.4-1.4,0-1.57,1.66-2.89,3.55-3.88,5.61l-.43-.24c.18-.16.29-.4.28-.71-.21-5.3,2.3-10.46,6.4-13.79,1.15-.93,2.45-1.68,3.81-2.25.49-.21.6-.93.35-1.35Z"/>
      <path d="M229.66,145.53c-.35-.35-1.06-.41-1.4,0-1.85,2.26-4.38,3.78-7.23,4.37-2.05-1.59-4.41-2.84-6.59-4.1-4.95-2.84-10.01-5.5-15.2-7.87,1.9-1.03,3.98-1.62,6.09-2.09,2.69-.6,5.41-1.11,8.12-1.66.52-.11.82-.73.69-1.22-.04-.16-.12-.29-.22-.39.22-.12.4-.33.45-.58.67-3.16,1.34-6.32,2.01-9.48.11-.52-.15-1.07-.69-1.22-.49-.14-1.1.17-1.22.69-.67,3.16-1.34,6.32-2.01,9.48-.07.31,0,.63.18.87-2.67.54-5.35,1.04-8.01,1.65-2.51.57-5.02,1.34-7.21,2.73-.13.08-.23.18-.3.28-2.63-1.15-5.3-2.22-8.01-3.19-4.96-1.78-10.04-3.22-15.22-4.21-.52-.1-1.07.15-1.22.69-.13.48.16,1.11.69,1.22,8.8,1.69,17.31,4.66,25.44,8.4,4.08,1.88,8.07,3.94,12,6.12,1.95,1.09,3.89,2.2,5.81,3.34,1.71,1.02,3.41,2.1,4.83,3.53,1.35,1.36,2.39,3.04,2.59,4.98.01.13.02.26.02.39-1.52-1.84-3.6-3.19-5.92-3.79-.5-.13-1.1.16-1.22.69-.12.51.15,1.08.69,1.22.31.08.61.17.91.28.13.05.27.1.4.15.02,0,.02,0,.03.01.01,0,.02.01.04.02.07.03.14.07.22.1.56.26,1.1.58,1.6.94.05.04.1.07.15.11.02.02.04.03.05.04,0,0,0,0,.01.01.12.1.25.2.37.3.23.2.45.4.66.62.22.23.43.47.63.71.01.02.03.03.04.05.04.06.08.11.13.17.1.14.2.29.29.43.13.2.32.35.54.43-.28.7-.7,1.34-1.32,1.86-.04.03-.07.07-.1.11-1.49-1.29-3.26-2.25-5.16-2.78-.5-.14-1.1.17-1.22.69-.12.53.16,1.06.69,1.22.28.08.56.17.84.27.14.05.28.1.41.16.03.01.11.05.12.05.05.02.09.04.14.06.55.25,1.08.54,1.59.87.25.16.49.33.73.5,0,0,.07.05.1.07.04.03.12.1.13.1.11.09.23.19.34.29.44.39.85.81,1.24,1.26-.41.65-1.1,1.08-1.86,1.31-1.32.39-2.63.12-3.9-.34-1.56-.57-3.02-1.38-4.56-1.99-1.53-.61-3.11-1.11-4.7-1.53-3.21-.85-6.49-1.38-9.76-1.96-3.44-.6-6.85-1.3-10.24-2.12-3.38-.82-6.74-1.74-10.06-2.79-3.07-.97-6.12-2.05-9.01-3.48-2.71-1.33-5.28-2.95-7.53-4.97-2.06-1.85-3.87-3.96-5.37-6.29-2.99-4.64-4.81-10.06-5.05-15.59-.03-.71-.03-1.42-.02-2.14.03-1.27-1.94-1.27-1.98,0-.15,5.91,1.39,11.81,4.28,16.96,2.98,5.31,7.36,9.68,12.66,12.67,6.02,3.39,12.85,5.31,19.5,7.01,3.57.91,7.16,1.7,10.78,2.36,3.38.62,6.79,1.13,10.13,1.94,1.69.41,3.37.89,5,1.49,1.59.59,3.1,1.38,4.66,2.03,1.43.6,3.01,1.05,4.57.85,1.36-.17,2.77-.72,3.69-1.78.45-.52.78-1.11.95-1.77.17-.62-.24-1.06-.72-1.18-.01-.02-.02-.04-.04-.05,0,0,0,0-.01-.01.05-.03.09-.06.13-.09,2.97-2.48,2.81-7.15.91-10.22-.52-.85-1.15-1.61-1.84-2.3,2.65-.81,5.07-2.41,6.83-4.56.34-.41.4-.99,0-1.4Z"/>
      <path d="M119.09,166.45c-2.76-4.42-8.09-5.89-12.87-6.91-1.9-.4-3.81-.78-5.72-1.14,2.49-1.81,4.78-3.9,6.41-6.54,1.83-2.94,2.77-6.37,2.99-9.81.47-7.24-2.36-14.17-6.64-19.88-2.49-3.33-5.39-6.3-8.49-9.06-.95-.84-2.35.55-1.4,1.4,5.13,4.58,9.99,9.87,12.64,16.32,2.42,5.92,2.87,13.03-.13,18.84-1.83,3.53-4.87,6.07-8.13,8.23-3.6-.63-7.22-1.17-10.85-1.64-3.67-.47-7.36-.85-11.05-1.14-.53-.04-.99.48-.99.99,0,.57.45.95.99.99,6.33.5,12.65,1.26,18.92,2.28,3.11.51,6.22,1.08,9.31,1.72,2.5.51,5.02,1.03,7.41,1.94,2.33.89,4.55,2.25,5.89,4.4.67,1.08,2.38.09,1.71-1Z"/>
      <path d="M44.09,43.9c-.13-.47-.72-.89-1.22-.69-7.5,3-13.91,8.44-18.1,15.35-1.08,1.77-1.98,3.64-2.74,5.57-.49-.57-.98-1.15-1.46-1.73-.34-.41-1.05-.35-1.4,0-.41.41-.34.98,0,1.4,1.83,2.22,3.75,4.37,5.75,6.44.37.38,1.03.37,1.4,0,.38-.38.37-1.01,0-1.4-.27-.28-.54-.57-.81-.85,5.65-4.05,10.52-9.1,14.34-14.92,1.07-1.64,2.05-3.33,2.95-5.07.58-1.13-1.13-2.13-1.71-1-3.08,6-7.25,11.39-12.3,15.87-1.42,1.26-2.91,2.44-4.46,3.54-.06.04-.11.08-.16.13-.26-.29-.52-.57-.78-.86.14-.13.25-.29.32-.48,2.65-7.04,7.7-13.14,14.03-17.18,1.79-1.14,3.68-2.13,5.65-2.92.5-.2.84-.66.69-1.22Z"/>
      <path d="M208.29,83.23c-.93-2.38-2.36-4.52-4.15-6.34-.89-.91-1.88-1.73-2.92-2.48-1.08-.78-2.25-1.51-3.54-1.9-1.46-.45-3.23-.48-3.99,1.08-.68,1.4-1.34,2.79-2.13,4.13-1.5,2.57-3.28,4.96-5.29,7.15-.43.16-.77.58-.62,1.15.02.08.05.17.07.25-.02-.02-.04-.04-.07-.06-.14-.16-.32-.27-.52-.3-.35-.14-.73-.19-1.11-.24-.6-.09-1.2-.19-1.79-.31-2.53-.51-5.01-1.3-7.36-2.37-.06-.03-.13-.05-.2-.07-.76-.63-1.45-1.34-2.04-2.15-.41-.55-1.02-.63-1.55-.2-4.26,3.44-6.63,8.99-5.85,14.44.77,5.35,4.59,10.05,9.86,11.48,2.99.81,6.19.57,8.99-.76.21-.1.35-.29.42-.51,1.74-.62,3.36-1.57,4.49-3.08.63-.85,1.07-1.84,1.22-2.89.04-.26.05-.53.05-.79.63,1.04,1.39,1.97,2.41,2.66,2.11,1.43,5.07,1.42,7.44.75,2.36-.67,4.53-2.08,6.11-3.96,3.38-4.03,3.95-9.86,2.06-14.68Z" fill="#f7edd9"/>
      <path d="M198.42,100.34c-2.05,1.02-4.52.98-6.56-.01-1.65-5.03-3.36-10.05-4.94-15.11-.04-.13-.14-.3-.1-.43.05-.16.39-.35.5-.45.46-.39.9-.79,1.33-1.2.84-.81,1.63-1.67,2.36-2.58,1.34-1.67,2.82-3.55,3.07-5.75.11-.97-.11-1.95-.76-2.69-.78-.88-2-1.09-3.12-1.11-2.58-.04-5.1.66-7.56,1.33l-3.96,1.07c-1.17.31-2.36.58-3.51.98-1.16.41-2.22,1-2.96,2-.66.89-.96,2.06-.64,3.14.38,1.27,1.43,2.13,2.46,2.88,1.05.76,2.17,1.42,3.34,1.97,2.42,1.13,4.99,1.8,7.65,2.01.06,0,.12,0,.18,0,.1.28.2.57.29.85.21.65.43,1.3.64,1.95.43,1.3.85,2.6,1.28,3.91.8,2.46,1.61,4.91,2.41,7.37-1.45,1.89-3.56,3.22-5.87,3.79-1.23.31-.71,2.21.53,1.91,2.56-.64,4.82-2.07,6.53-4.05,2.64,1.28,5.77,1.25,8.41-.07,1.14-.57.14-2.27-1-1.71ZM185.2,83.67c-.16.23-.26.48-.32.73-2.02-.17-4.03-.66-5.9-1.45-.96-.4-1.89-.89-2.77-1.44-.81-.51-1.67-1.05-2.31-1.78-.57-.64-.64-1.38-.17-2.1.5-.78,1.42-1.18,2.27-1.45,2.22-.71,4.52-1.24,6.78-1.84,2.27-.61,4.58-1.31,6.95-1.36.73-.02,1.83-.08,2.25.63.31.52.13,1.31-.08,1.93-.29.84-.81,1.59-1.32,2.31-.6.86-1.26,1.69-1.96,2.47-.72.8-1.49,1.56-2.3,2.28-.38.34-.81.64-1.11,1.06Z"/>
      <path d="M227.57,70.73c-3.21-.53-6.43-1.06-9.64-1.59-.01-.87-.05-1.73-.11-2.59,2.48.46,4.95.91,7.43,1.37.52.1,1.07-.14,1.22-.69.13-.48-.16-1.12-.69-1.22-2.71-.5-5.42-1-8.12-1.5-.38-3.67-1.14-7.3-2.21-10.82-1.1-3.61-2.46-7.22-4.38-10.48-.3-.52-.63-1.01-.97-1.51.05-.02.09-.04.13-.07,3.09-2.35,6.01-4.89,8.74-7.65.9-.9-.5-2.3-1.4-1.4-2.61,2.63-5.39,5.1-8.34,7.34-.1.08-.19.16-.26.26-1.56-1.97-3.37-3.74-5.36-5.3-5.35-4.18-11.71-7-18.38-8.25-1.85-.35-3.73-.57-5.61-.69,0-.05.02-.11.02-.17.06-2.11.11-4.22.17-6.33.05-1.72-.15-3.75.74-5.3.64-1.1-1.07-2.1-1.71-1-1.03,1.79-.95,3.91-1,5.91-.06,2.24-.12,4.48-.18,6.72,0,.03,0,.06,0,.09-1.56-.02-3.11.03-4.66.17-.48-5.28-1.24-10.52-2.27-15.72-.1-.52-.73-.82-1.22-.69-.55.15-.79.69-.69,1.22,1.02,5.1,1.76,10.24,2.23,15.42-1.99.27-3.96.68-5.89,1.24-.81.23-1.6.49-2.39.77-.5.18-.84.67-.69,1.22.13.49.71.87,1.22.69,6.11-2.18,12.67-2.82,19.1-2.01,6.35.8,12.53,3.1,17.83,6.68,2.87,1.94,5.58,4.28,7.64,7.1,2.11,2.89,3.59,6.18,4.77,9.54,2.54,7.2,3.86,14.89,3.13,22.53-.63,6.67-2.96,13.24-6.97,18.63-.49.66-1.01,1.29-1.56,1.9-.35.4-.39,1,0,1.4.08.08.17.14.27.18,2.71,2.26,5.43,4.53,8.14,6.79.08.07.18.13.27.17-1.61,1.43-3.37,2.71-5.21,3.8-6.38,3.8-13.78,5.44-21.14,5.76-4.6.2-9.22-.09-13.79-.63-.53-.06-.99.5-.99.99,0,.59.46.93.99.99,8.3.98,16.85,1.12,25.01-.94,6.82-1.72,13.3-5.1,18.23-10.17,2.69-2.77,4.83-6.01,6.26-9.6.2-.5-.22-1.09-.69-1.22-.56-.15-1.02.19-1.22.69-1.37,3.43-3.5,6.48-6.1,9.07-.05-.12-.12-.22-.22-.31-2.57-2.14-5.13-4.28-7.7-6.42,4.28-5.19,6.97-11.58,8.03-18.21.3-1.91.48-3.83.53-5.76,3.04.5,6.09,1,9.13,1.5.53.09,1.06-.14,1.22-.69.13-.47-.16-1.13-.69-1.22Z"/>
      <path d="M172.31,103.69c-6.02-1.72-11.79-4.29-16.99-7.79-5.18-3.49-9.75-7.95-13.13-13.22-3.43-5.35-5.71-11.51-6.24-17.86-.49-5.87.54-11.79,3.14-17.08,2.49-5.06,6.28-9.5,11.13-12.42.61-.37,1.23-.71,1.86-1.02,1.14-.57.14-2.28-1-1.71-1.05.53-2.06,1.12-3.04,1.78-2.55-4.17-5.1-8.34-7.65-12.51-.66-1.08-2.37-.09-1.71,1,2.57,4.19,5.13,8.38,7.7,12.58.02.03.04.06.07.09-3.25,2.52-5.98,5.71-8.03,9.27-3.06,5.3-4.64,11.38-4.57,17.5,0,.69.04,1.37.09,2.05-5.32.62-10.64,1.24-15.96,1.85-.53.06-.99.41-.99.99,0,.49.45,1.05.99.99,5.35-.62,10.69-1.24,16.04-1.86.04,0,.07-.01.11-.02.64,5.3,2.41,10.46,5.01,15.13.07.12.14.24.21.36-3.57,1.73-7.13,3.46-10.7,5.2l-5.31,2.58c-.88.43-1.77.86-2.65,1.29-.82.4-1.62.85-2.51,1.09-.25-.34-.49-.69-.73-1.04-.71-1.05-2.42-.06-1.71,1,3.74,5.53,8.58,10.24,14.15,13.92,5.5,3.63,11.72,6.25,18.18,7.59,3.67.76,7.43,1.12,11.18,1.05,1.27-.03,1.27-2,0-1.98-3.02.06-6.03-.17-8.99-.67,0,0,0,0,0,0,1.42-4.41,2.61-8.9,3.56-13.44.11-.52-.15-1.07-.69-1.22-.49-.13-1.11.17-1.22.69-.95,4.54-2.14,9.03-3.56,13.44-.02.06-.03.11-.03.16-2.65-.56-5.25-1.33-7.78-2.31-5.94-2.3-11.46-5.75-16.11-10.09-.24-.23-.49-.46-.73-.69.1-.02.21-.06.31-.13,6.03-3.77,12.17-7.35,18.42-10.74.21-.11.35-.27.42-.44,2.67,3.42,5.83,6.45,9.31,9.07,5.21,3.9,11.13,6.82,17.31,8.82.77.25,1.54.48,2.31.7,1.23.35,1.75-1.56.53-1.91ZM141.43,85.73c-6.25,3.39-12.4,6.97-18.42,10.74-.29.18-.42.43-.45.69-1.1-1.14-2.14-2.34-3.13-3.58.65-.25,1.27-.57,1.89-.88.88-.43,1.77-.86,2.65-1.29,1.83-.89,3.66-1.78,5.48-2.66,3.63-1.76,7.26-3.53,10.9-5.29.46.73.96,1.45,1.46,2.15-.12.01-.25.05-.38.12Z"/>
      <path d="M175.88,88.79c-.05-.17-.13-.31-.25-.44l-.18-.18c-.09-.1-.2-.16-.32-.2-.12-.06-.24-.09-.38-.09-.14,0-.26.02-.38.09-.12.04-.23.11-.32.2-.05.07-.1.13-.15.2-.09.15-.13.32-.13.5.01.09.02.18.04.26.05.17.13.31.25.44l.18.18c.09.1.2.16.32.2.12.06.24.09.38.09.14,0,.26-.02.38-.09.12-.04.23-.11.32-.2.05-.07.1-.13.15-.2.09-.15.13-.32.13-.5-.01-.09-.02-.18-.04-.26Z"/>
      <path d="M179.69,88.85c-.04-.12-.11-.23-.2-.32-.09-.1-.2-.16-.32-.2-.12-.06-.24-.09-.38-.09-.09.01-.18.02-.26.04-.17.05-.31.13-.44.25-.05.07-.1.13-.15.2-.09.15-.13.32-.13.5v.18c0,.14.02.26.09.38.04.12.11.23.2.32.09.1.2.16.32.2.12.06.24.09.38.09.09-.01.18-.02.26-.04.17-.05.31-.13.44-.25.05-.07.1-.13.15-.2.09-.15.13-.32.13-.5v-.18c0-.14-.02-.26-.09-.38Z"/>
      <path d="M176.33,93.15c-1.27,0-1.27,1.98,0,1.98s1.27-1.98,0-1.98Z"/>
      <path d="M195.26,85.44c-1.27,0-1.27,1.98,0,1.98s1.27-1.98,0-1.98Z"/>
      <path d="M195.79,81.41c-1.27,0-1.27,1.98,0,1.98s1.27-1.98,0-1.98Z"/>
      <path d="M199.64,82.11c-1.27,0-1.27,1.98,0,1.98s1.27-1.98,0-1.98Z"/>
      <path d="M98.23,167.92c-.37-.36-1.03-.4-1.4,0-.35.39-.4,1.02,0,1.4.18.17.34.34.5.52.07.08.14.17.21.26,0,0,0,0,0,0,.03.05.07.09.1.14.28.4.52.82.72,1.26,0,0,.02.05.04.08.01.03.03.07.03.07.04.11.08.21.12.32.08.23.14.46.2.7.05.21.09.42.12.63,0,.02,0,.05,0,.07,0,.06.01.11.01.17,0,.13.02.26.02.38.01.52.44,1.01.99.99.52-.02,1-.43.99-.99-.07-2.26-1.02-4.46-2.67-6.03Z"/>
      <path d="M109.04,166.46c-.37-.36-1.03-.4-1.4,0-.36.39-.39,1.01,0,1.4.1.09.19.19.28.29.04.04.08.09.12.14,0,0,.04.05.06.08.03.04.08.12.08.12.03.05.07.1.1.15.07.1.13.2.19.31.07.12.13.24.19.36.03.05.05.11.07.16,0,0,0,0,0,.02.08.26.18.51.24.77.03.12.05.23.07.35.01.06.02.12.03.18t0,0s0,.02,0,.05c.02.25.03.51.03.76,0,.12-.01.24-.02.36,0,.04,0,.09-.01.11,0,.04-.01.08-.02.11-.05.27-.12.53-.2.78-.16.49.19,1.1.69,1.22.54.12,1.04-.16,1.22-.69.8-2.42.09-5.23-1.72-7.02Z"/>
    </g>
  </g>
</svg>