<?xml version="1.0" encoding="UTF-8"?>
<svg id="b" data-name="Capa_2" xmlns="http://www.w3.org/2000/svg" width="261.97" height="296.64" viewBox="0 0 261.97 296.64">
  <g id="c" data-name="OBJECTS">
    <g>
      <path d="M199.37,104.37s20.14,15.54,16.69,35.1c-3.45,19.57-14.96,35.68-18.41,40.86-3.45,5.18-3.45,6.91-3.45,6.91,0,0,27.62-9.21,40.86,4.03,13.24,13.24,14.96,29.92-2.3,40.28-17.26,10.36-35.1,17.26-35.1,17.26,0,0,29.92-10.93,40.86-4.03,10.93,6.91,12.66,11.51,12.66,11.51,0,0-136.96,2.88-136.96-.58s6.91-35.68,6.91-35.68c0,0-14.96,6.33-35.1,4.03-20.14-2.3-42.01-9.78-62.15,4.03-20.14,13.81-18.41,50.64,6.91,55.24,25.32,4.6,52.94-15.54,63.88-8.63,10.93,6.91-4.03,18.99-32.23,21.29-28.2,2.3-56.97-.58-61.57-25.9-4.6-25.32,9.78-56.39,43.16-56.39s42.58,3.45,55.24,3.45,18.99-4.03,18.99-4.03l10.93-106.46,70.21-2.3Z" fill="#ff8033"/>
      <path d="M251.31,48.27s3.64-28.79-26.73-42.42c-30.37-13.63-114.37-1.65-129.67,17.47-15.3,19.12-2.62,68.55,16.55,79.06,19.17,10.52,79.92,3.66,97.33,0,17.41-3.66,39.69-17.5,42.52-54.11Z" fill="#f5a23e"/>
      <path d="M131.24,54.58l-31.4,12.78,6.21,13.14,29.57-15.7-15.7,17.16,18.62-12.78-15.33,27.02,14.24,4.38,10.22-24.1-2.56,22.64,7.3-16.79-2.19,20.08,28.11-1.1.73-29.94,9.49,28.11-1.1-24.83,13.14,21.54,20.08-14.97-17.89-20.45,23,14.97-14.24-19.35,24.46,10.59,4.75-27.02-26.65-6.57,21.18-9.13-19.35.73,11.32-11.68-23-8.4-8.4,12.78-1.83-13.14-9.13-1.83-.37,13.14-5.84-12.41-1.1,14.6-5.84-14.24-28.48,4.75,6.94,17.53-15.7-14.6s-12.41,3.29-13.51,3.65c-1.1.37,17.16,17.89,17.16,17.89l-21.54-13.14,17.52,21.91-29.21-9.49-3.65,20.81,29.94,1.46Z" fill="#ff8033"/>
      <path d="M169.78,18.84s-17.99-12.44-29.4-5.1c-11.42,7.34-16.31,31.39-5.91,35.47,10.4,4.08,23.65,3.87,23.65,3.87,0,0-6.52,34.04,2.04,37.92s22.63,3.87,25.48-1.43,0-36.99,0-36.99c0,0,24.67,1.31,27.11-7.45,2.45-8.77-1.97-46.06-42.97-26.3Z" fill="#585696"/>
      <path d="M172.24,50.48s-.84-2.54-2.46-1.97c-1.62.56-2.04,3.79,0,4.08,2.04.29,2.46-2.11,2.46-2.11Z"/>
      <path d="M178.08,50.52s-1.9-3.3-2.89-2.09c-.99,1.21-1.83,3.04,0,3.6s2.89-1.51,2.89-1.51Z"/>
      <path d="M160.42,57.9s1.66,1.15,2.38,2.72c.72,1.57,2.58,6.44,10.17,6.44s7.62-9.31,9.32-9.16c1.7.14-.61,7.73-6.18,10.16-5.57,2.43-14.9.14-15.68-10.16Z"/>
      <path d="M165.84,43s.38-7.58-6.68-7.96-7.96,7.62-5.7,10.34,11.26,3.85,12.38-2.38Z" fill="#f2ff4d"/>
      <path d="M164.92,41.89s.28-4.37-5.07-4.08-4.93,6.76-.56,7.47c4.37.7,5.8-2.12,5.63-3.38Z"/>
      <path d="M188.74,40.6s.28-6.51-6.05-6.7c-6.33-.18-6.7,7.61-3.67,10.37,3.03,2.75,10,2.57,9.72-3.67Z" fill="#f2ff4d"/>
      <path d="M186.47,40.2s.14-5.21-4.65-3.66c-4.79,1.55-4.65,5.63-1.41,7.18,3.24,1.55,6.36-1.65,6.06-3.52Z"/>
      <path d="M156.3,115.71s27.21-10.12,32.8,5.58c5.58,15.7-8.72,45.01-2.79,53.73,5.93,8.72,25.47,18.14,20.58,34.19-4.88,16.05-34.54,21.28-34.54,21.28,0,0,10.12-30.7,0-48.5-10.12-17.79-16.05-66.29-16.05-66.29Z" fill="#585696"/>
      <path d="M158.86,185.53s5.25,5.76,3.56,12.2c-1.69,6.44-6.44,13.22-2.03,13.05,4.41-.17,6.78-7.46,6.1-12.71-.68-5.25-1.19-6.27-1.19-6.27,0,0,5.25,7.79,4.74,12.88-.51,5.08-2.71,8.64.51,7.46s5.59-8.98,2.03-14.91c-3.56-5.93-5.25-7.46-5.25-7.46,0,0,5.25,6.78,6.95,7.46,1.69.68.68-3.9-3.9-8.47-4.58-4.58-7.79-5.76-7.79-5.76l-3.73,2.54Z" fill="#585696"/>
      <path d="M166.43,253.75s3.08.68,10.6-1.03c7.52-1.71,12.82-3.59,16.07.68,3.25,4.27,2.56,4.62,2.56,4.62l-30.09-.68" fill="#585696"/>
      <path d="M233.64,250c.44.15,7.03.44,11.86-1.02,4.83-1.46,6.3-.29,8.35,2.2,0,0,1.61-1.76,5.42,0,3.81,1.76,2.49,5.42,2.49,5.42l-28.84-.59.73-6Z" fill="#585696"/>
      <path d="M161.67,183.21s-1.8-6.03-.8-12.79c1-6.76.75-35.53-7.76-42.03-8.51-6.51-9.76-7.51-9.76-7.51,0,0,8.26,10.01,9.26,14.01s-2.25.75-2.25.75l-5.75-4.25s8.01,10.51,9.76,16.51,2.5,13.01,2,16.51-.25,16.01,2.25,19.27c2.5,3.25,3,.5,3,.5" fill="#f5a23e"/>
      <path d="M72.22,276.92s12.58-5.48,19.99-3.87,11.93,8.71,1.61,15.16c-10.32,6.45-24.19,7.42-34.51,7.09-10.32-.32-8.71,0-8.71,0,0,0,13.87-5.48,14.83-5.48s-11.93-.64-11.93-.64l9.35-3.87-8.38-2.58,17.74-5.8Z" fill="#f5a23e"/>
    </g>
  </g>
</svg>